M48
;GenerationSoftware,Autodesk,EAGLE,8.6.3*%
;CreationDate,2024-01-13T04:32:11Z*%
FMAT,2
ICI,OFF
METRIC,TZ,000.000
T7C0.250
T6C0.350
T5C0.800
T4C1.000
T3C1.508
T2C1.778
T1C2.200
%
G90
M71
T1
X24272Y13096
X7358Y37296
T2
X2768Y7487
T3
X29491Y5865
X29491Y7993
T4
X23561Y45236
X10861Y45236
X13401Y45236
X15941Y45236
X18481Y45236
X21021Y45236
T5
X22899Y10224
X27529Y11104
X23135Y5751
X22044Y4694
X21532Y6475
X20475Y5341
X6820Y13098
X6820Y11768
X6820Y10481
X6820Y9211
X6820Y4029
X6820Y2759
X6820Y5324
X6820Y6620
T6
X29501Y4642
T7
X2191Y9803
X4301Y23142
X21851Y11442
X21851Y15942
X19101Y11942
X14851Y23192
X3601Y40192
X18097Y13810
X16601Y23392
X3601Y39192
X20101Y14192
X21101Y15192
X27699Y42382
X13851Y13942
X10851Y15692
X15521Y12222
X2301Y45442
X12769Y1959
X17401Y31542
X10901Y41742
X10901Y18742
X25001Y18742
X11841Y25662
X28901Y25742
X26567Y2825
X20601Y11967
X20589Y8882
X17401Y21642
X32101Y21842
X31301Y20142
X21101Y17692
X15801Y18742
X17401Y18542
X13501Y15642
X12215Y12473
X25684Y15395
X31101Y45527
X21751Y13542
X22851Y12442
X2191Y12532
X4301Y24050
X6601Y24042
X12301Y17142
X19401Y15523
X13101Y10542
X2191Y17972
X12605Y11382
X6601Y21692
X4351Y21692
X3622Y18028
X3301Y21542
X7301Y22442
X7501Y19142
X11020Y14142
X12183Y13742
X5999Y2762
X15401Y42442
X28601Y37942
X5999Y4022
X14401Y42442
X27601Y37942
X5999Y5322
X13401Y42442
X26601Y37942
X5999Y6613
X12401Y42442
X25601Y37942
X31851Y10692
X30851Y16192
X18101Y11942
X15601Y16692
X2191Y15252
X29501Y18942
X20256Y9993
X17764Y4712
X19037Y9993
X11253Y8378
X17450Y9808
X26851Y17942
X21101Y16692
X31101Y9942
X31101Y14692
X21101Y18692
X25351Y21692
X17614Y16083
X20401Y13192
X11755Y6924
M30