G04 EAGLE Gerber X2 export*
G75*
%MOMM*%
%FSLAX34Y34*%
%LPD*%
%AMOC8*
5,1,8,0,0,1.08239X$1,22.5*%
G01*
%ADD10R,1.800000X1.800000*%
%ADD11C,1.200000*%
%ADD12C,1.800000*%
%ADD13R,1.100000X1.000000*%
%ADD14R,0.300000X1.250000*%
%ADD15R,1.000000X1.100000*%
%ADD16C,2.000000*%
%ADD17R,2.000000X2.000000*%
%ADD18C,0.120000*%
%ADD19R,1.550000X1.550000*%
%ADD20R,0.635000X0.762000*%
%ADD21C,1.100000*%
%ADD22C,0.152400*%
%ADD23C,0.656400*%
%ADD24C,0.203200*%
%ADD25C,0.756400*%
%ADD26C,1.206400*%
%ADD27C,2.262000*%

G36*
X349623Y-10082D02*
X349623Y-10082D01*
X349631Y-10083D01*
X349719Y-10062D01*
X349809Y-10044D01*
X349816Y-10039D01*
X349824Y-10037D01*
X349898Y-9983D01*
X349973Y-9931D01*
X349978Y-9924D01*
X349985Y-9919D01*
X350031Y-9841D01*
X350080Y-9764D01*
X350082Y-9755D01*
X350086Y-9748D01*
X350114Y-9584D01*
X350114Y484216D01*
X350112Y484224D01*
X350113Y484233D01*
X350092Y484321D01*
X350074Y484411D01*
X350069Y484418D01*
X350067Y484426D01*
X350013Y484499D01*
X349962Y484575D01*
X349954Y484579D01*
X349949Y484586D01*
X349871Y484633D01*
X349794Y484682D01*
X349786Y484683D01*
X349778Y484688D01*
X349614Y484715D01*
X78415Y484715D01*
X-8585Y484769D01*
X-8594Y484767D01*
X-8602Y484769D01*
X-8690Y484748D01*
X-8780Y484730D01*
X-8787Y484725D01*
X-8796Y484723D01*
X-8869Y484669D01*
X-8944Y484617D01*
X-8949Y484610D01*
X-8956Y484605D01*
X-9002Y484527D01*
X-9051Y484450D01*
X-9053Y484441D01*
X-9057Y484434D01*
X-9085Y484270D01*
X-9085Y-9584D01*
X-9083Y-9592D01*
X-9085Y-9601D01*
X-9064Y-9689D01*
X-9045Y-9779D01*
X-9040Y-9786D01*
X-9039Y-9794D01*
X-8985Y-9867D01*
X-8933Y-9943D01*
X-8926Y-9947D01*
X-8921Y-9954D01*
X-8842Y-10001D01*
X-8765Y-10050D01*
X-8757Y-10051D01*
X-8750Y-10056D01*
X-8586Y-10083D01*
X349614Y-10083D01*
X349623Y-10082D01*
G37*
%LPC*%
G36*
X262211Y19899D02*
X262211Y19899D01*
X258678Y23433D01*
X258667Y23440D01*
X258660Y23450D01*
X258585Y23495D01*
X258512Y23543D01*
X258499Y23545D01*
X258489Y23552D01*
X258325Y23579D01*
X208796Y23579D01*
X185133Y47243D01*
X185133Y75655D01*
X185130Y75668D01*
X185132Y75680D01*
X185110Y75764D01*
X185093Y75850D01*
X185086Y75861D01*
X185083Y75873D01*
X184986Y76008D01*
X176711Y84284D01*
X176700Y84291D01*
X176693Y84301D01*
X176618Y84345D01*
X176545Y84394D01*
X176533Y84396D01*
X176522Y84402D01*
X176358Y84430D01*
X171073Y84430D01*
X171065Y84428D01*
X171057Y84430D01*
X170968Y84409D01*
X170878Y84391D01*
X170872Y84386D01*
X170863Y84384D01*
X170790Y84330D01*
X170715Y84278D01*
X170710Y84271D01*
X170703Y84266D01*
X170657Y84188D01*
X170608Y84110D01*
X170606Y84102D01*
X170602Y84095D01*
X170574Y83931D01*
X170574Y81310D01*
X169830Y80565D01*
X157777Y80565D01*
X157033Y81310D01*
X157033Y92362D01*
X157801Y93131D01*
X157877Y93146D01*
X157884Y93151D01*
X157892Y93153D01*
X157966Y93207D01*
X158041Y93259D01*
X158046Y93266D01*
X158053Y93271D01*
X158099Y93349D01*
X158148Y93426D01*
X158150Y93435D01*
X158154Y93442D01*
X158182Y93606D01*
X158182Y96884D01*
X158180Y96892D01*
X158181Y96901D01*
X158160Y96989D01*
X158142Y97079D01*
X158137Y97086D01*
X158135Y97094D01*
X158081Y97167D01*
X158030Y97243D01*
X158022Y97247D01*
X158017Y97254D01*
X157939Y97301D01*
X157862Y97350D01*
X157854Y97351D01*
X157846Y97356D01*
X157682Y97383D01*
X120672Y97383D01*
X113982Y104074D01*
X113982Y137553D01*
X113981Y137558D01*
X113982Y137562D01*
X113961Y137655D01*
X113942Y137748D01*
X113940Y137752D01*
X113939Y137756D01*
X113883Y137834D01*
X113830Y137912D01*
X113826Y137915D01*
X113824Y137918D01*
X113743Y137968D01*
X113662Y138019D01*
X113658Y138020D01*
X113654Y138022D01*
X113560Y138037D01*
X113466Y138052D01*
X113462Y138051D01*
X113458Y138052D01*
X113365Y138028D01*
X113272Y138006D01*
X113269Y138004D01*
X113265Y138003D01*
X113129Y137906D01*
X112086Y136863D01*
X108315Y136863D01*
X105648Y139530D01*
X105648Y143302D01*
X107987Y145641D01*
X107991Y145648D01*
X107998Y145653D01*
X108046Y145730D01*
X108096Y145807D01*
X108098Y145815D01*
X108102Y145822D01*
X108116Y145912D01*
X108133Y146002D01*
X108131Y146010D01*
X108132Y146019D01*
X108110Y146107D01*
X108090Y146196D01*
X108085Y146203D01*
X108083Y146211D01*
X107987Y146347D01*
X100668Y153666D01*
X100668Y156481D01*
X100665Y156494D01*
X100667Y156506D01*
X100646Y156590D01*
X100628Y156676D01*
X100621Y156686D01*
X100618Y156699D01*
X100521Y156834D01*
X95782Y161573D01*
X95772Y161580D01*
X95764Y161590D01*
X95690Y161635D01*
X95617Y161683D01*
X95604Y161685D01*
X95593Y161692D01*
X95429Y161720D01*
X85427Y161720D01*
X78688Y168459D01*
X78688Y184661D01*
X78685Y184674D01*
X78687Y184686D01*
X78666Y184770D01*
X78648Y184856D01*
X78641Y184866D01*
X78638Y184879D01*
X78541Y185014D01*
X76839Y186717D01*
X76828Y186724D01*
X76821Y186734D01*
X76746Y186779D01*
X76673Y186827D01*
X76660Y186829D01*
X76650Y186836D01*
X76486Y186863D01*
X73129Y186863D01*
X70462Y189530D01*
X70462Y193302D01*
X73027Y195867D01*
X73029Y195871D01*
X73033Y195873D01*
X73084Y195953D01*
X73137Y196033D01*
X73137Y196037D01*
X73140Y196040D01*
X73156Y196134D01*
X73173Y196228D01*
X73172Y196232D01*
X73173Y196237D01*
X73151Y196328D01*
X73130Y196422D01*
X73128Y196426D01*
X73127Y196430D01*
X73071Y196506D01*
X73015Y196585D01*
X73011Y196587D01*
X73009Y196590D01*
X72927Y196639D01*
X72846Y196689D01*
X72842Y196689D01*
X72838Y196692D01*
X72674Y196719D01*
X70929Y196719D01*
X70809Y196840D01*
X70802Y196845D01*
X70797Y196851D01*
X70719Y196899D01*
X70643Y196950D01*
X70635Y196951D01*
X70628Y196956D01*
X70538Y196969D01*
X70448Y196986D01*
X70439Y196984D01*
X70431Y196986D01*
X70343Y196963D01*
X70253Y196943D01*
X70247Y196938D01*
X70238Y196936D01*
X70103Y196840D01*
X69982Y196719D01*
X65929Y196719D01*
X65809Y196840D01*
X65802Y196845D01*
X65797Y196851D01*
X65719Y196899D01*
X65643Y196950D01*
X65635Y196951D01*
X65628Y196956D01*
X65538Y196969D01*
X65448Y196986D01*
X65439Y196984D01*
X65431Y196986D01*
X65343Y196963D01*
X65253Y196943D01*
X65247Y196938D01*
X65238Y196936D01*
X65103Y196840D01*
X64982Y196719D01*
X60929Y196719D01*
X60809Y196840D01*
X60802Y196845D01*
X60797Y196851D01*
X60719Y196899D01*
X60643Y196950D01*
X60635Y196951D01*
X60628Y196956D01*
X60538Y196969D01*
X60448Y196986D01*
X60439Y196984D01*
X60431Y196986D01*
X60343Y196963D01*
X60253Y196943D01*
X60247Y196938D01*
X60238Y196936D01*
X60103Y196840D01*
X59982Y196719D01*
X55929Y196719D01*
X55809Y196840D01*
X55802Y196845D01*
X55797Y196851D01*
X55719Y196899D01*
X55643Y196950D01*
X55635Y196951D01*
X55628Y196956D01*
X55538Y196969D01*
X55448Y196986D01*
X55439Y196984D01*
X55431Y196986D01*
X55343Y196963D01*
X55253Y196943D01*
X55247Y196938D01*
X55238Y196936D01*
X55103Y196840D01*
X54982Y196719D01*
X50929Y196719D01*
X50809Y196840D01*
X50802Y196845D01*
X50797Y196851D01*
X50719Y196899D01*
X50643Y196950D01*
X50635Y196951D01*
X50628Y196956D01*
X50538Y196969D01*
X50448Y196986D01*
X50439Y196984D01*
X50431Y196986D01*
X50343Y196963D01*
X50253Y196943D01*
X50247Y196938D01*
X50238Y196936D01*
X50103Y196840D01*
X49982Y196719D01*
X45929Y196719D01*
X45809Y196840D01*
X45802Y196845D01*
X45797Y196851D01*
X45719Y196899D01*
X45643Y196950D01*
X45635Y196951D01*
X45628Y196956D01*
X45538Y196969D01*
X45448Y196986D01*
X45439Y196984D01*
X45431Y196986D01*
X45343Y196963D01*
X45253Y196943D01*
X45247Y196938D01*
X45238Y196936D01*
X45103Y196840D01*
X44982Y196719D01*
X43933Y196719D01*
X43929Y196718D01*
X43925Y196719D01*
X43831Y196699D01*
X43738Y196680D01*
X43735Y196677D01*
X43730Y196676D01*
X43653Y196621D01*
X43574Y196567D01*
X43572Y196564D01*
X43568Y196561D01*
X43519Y196480D01*
X43467Y196400D01*
X43466Y196395D01*
X43464Y196392D01*
X43450Y196298D01*
X43434Y196204D01*
X43435Y196199D01*
X43434Y196195D01*
X43458Y196102D01*
X43480Y196010D01*
X43482Y196007D01*
X43484Y196003D01*
X43580Y195867D01*
X62047Y177400D01*
X62047Y138377D01*
X62049Y138367D01*
X62048Y138357D01*
X62069Y138271D01*
X62087Y138183D01*
X62093Y138174D01*
X62095Y138164D01*
X62149Y138092D01*
X62199Y138019D01*
X62208Y138013D01*
X62214Y138005D01*
X62355Y137916D01*
X63915Y137270D01*
X63927Y137268D01*
X63938Y137261D01*
X64024Y137249D01*
X64110Y137232D01*
X64122Y137235D01*
X64135Y137233D01*
X64297Y137270D01*
X66746Y138285D01*
X69651Y138285D01*
X72335Y137173D01*
X74390Y135119D01*
X75501Y132435D01*
X75501Y129529D01*
X74390Y126845D01*
X72335Y124790D01*
X72258Y124737D01*
X72179Y124683D01*
X72177Y124680D01*
X72173Y124677D01*
X72123Y124597D01*
X72071Y124517D01*
X72070Y124512D01*
X72067Y124509D01*
X72052Y124415D01*
X72036Y124321D01*
X72037Y124317D01*
X72036Y124313D01*
X72059Y124221D01*
X72080Y124127D01*
X72083Y124124D01*
X72084Y124119D01*
X72141Y124043D01*
X72197Y123966D01*
X72200Y123964D01*
X72203Y123960D01*
X72331Y123880D01*
X74390Y121821D01*
X75501Y119137D01*
X75501Y116232D01*
X74390Y113548D01*
X72444Y111602D01*
X72439Y111595D01*
X72432Y111590D01*
X72385Y111513D01*
X72334Y111436D01*
X72332Y111428D01*
X72328Y111421D01*
X72314Y111331D01*
X72298Y111241D01*
X72299Y111232D01*
X72298Y111224D01*
X72321Y111136D01*
X72340Y111046D01*
X72345Y111040D01*
X72347Y111031D01*
X72444Y110896D01*
X74390Y108950D01*
X75501Y106266D01*
X75501Y103361D01*
X74390Y100677D01*
X72529Y98816D01*
X72524Y98809D01*
X72518Y98804D01*
X72470Y98727D01*
X72419Y98650D01*
X72418Y98642D01*
X72413Y98635D01*
X72400Y98545D01*
X72383Y98455D01*
X72385Y98446D01*
X72383Y98438D01*
X72406Y98350D01*
X72426Y98260D01*
X72431Y98254D01*
X72433Y98245D01*
X72529Y98110D01*
X74390Y96249D01*
X75501Y93565D01*
X75501Y90660D01*
X74390Y87976D01*
X72335Y85922D01*
X69651Y84810D01*
X66746Y84810D01*
X64252Y85843D01*
X64239Y85845D01*
X64229Y85852D01*
X64142Y85864D01*
X64056Y85881D01*
X64044Y85878D01*
X64032Y85880D01*
X63870Y85843D01*
X61461Y84845D01*
X58568Y84845D01*
X55896Y85952D01*
X53851Y87997D01*
X52744Y90670D01*
X52744Y93562D01*
X53480Y95340D01*
X53482Y95350D01*
X53487Y95359D01*
X53501Y95447D01*
X53518Y95535D01*
X53516Y95545D01*
X53517Y95556D01*
X53495Y95642D01*
X53477Y95730D01*
X53471Y95738D01*
X53468Y95748D01*
X53372Y95884D01*
X44362Y104894D01*
X44362Y137500D01*
X49453Y142591D01*
X49460Y142602D01*
X49471Y142609D01*
X49515Y142684D01*
X49563Y142757D01*
X49566Y142770D01*
X49572Y142780D01*
X49600Y142944D01*
X49600Y172037D01*
X49597Y172049D01*
X49599Y172062D01*
X49578Y172146D01*
X49560Y172232D01*
X49553Y172242D01*
X49550Y172254D01*
X49453Y172390D01*
X41625Y180218D01*
X41622Y180220D01*
X41620Y180224D01*
X41539Y180275D01*
X41460Y180328D01*
X41456Y180329D01*
X41452Y180331D01*
X41358Y180347D01*
X41264Y180364D01*
X41260Y180363D01*
X41256Y180364D01*
X41164Y180342D01*
X41070Y180321D01*
X41066Y180319D01*
X41062Y180318D01*
X40986Y180262D01*
X40908Y180206D01*
X40906Y180202D01*
X40902Y180200D01*
X40854Y180118D01*
X40804Y180037D01*
X40803Y180033D01*
X40801Y180029D01*
X40773Y179865D01*
X40773Y178390D01*
X38193Y175810D01*
X38186Y175799D01*
X38176Y175792D01*
X38132Y175717D01*
X38084Y175644D01*
X38081Y175632D01*
X38075Y175621D01*
X38047Y175457D01*
X38047Y165774D01*
X36710Y164437D01*
X30853Y158580D01*
X30847Y158571D01*
X30839Y158565D01*
X30793Y158489D01*
X30743Y158414D01*
X30741Y158404D01*
X30736Y158395D01*
X30723Y158307D01*
X30707Y158219D01*
X30709Y158208D01*
X30708Y158198D01*
X30745Y158036D01*
X32185Y154559D01*
X32185Y150473D01*
X30622Y146698D01*
X27732Y143809D01*
X23957Y142245D01*
X19871Y142245D01*
X16097Y143809D01*
X13207Y146698D01*
X11644Y150473D01*
X11644Y154559D01*
X13207Y158334D01*
X16097Y161223D01*
X19871Y162787D01*
X23957Y162787D01*
X27434Y161347D01*
X27445Y161345D01*
X27454Y161339D01*
X27542Y161326D01*
X27630Y161309D01*
X27640Y161311D01*
X27650Y161309D01*
X27737Y161331D01*
X27824Y161350D01*
X27833Y161356D01*
X27843Y161358D01*
X27978Y161455D01*
X33835Y167312D01*
X33842Y167322D01*
X33853Y167330D01*
X33897Y167405D01*
X33945Y167478D01*
X33948Y167490D01*
X33954Y167501D01*
X33982Y167665D01*
X33982Y175869D01*
X33979Y175881D01*
X33981Y175894D01*
X33960Y175978D01*
X33942Y176064D01*
X33935Y176074D01*
X33932Y176086D01*
X33835Y176222D01*
X32772Y177286D01*
X32767Y177289D01*
X32763Y177294D01*
X32684Y177344D01*
X32606Y177395D01*
X32600Y177396D01*
X32594Y177400D01*
X32503Y177415D01*
X32411Y177432D01*
X32404Y177430D01*
X32398Y177431D01*
X32308Y177409D01*
X32216Y177389D01*
X32211Y177385D01*
X32205Y177384D01*
X32131Y177328D01*
X32054Y177274D01*
X32051Y177268D01*
X32046Y177264D01*
X31958Y177124D01*
X30622Y173898D01*
X27732Y171009D01*
X23957Y169445D01*
X19871Y169445D01*
X16097Y171009D01*
X13207Y173898D01*
X11644Y177673D01*
X11644Y181759D01*
X13207Y185534D01*
X16097Y188423D01*
X19871Y189987D01*
X23957Y189987D01*
X27732Y188423D01*
X30622Y185534D01*
X31630Y183100D01*
X31633Y183094D01*
X31635Y183088D01*
X31689Y183012D01*
X31741Y182935D01*
X31746Y182931D01*
X31750Y182926D01*
X31829Y182877D01*
X31908Y182826D01*
X31914Y182825D01*
X31919Y182822D01*
X32011Y182808D01*
X32103Y182792D01*
X32110Y182793D01*
X32116Y182792D01*
X32206Y182815D01*
X32297Y182836D01*
X32302Y182840D01*
X32309Y182841D01*
X32444Y182938D01*
X34335Y184828D01*
X35810Y184828D01*
X35814Y184829D01*
X35818Y184828D01*
X35911Y184849D01*
X36005Y184868D01*
X36008Y184870D01*
X36012Y184871D01*
X36090Y184926D01*
X36169Y184980D01*
X36171Y184984D01*
X36174Y184986D01*
X36224Y185067D01*
X36276Y185148D01*
X36276Y185152D01*
X36279Y185156D01*
X36293Y185250D01*
X36309Y185344D01*
X36308Y185348D01*
X36309Y185352D01*
X36285Y185445D01*
X36263Y185537D01*
X36260Y185541D01*
X36259Y185545D01*
X36163Y185680D01*
X10346Y211497D01*
X9009Y212834D01*
X9009Y412146D01*
X16300Y419437D01*
X67757Y419437D01*
X78599Y408595D01*
X78610Y408588D01*
X78617Y408578D01*
X78692Y408533D01*
X78765Y408485D01*
X78777Y408483D01*
X78788Y408476D01*
X78837Y408468D01*
X78898Y408407D01*
X78909Y408400D01*
X78916Y408390D01*
X78991Y408346D01*
X79064Y408297D01*
X79076Y408295D01*
X79087Y408288D01*
X79251Y408261D01*
X79982Y408261D01*
X80103Y408140D01*
X80110Y408135D01*
X80115Y408129D01*
X80192Y408081D01*
X80269Y408030D01*
X80277Y408029D01*
X80284Y408024D01*
X80374Y408011D01*
X80464Y407994D01*
X80472Y407996D01*
X80481Y407995D01*
X80569Y408017D01*
X80658Y408037D01*
X80665Y408042D01*
X80673Y408044D01*
X80809Y408140D01*
X80929Y408261D01*
X84982Y408261D01*
X85103Y408140D01*
X85110Y408135D01*
X85115Y408129D01*
X85192Y408081D01*
X85269Y408030D01*
X85277Y408029D01*
X85284Y408024D01*
X85374Y408011D01*
X85464Y407994D01*
X85472Y407996D01*
X85481Y407995D01*
X85569Y408017D01*
X85658Y408037D01*
X85665Y408042D01*
X85673Y408044D01*
X85809Y408140D01*
X85929Y408261D01*
X89982Y408261D01*
X90103Y408140D01*
X90110Y408135D01*
X90115Y408129D01*
X90192Y408081D01*
X90269Y408030D01*
X90277Y408029D01*
X90284Y408024D01*
X90374Y408011D01*
X90464Y407994D01*
X90472Y407996D01*
X90481Y407995D01*
X90569Y408017D01*
X90658Y408037D01*
X90665Y408042D01*
X90673Y408044D01*
X90809Y408140D01*
X90929Y408261D01*
X94982Y408261D01*
X95071Y408172D01*
X95074Y408170D01*
X95077Y408166D01*
X95157Y408115D01*
X95237Y408062D01*
X95241Y408062D01*
X95244Y408059D01*
X95338Y408044D01*
X95432Y408026D01*
X95436Y408027D01*
X95440Y408026D01*
X95533Y408048D01*
X95626Y408069D01*
X95630Y408071D01*
X95634Y408072D01*
X95710Y408128D01*
X95788Y408184D01*
X95791Y408188D01*
X95794Y408190D01*
X95842Y408271D01*
X95893Y408353D01*
X95893Y408357D01*
X95895Y408361D01*
X95923Y408525D01*
X95923Y410356D01*
X95921Y410369D01*
X95922Y410381D01*
X95901Y410466D01*
X95884Y410551D01*
X95876Y410562D01*
X95873Y410574D01*
X95777Y410709D01*
X95487Y410999D01*
X95477Y411006D01*
X95469Y411016D01*
X95394Y411061D01*
X95321Y411109D01*
X95309Y411111D01*
X95298Y411118D01*
X95134Y411145D01*
X85919Y411145D01*
X85174Y411890D01*
X85174Y422942D01*
X85919Y423687D01*
X94376Y423687D01*
X94387Y423689D01*
X94398Y423687D01*
X94485Y423709D01*
X94571Y423726D01*
X94581Y423733D01*
X94591Y423735D01*
X94727Y423831D01*
X111329Y440245D01*
X111331Y440248D01*
X111335Y440250D01*
X111387Y440331D01*
X111440Y440410D01*
X111441Y440413D01*
X111443Y440417D01*
X111460Y440511D01*
X111478Y440605D01*
X111477Y440609D01*
X111477Y440612D01*
X111456Y440707D01*
X111436Y440799D01*
X111434Y440802D01*
X111433Y440806D01*
X111376Y440884D01*
X111322Y440962D01*
X111318Y440964D01*
X111316Y440967D01*
X111234Y441017D01*
X111153Y441067D01*
X111149Y441068D01*
X111146Y441070D01*
X111051Y441083D01*
X110956Y441098D01*
X110953Y441098D01*
X110949Y441098D01*
X110899Y441087D01*
X106366Y441087D01*
X102223Y442802D01*
X99053Y445973D01*
X97337Y450115D01*
X97337Y454599D01*
X99053Y458742D01*
X102223Y461912D01*
X106366Y463628D01*
X110849Y463628D01*
X114992Y461912D01*
X118162Y458742D01*
X119878Y454599D01*
X119878Y450115D01*
X118162Y445973D01*
X114992Y442802D01*
X114490Y442595D01*
X114489Y442594D01*
X114487Y442593D01*
X114407Y442539D01*
X114325Y442484D01*
X114324Y442482D01*
X114323Y442481D01*
X114271Y442400D01*
X114217Y442317D01*
X114217Y442315D01*
X114216Y442313D01*
X114199Y442214D01*
X114182Y442121D01*
X114183Y442119D01*
X114182Y442117D01*
X114205Y442022D01*
X114227Y441927D01*
X114228Y441926D01*
X114228Y441924D01*
X114287Y441844D01*
X114343Y441766D01*
X114345Y441765D01*
X114346Y441764D01*
X114430Y441713D01*
X114513Y441663D01*
X114515Y441663D01*
X114517Y441662D01*
X114681Y441634D01*
X127956Y441625D01*
X127958Y441625D01*
X127960Y441625D01*
X128055Y441645D01*
X128151Y441664D01*
X128152Y441666D01*
X128155Y441666D01*
X128236Y441723D01*
X128315Y441777D01*
X128316Y441779D01*
X128318Y441780D01*
X128370Y441863D01*
X128422Y441944D01*
X128422Y441946D01*
X128423Y441948D01*
X128438Y442043D01*
X128455Y442140D01*
X128454Y442143D01*
X128455Y442145D01*
X128432Y442238D01*
X128409Y442334D01*
X128408Y442336D01*
X128407Y442338D01*
X128349Y442415D01*
X128291Y442494D01*
X128289Y442495D01*
X128288Y442497D01*
X128147Y442585D01*
X127623Y442802D01*
X124453Y445973D01*
X122737Y450115D01*
X122737Y454599D01*
X124453Y458742D01*
X127623Y461912D01*
X131766Y463628D01*
X136249Y463628D01*
X140392Y461912D01*
X143562Y458742D01*
X145278Y454599D01*
X145278Y450115D01*
X143562Y445973D01*
X140392Y442802D01*
X139847Y442577D01*
X139846Y442576D01*
X139844Y442575D01*
X139765Y442522D01*
X139682Y442466D01*
X139681Y442464D01*
X139680Y442463D01*
X139628Y442382D01*
X139574Y442299D01*
X139574Y442297D01*
X139573Y442295D01*
X139556Y442198D01*
X139539Y442103D01*
X139540Y442101D01*
X139539Y442099D01*
X139562Y442003D01*
X139584Y441909D01*
X139585Y441908D01*
X139585Y441906D01*
X139644Y441826D01*
X139700Y441748D01*
X139702Y441747D01*
X139703Y441746D01*
X139787Y441696D01*
X139870Y441645D01*
X139872Y441645D01*
X139874Y441644D01*
X140038Y441616D01*
X153399Y441607D01*
X153401Y441607D01*
X153403Y441607D01*
X153498Y441627D01*
X153594Y441646D01*
X153596Y441648D01*
X153598Y441648D01*
X153679Y441705D01*
X153758Y441759D01*
X153759Y441761D01*
X153761Y441762D01*
X153813Y441846D01*
X153865Y441926D01*
X153865Y441929D01*
X153867Y441931D01*
X153882Y442025D01*
X153898Y442122D01*
X153898Y442125D01*
X153898Y442127D01*
X153875Y442220D01*
X153852Y442316D01*
X153851Y442318D01*
X153850Y442320D01*
X153792Y442397D01*
X153735Y442476D01*
X153733Y442477D01*
X153731Y442479D01*
X153590Y442567D01*
X153023Y442802D01*
X149853Y445973D01*
X148137Y450115D01*
X148137Y454599D01*
X149853Y458742D01*
X153023Y461912D01*
X157166Y463628D01*
X161649Y463628D01*
X165792Y461912D01*
X168962Y458742D01*
X170678Y454599D01*
X170678Y450115D01*
X168962Y445973D01*
X165792Y442802D01*
X165204Y442559D01*
X165203Y442558D01*
X165201Y442558D01*
X165121Y442503D01*
X165039Y442448D01*
X165038Y442446D01*
X165037Y442445D01*
X164985Y442364D01*
X164931Y442281D01*
X164931Y442279D01*
X164930Y442278D01*
X164913Y442181D01*
X164896Y442085D01*
X164897Y442084D01*
X164896Y442082D01*
X164919Y441987D01*
X164941Y441892D01*
X164942Y441890D01*
X164942Y441888D01*
X165001Y441809D01*
X165057Y441730D01*
X165059Y441730D01*
X165060Y441728D01*
X165144Y441678D01*
X165227Y441628D01*
X165229Y441627D01*
X165231Y441626D01*
X165395Y441599D01*
X178842Y441589D01*
X178844Y441590D01*
X178847Y441589D01*
X178941Y441609D01*
X179037Y441629D01*
X179039Y441630D01*
X179041Y441630D01*
X179123Y441687D01*
X179201Y441741D01*
X179202Y441743D01*
X179204Y441744D01*
X179256Y441828D01*
X179308Y441908D01*
X179308Y441911D01*
X179310Y441913D01*
X179325Y442006D01*
X179341Y442104D01*
X179341Y442107D01*
X179341Y442109D01*
X179318Y442202D01*
X179295Y442298D01*
X179294Y442300D01*
X179294Y442302D01*
X179236Y442379D01*
X179178Y442458D01*
X179176Y442459D01*
X179174Y442461D01*
X179033Y442550D01*
X178423Y442802D01*
X175253Y445973D01*
X173537Y450115D01*
X173537Y454599D01*
X175253Y458742D01*
X178423Y461912D01*
X182566Y463628D01*
X187049Y463628D01*
X191192Y461912D01*
X194362Y458742D01*
X196078Y454599D01*
X196078Y450115D01*
X194362Y445973D01*
X191192Y442802D01*
X190561Y442541D01*
X190560Y442540D01*
X190558Y442540D01*
X190479Y442486D01*
X190396Y442430D01*
X190395Y442428D01*
X190394Y442427D01*
X190342Y442347D01*
X190288Y442263D01*
X190288Y442261D01*
X190286Y442260D01*
X190270Y442163D01*
X190253Y442068D01*
X190254Y442066D01*
X190253Y442064D01*
X190276Y441969D01*
X190298Y441874D01*
X190299Y441872D01*
X190299Y441870D01*
X190357Y441792D01*
X190414Y441713D01*
X190416Y441712D01*
X190417Y441710D01*
X190503Y441659D01*
X190584Y441610D01*
X190586Y441610D01*
X190588Y441609D01*
X190752Y441581D01*
X204285Y441571D01*
X204288Y441572D01*
X204290Y441571D01*
X204386Y441592D01*
X204480Y441611D01*
X204482Y441612D01*
X204484Y441612D01*
X204567Y441670D01*
X204644Y441723D01*
X204645Y441725D01*
X204647Y441726D01*
X204700Y441810D01*
X204751Y441891D01*
X204752Y441893D01*
X204753Y441895D01*
X204768Y441989D01*
X204785Y442087D01*
X204784Y442089D01*
X204784Y442091D01*
X204761Y442184D01*
X204739Y442280D01*
X204737Y442282D01*
X204737Y442284D01*
X204679Y442362D01*
X204621Y442440D01*
X204619Y442442D01*
X204618Y442443D01*
X204477Y442532D01*
X203823Y442802D01*
X200653Y445973D01*
X198937Y450115D01*
X198937Y454599D01*
X200653Y458742D01*
X203823Y461912D01*
X207966Y463628D01*
X212449Y463628D01*
X216592Y461912D01*
X219762Y458742D01*
X221478Y454599D01*
X221478Y450115D01*
X219762Y445973D01*
X219508Y445719D01*
X219503Y445711D01*
X219496Y445707D01*
X219449Y445629D01*
X219398Y445553D01*
X219397Y445544D01*
X219392Y445537D01*
X219378Y445447D01*
X219362Y445357D01*
X219364Y445349D01*
X219362Y445341D01*
X219385Y445253D01*
X219405Y445163D01*
X219409Y445156D01*
X219411Y445148D01*
X219508Y445012D01*
X222214Y442306D01*
X222218Y442304D01*
X222220Y442300D01*
X222300Y442249D01*
X222380Y442196D01*
X222384Y442195D01*
X222388Y442193D01*
X222481Y442177D01*
X222576Y442160D01*
X222580Y442161D01*
X222584Y442160D01*
X222676Y442182D01*
X222770Y442203D01*
X222773Y442205D01*
X222777Y442206D01*
X222853Y442262D01*
X222932Y442318D01*
X222934Y442321D01*
X222938Y442324D01*
X222986Y442406D01*
X223036Y442487D01*
X223037Y442491D01*
X223039Y442495D01*
X223067Y442659D01*
X223067Y451358D01*
X234608Y451358D01*
X234608Y439817D01*
X225909Y439817D01*
X225905Y439816D01*
X225901Y439816D01*
X225808Y439796D01*
X225714Y439777D01*
X225711Y439775D01*
X225707Y439774D01*
X225629Y439718D01*
X225550Y439664D01*
X225548Y439661D01*
X225545Y439658D01*
X225495Y439577D01*
X225443Y439497D01*
X225443Y439493D01*
X225440Y439489D01*
X225426Y439395D01*
X225410Y439301D01*
X225411Y439297D01*
X225410Y439293D01*
X225434Y439200D01*
X225456Y439107D01*
X225459Y439104D01*
X225460Y439100D01*
X225556Y438964D01*
X230168Y434352D01*
X230177Y434346D01*
X230184Y434337D01*
X230260Y434291D01*
X230334Y434242D01*
X230345Y434240D01*
X230354Y434235D01*
X230518Y434206D01*
X231023Y434203D01*
X231024Y434203D01*
X231026Y434203D01*
X232132Y434203D01*
X232172Y434196D01*
X242247Y434134D01*
X242261Y434136D01*
X242275Y434134D01*
X242358Y434155D01*
X242442Y434172D01*
X242454Y434180D01*
X242468Y434183D01*
X242603Y434280D01*
X247787Y439464D01*
X247788Y439464D01*
X247788Y439465D01*
X264283Y456069D01*
X264289Y456079D01*
X264299Y456086D01*
X264305Y456097D01*
X265097Y456888D01*
X265098Y456889D01*
X265098Y456890D01*
X265763Y457559D01*
X266710Y457559D01*
X266711Y457559D01*
X266712Y457559D01*
X267841Y457562D01*
X267863Y457559D01*
X306656Y457559D01*
X306668Y457561D01*
X306681Y457559D01*
X306765Y457581D01*
X306851Y457598D01*
X306861Y457605D01*
X306873Y457609D01*
X307009Y457705D01*
X309129Y459825D01*
X312900Y459825D01*
X315020Y457705D01*
X315031Y457698D01*
X315038Y457688D01*
X315113Y457643D01*
X315186Y457595D01*
X315198Y457593D01*
X315209Y457586D01*
X315373Y457559D01*
X322962Y457559D01*
X330301Y450219D01*
X330301Y107697D01*
X330367Y41963D01*
X330368Y41957D01*
X330368Y41933D01*
X330368Y41932D01*
X330368Y41931D01*
X330368Y40814D01*
X330368Y40813D01*
X330369Y39862D01*
X329693Y39186D01*
X329693Y39185D01*
X329692Y39185D01*
X328889Y38380D01*
X328883Y38376D01*
X326329Y35822D01*
X326324Y35815D01*
X326318Y35810D01*
X326273Y35738D01*
X325523Y35016D01*
X325520Y35012D01*
X325516Y35009D01*
X324790Y34283D01*
X324694Y34218D01*
X314650Y24543D01*
X314647Y24540D01*
X314643Y24537D01*
X313974Y23867D01*
X313027Y23885D01*
X313023Y23884D01*
X313018Y23885D01*
X273326Y23885D01*
X273313Y23883D01*
X273301Y23885D01*
X273216Y23863D01*
X273131Y23846D01*
X273120Y23839D01*
X273108Y23835D01*
X272972Y23739D01*
X269133Y19899D01*
X262211Y19899D01*
G37*
%LPD*%
G36*
X216472Y211496D02*
X216472Y211496D01*
X216481Y211495D01*
X216569Y211517D01*
X216658Y211537D01*
X216665Y211542D01*
X216673Y211544D01*
X216809Y211640D01*
X216929Y211761D01*
X220982Y211761D01*
X220991Y211762D01*
X220999Y211761D01*
X221087Y211782D01*
X221177Y211800D01*
X221184Y211805D01*
X221192Y211807D01*
X221266Y211861D01*
X221341Y211913D01*
X221346Y211920D01*
X221353Y211925D01*
X221399Y212003D01*
X221448Y212080D01*
X221450Y212089D01*
X221454Y212096D01*
X221482Y212260D01*
X221482Y212758D01*
X301335Y292612D01*
X301337Y292613D01*
X301338Y292614D01*
X301344Y292623D01*
X301353Y292630D01*
X301397Y292705D01*
X301445Y292778D01*
X301448Y292790D01*
X301454Y292801D01*
X301482Y292965D01*
X301482Y392720D01*
X301480Y392728D01*
X301481Y392737D01*
X301460Y392825D01*
X301442Y392915D01*
X301437Y392922D01*
X301435Y392930D01*
X301381Y393003D01*
X301330Y393079D01*
X301322Y393083D01*
X301317Y393090D01*
X301239Y393137D01*
X301162Y393186D01*
X301154Y393187D01*
X301146Y393192D01*
X300982Y393219D01*
X296929Y393219D01*
X296809Y393340D01*
X296802Y393345D01*
X296797Y393351D01*
X296719Y393399D01*
X296643Y393450D01*
X296635Y393451D01*
X296628Y393456D01*
X296538Y393469D01*
X296448Y393486D01*
X296439Y393484D01*
X296431Y393486D01*
X296343Y393463D01*
X296253Y393443D01*
X296247Y393438D01*
X296238Y393436D01*
X296103Y393340D01*
X295982Y393219D01*
X291929Y393219D01*
X291809Y393340D01*
X291802Y393345D01*
X291797Y393351D01*
X291719Y393399D01*
X291643Y393450D01*
X291635Y393451D01*
X291628Y393456D01*
X291538Y393469D01*
X291448Y393486D01*
X291439Y393484D01*
X291431Y393486D01*
X291343Y393463D01*
X291253Y393443D01*
X291247Y393438D01*
X291238Y393436D01*
X291103Y393340D01*
X290982Y393219D01*
X286929Y393219D01*
X286809Y393340D01*
X286802Y393345D01*
X286797Y393351D01*
X286719Y393399D01*
X286643Y393450D01*
X286635Y393451D01*
X286628Y393456D01*
X286538Y393469D01*
X286448Y393486D01*
X286439Y393484D01*
X286431Y393486D01*
X286343Y393463D01*
X286253Y393443D01*
X286247Y393438D01*
X286238Y393436D01*
X286103Y393340D01*
X285982Y393219D01*
X281929Y393219D01*
X281841Y393308D01*
X281837Y393310D01*
X281835Y393314D01*
X281755Y393365D01*
X281675Y393418D01*
X281671Y393419D01*
X281667Y393421D01*
X281574Y393437D01*
X281480Y393454D01*
X281475Y393453D01*
X281471Y393454D01*
X281379Y393432D01*
X281285Y393411D01*
X281282Y393409D01*
X281278Y393408D01*
X281202Y393352D01*
X281123Y393296D01*
X281121Y393292D01*
X281118Y393290D01*
X281070Y393209D01*
X281019Y393127D01*
X281018Y393123D01*
X281016Y393119D01*
X280989Y392955D01*
X280989Y387523D01*
X280991Y387511D01*
X280989Y387499D01*
X281011Y387414D01*
X281028Y387328D01*
X281035Y387318D01*
X281038Y387306D01*
X281135Y387170D01*
X284190Y384115D01*
X284201Y384108D01*
X284208Y384098D01*
X284283Y384053D01*
X284356Y384005D01*
X284368Y384003D01*
X284379Y383996D01*
X284543Y383969D01*
X287900Y383969D01*
X290567Y381302D01*
X290567Y377530D01*
X287900Y374863D01*
X284129Y374863D01*
X281367Y377624D01*
X281360Y377629D01*
X281356Y377636D01*
X281278Y377684D01*
X281202Y377734D01*
X281193Y377736D01*
X281186Y377740D01*
X281096Y377754D01*
X281006Y377771D01*
X280998Y377769D01*
X280990Y377770D01*
X280902Y377748D01*
X280812Y377728D01*
X280805Y377723D01*
X280797Y377721D01*
X280661Y377624D01*
X277900Y374863D01*
X274129Y374863D01*
X271367Y377624D01*
X271360Y377629D01*
X271356Y377636D01*
X271278Y377684D01*
X271202Y377734D01*
X271193Y377736D01*
X271186Y377740D01*
X271096Y377754D01*
X271006Y377771D01*
X270998Y377769D01*
X270990Y377770D01*
X270902Y377748D01*
X270812Y377728D01*
X270805Y377723D01*
X270797Y377721D01*
X270661Y377624D01*
X267900Y374863D01*
X264129Y374863D01*
X261367Y377624D01*
X261360Y377629D01*
X261356Y377636D01*
X261278Y377684D01*
X261202Y377734D01*
X261193Y377736D01*
X261186Y377740D01*
X261096Y377754D01*
X261006Y377771D01*
X260998Y377769D01*
X260990Y377770D01*
X260902Y377748D01*
X260812Y377728D01*
X260805Y377723D01*
X260797Y377721D01*
X260661Y377624D01*
X257900Y374863D01*
X254129Y374863D01*
X251462Y377530D01*
X251462Y381302D01*
X254129Y383969D01*
X257486Y383969D01*
X257498Y383971D01*
X257510Y383969D01*
X257595Y383991D01*
X257680Y384008D01*
X257691Y384015D01*
X257703Y384019D01*
X257839Y384115D01*
X261777Y388053D01*
X261784Y388064D01*
X261794Y388071D01*
X261838Y388146D01*
X261887Y388219D01*
X261889Y388231D01*
X261895Y388242D01*
X261923Y388406D01*
X261923Y392955D01*
X261922Y392959D01*
X261923Y392963D01*
X261903Y393055D01*
X261884Y393150D01*
X261881Y393153D01*
X261880Y393157D01*
X261825Y393235D01*
X261771Y393314D01*
X261767Y393316D01*
X261765Y393319D01*
X261684Y393369D01*
X261603Y393421D01*
X261599Y393421D01*
X261596Y393424D01*
X261502Y393438D01*
X261407Y393454D01*
X261403Y393453D01*
X261399Y393454D01*
X261306Y393430D01*
X261214Y393408D01*
X261211Y393405D01*
X261206Y393404D01*
X261071Y393308D01*
X260982Y393219D01*
X256929Y393219D01*
X256809Y393340D01*
X256802Y393345D01*
X256797Y393351D01*
X256719Y393399D01*
X256643Y393450D01*
X256635Y393451D01*
X256628Y393456D01*
X256538Y393469D01*
X256448Y393486D01*
X256439Y393484D01*
X256431Y393486D01*
X256343Y393463D01*
X256253Y393443D01*
X256247Y393438D01*
X256238Y393436D01*
X256103Y393340D01*
X255982Y393219D01*
X251929Y393219D01*
X251809Y393340D01*
X251802Y393345D01*
X251797Y393351D01*
X251719Y393399D01*
X251643Y393450D01*
X251635Y393451D01*
X251628Y393456D01*
X251538Y393469D01*
X251448Y393486D01*
X251439Y393484D01*
X251431Y393486D01*
X251343Y393463D01*
X251253Y393443D01*
X251247Y393438D01*
X251238Y393436D01*
X251103Y393340D01*
X250982Y393219D01*
X247944Y393219D01*
X247868Y393204D01*
X247791Y393195D01*
X247772Y393184D01*
X247749Y393180D01*
X247685Y393136D01*
X247618Y393098D01*
X247602Y393078D01*
X247585Y393067D01*
X247561Y393029D01*
X247512Y392970D01*
X247489Y392930D01*
X247016Y392457D01*
X246437Y392122D01*
X245790Y391949D01*
X244705Y391949D01*
X244705Y400490D01*
X244703Y400498D01*
X244705Y400506D01*
X244684Y400595D01*
X244666Y400685D01*
X244661Y400692D01*
X244659Y400700D01*
X244605Y400773D01*
X244553Y400849D01*
X244546Y400853D01*
X244541Y400860D01*
X244463Y400906D01*
X244385Y400956D01*
X244377Y400957D01*
X244370Y400961D01*
X244206Y400989D01*
X243706Y400989D01*
X243698Y400987D01*
X243689Y400989D01*
X243601Y400968D01*
X243511Y400949D01*
X243504Y400945D01*
X243496Y400943D01*
X243423Y400889D01*
X243347Y400837D01*
X243342Y400830D01*
X243336Y400825D01*
X243289Y400747D01*
X243240Y400669D01*
X243239Y400661D01*
X243234Y400654D01*
X243207Y400490D01*
X243207Y391949D01*
X242121Y391949D01*
X241475Y392122D01*
X240896Y392457D01*
X240423Y392930D01*
X240400Y392970D01*
X240348Y393028D01*
X240303Y393090D01*
X240283Y393102D01*
X240268Y393119D01*
X240198Y393152D01*
X240131Y393192D01*
X240107Y393196D01*
X240089Y393204D01*
X240044Y393206D01*
X239967Y393219D01*
X236929Y393219D01*
X236809Y393340D01*
X236802Y393345D01*
X236797Y393351D01*
X236719Y393399D01*
X236643Y393450D01*
X236635Y393451D01*
X236628Y393456D01*
X236538Y393469D01*
X236448Y393486D01*
X236439Y393484D01*
X236431Y393486D01*
X236343Y393463D01*
X236253Y393443D01*
X236247Y393438D01*
X236238Y393436D01*
X236103Y393340D01*
X235982Y393219D01*
X231929Y393219D01*
X231809Y393340D01*
X231802Y393345D01*
X231797Y393351D01*
X231719Y393399D01*
X231643Y393450D01*
X231635Y393451D01*
X231628Y393456D01*
X231538Y393469D01*
X231448Y393486D01*
X231439Y393484D01*
X231431Y393486D01*
X231343Y393463D01*
X231253Y393443D01*
X231247Y393438D01*
X231238Y393436D01*
X231103Y393340D01*
X230982Y393219D01*
X226929Y393219D01*
X226809Y393340D01*
X226802Y393345D01*
X226797Y393351D01*
X226719Y393399D01*
X226643Y393450D01*
X226635Y393451D01*
X226628Y393456D01*
X226538Y393469D01*
X226448Y393486D01*
X226439Y393484D01*
X226431Y393486D01*
X226343Y393463D01*
X226253Y393443D01*
X226247Y393438D01*
X226238Y393436D01*
X226103Y393340D01*
X225982Y393219D01*
X221929Y393219D01*
X221809Y393340D01*
X221802Y393345D01*
X221797Y393351D01*
X221719Y393399D01*
X221643Y393450D01*
X221635Y393451D01*
X221628Y393456D01*
X221538Y393469D01*
X221448Y393486D01*
X221439Y393484D01*
X221431Y393486D01*
X221343Y393463D01*
X221253Y393443D01*
X221247Y393438D01*
X221238Y393436D01*
X221103Y393340D01*
X220982Y393219D01*
X216929Y393219D01*
X216809Y393340D01*
X216802Y393345D01*
X216797Y393351D01*
X216719Y393399D01*
X216643Y393450D01*
X216635Y393451D01*
X216628Y393456D01*
X216538Y393469D01*
X216448Y393486D01*
X216439Y393484D01*
X216431Y393486D01*
X216343Y393463D01*
X216253Y393443D01*
X216247Y393438D01*
X216238Y393436D01*
X216103Y393340D01*
X215982Y393219D01*
X211929Y393219D01*
X211809Y393340D01*
X211802Y393345D01*
X211797Y393351D01*
X211719Y393399D01*
X211643Y393450D01*
X211635Y393451D01*
X211628Y393456D01*
X211538Y393469D01*
X211448Y393486D01*
X211439Y393484D01*
X211431Y393486D01*
X211343Y393463D01*
X211253Y393443D01*
X211247Y393438D01*
X211238Y393436D01*
X211103Y393340D01*
X210982Y393219D01*
X206929Y393219D01*
X206809Y393340D01*
X206802Y393345D01*
X206797Y393351D01*
X206719Y393399D01*
X206643Y393450D01*
X206635Y393451D01*
X206628Y393456D01*
X206538Y393469D01*
X206448Y393486D01*
X206439Y393484D01*
X206431Y393486D01*
X206343Y393463D01*
X206253Y393443D01*
X206247Y393438D01*
X206238Y393436D01*
X206103Y393340D01*
X205982Y393219D01*
X205201Y393219D01*
X205188Y393217D01*
X205176Y393219D01*
X205092Y393197D01*
X205006Y393180D01*
X204996Y393173D01*
X204983Y393169D01*
X204848Y393073D01*
X202200Y390425D01*
X185105Y390425D01*
X185093Y390423D01*
X185080Y390425D01*
X184996Y390403D01*
X184910Y390386D01*
X184900Y390379D01*
X184888Y390375D01*
X184752Y390279D01*
X172856Y378383D01*
X98865Y378383D01*
X98852Y378381D01*
X98840Y378383D01*
X98756Y378361D01*
X98670Y378344D01*
X98660Y378337D01*
X98647Y378333D01*
X98512Y378237D01*
X93079Y372804D01*
X93072Y372794D01*
X93062Y372786D01*
X93017Y372711D01*
X92969Y372638D01*
X92967Y372626D01*
X92960Y372615D01*
X92933Y372451D01*
X92933Y364858D01*
X85176Y357101D01*
X85173Y357097D01*
X85170Y357095D01*
X85119Y357015D01*
X85066Y356935D01*
X85065Y356931D01*
X85063Y356928D01*
X85047Y356834D01*
X85030Y356740D01*
X85030Y356736D01*
X85030Y356731D01*
X85052Y356640D01*
X85072Y356546D01*
X85075Y356542D01*
X85076Y356538D01*
X85132Y356462D01*
X85188Y356383D01*
X85191Y356381D01*
X85194Y356378D01*
X85275Y356329D01*
X85357Y356279D01*
X85361Y356279D01*
X85365Y356276D01*
X85529Y356249D01*
X162856Y356249D01*
X168047Y351058D01*
X168047Y238529D01*
X168047Y238527D01*
X168048Y238524D01*
X168050Y238516D01*
X168048Y238504D01*
X168069Y238419D01*
X168087Y238334D01*
X168094Y238323D01*
X168097Y238311D01*
X168193Y238176D01*
X170567Y235802D01*
X170567Y232030D01*
X167900Y229363D01*
X164129Y229363D01*
X161462Y232030D01*
X161462Y235802D01*
X163835Y238176D01*
X163842Y238186D01*
X163853Y238194D01*
X163897Y238268D01*
X163945Y238341D01*
X163948Y238354D01*
X163954Y238365D01*
X163982Y238529D01*
X163982Y349167D01*
X163979Y349180D01*
X163981Y349192D01*
X163960Y349276D01*
X163942Y349362D01*
X163935Y349372D01*
X163932Y349385D01*
X163835Y349520D01*
X161319Y352037D01*
X161308Y352044D01*
X161301Y352054D01*
X161226Y352099D01*
X161153Y352147D01*
X161140Y352149D01*
X161130Y352156D01*
X160966Y352183D01*
X148127Y352183D01*
X148123Y352182D01*
X148119Y352183D01*
X148026Y352163D01*
X147932Y352144D01*
X147929Y352141D01*
X147925Y352140D01*
X147847Y352085D01*
X147768Y352031D01*
X147766Y352028D01*
X147763Y352025D01*
X147713Y351944D01*
X147661Y351864D01*
X147661Y351859D01*
X147658Y351856D01*
X147644Y351762D01*
X147628Y351667D01*
X147629Y351663D01*
X147629Y351659D01*
X147652Y351567D01*
X147674Y351474D01*
X147677Y351471D01*
X147678Y351467D01*
X147774Y351331D01*
X150547Y348558D01*
X150547Y236529D01*
X150550Y236516D01*
X150548Y236504D01*
X150569Y236420D01*
X150587Y236334D01*
X150594Y236323D01*
X150597Y236311D01*
X150693Y236176D01*
X153067Y233802D01*
X153067Y230030D01*
X150338Y227301D01*
X150336Y227297D01*
X150332Y227295D01*
X150281Y227215D01*
X150228Y227135D01*
X150227Y227131D01*
X150225Y227128D01*
X150209Y227034D01*
X150192Y226940D01*
X150193Y226936D01*
X150192Y226931D01*
X150214Y226840D01*
X150235Y226746D01*
X150237Y226742D01*
X150238Y226738D01*
X150294Y226662D01*
X150350Y226583D01*
X150353Y226581D01*
X150356Y226578D01*
X150438Y226529D01*
X150519Y226479D01*
X150523Y226479D01*
X150527Y226476D01*
X150691Y226449D01*
X201856Y226449D01*
X215547Y212758D01*
X215547Y212260D01*
X215549Y212252D01*
X215547Y212243D01*
X215569Y212155D01*
X215587Y212065D01*
X215592Y212058D01*
X215593Y212050D01*
X215647Y211977D01*
X215699Y211901D01*
X215706Y211897D01*
X215711Y211890D01*
X215790Y211843D01*
X215867Y211794D01*
X215875Y211793D01*
X215882Y211788D01*
X215969Y211774D01*
X216103Y211640D01*
X216110Y211636D01*
X216115Y211629D01*
X216192Y211581D01*
X216269Y211530D01*
X216277Y211529D01*
X216284Y211524D01*
X216374Y211511D01*
X216464Y211494D01*
X216472Y211496D01*
G37*
G36*
X39698Y199969D02*
X39698Y199969D01*
X39702Y199968D01*
X39794Y199990D01*
X39888Y200011D01*
X39892Y200013D01*
X39896Y200014D01*
X39972Y200070D01*
X40050Y200126D01*
X40053Y200130D01*
X40056Y200132D01*
X40104Y200214D01*
X40155Y200295D01*
X40155Y200299D01*
X40157Y200303D01*
X40185Y200467D01*
X40185Y211016D01*
X40929Y211761D01*
X41026Y211761D01*
X41030Y211762D01*
X41034Y211761D01*
X41127Y211781D01*
X41221Y211800D01*
X41224Y211803D01*
X41228Y211804D01*
X41306Y211859D01*
X41385Y211913D01*
X41387Y211916D01*
X41390Y211919D01*
X41440Y212000D01*
X41492Y212080D01*
X41492Y212085D01*
X41495Y212088D01*
X41509Y212182D01*
X41525Y212277D01*
X41524Y212281D01*
X41524Y212285D01*
X41501Y212377D01*
X41479Y212470D01*
X41476Y212473D01*
X41475Y212477D01*
X41379Y212613D01*
X38962Y215030D01*
X38962Y218802D01*
X41691Y221531D01*
X41693Y221535D01*
X41697Y221537D01*
X41748Y221617D01*
X41801Y221697D01*
X41801Y221701D01*
X41804Y221704D01*
X41819Y221798D01*
X41837Y221892D01*
X41836Y221896D01*
X41837Y221901D01*
X41815Y221992D01*
X41794Y222086D01*
X41792Y222090D01*
X41791Y222094D01*
X41735Y222170D01*
X41679Y222249D01*
X41675Y222251D01*
X41673Y222254D01*
X41591Y222303D01*
X41510Y222353D01*
X41506Y222353D01*
X41502Y222356D01*
X41338Y222383D01*
X37026Y222383D01*
X37014Y222381D01*
X37001Y222383D01*
X36917Y222361D01*
X36831Y222344D01*
X36821Y222337D01*
X36809Y222333D01*
X36673Y222237D01*
X35170Y220734D01*
X35162Y220722D01*
X35151Y220714D01*
X35107Y220639D01*
X35060Y220568D01*
X35057Y220554D01*
X35050Y220542D01*
X35023Y220378D01*
X35025Y220048D01*
X35027Y220037D01*
X35025Y220026D01*
X35047Y219941D01*
X35065Y219854D01*
X35072Y219844D01*
X35075Y219833D01*
X35171Y219698D01*
X37567Y217302D01*
X37567Y213530D01*
X34900Y210863D01*
X31129Y210863D01*
X28462Y213530D01*
X28462Y217302D01*
X30813Y219653D01*
X30821Y219665D01*
X30832Y219673D01*
X30876Y219747D01*
X30923Y219819D01*
X30926Y219833D01*
X30933Y219845D01*
X30960Y220009D01*
X30958Y220373D01*
X30955Y220385D01*
X30957Y220397D01*
X30953Y220414D01*
X30953Y221415D01*
X30953Y221416D01*
X30953Y221418D01*
X30949Y222262D01*
X31543Y222856D01*
X31543Y222857D01*
X31545Y222858D01*
X32261Y223581D01*
X32285Y223598D01*
X33798Y225112D01*
X35135Y226449D01*
X40338Y226449D01*
X40342Y226450D01*
X40346Y226449D01*
X40439Y226469D01*
X40533Y226488D01*
X40536Y226491D01*
X40540Y226492D01*
X40618Y226547D01*
X40697Y226601D01*
X40699Y226604D01*
X40702Y226607D01*
X40752Y226688D01*
X40804Y226768D01*
X40804Y226773D01*
X40807Y226776D01*
X40821Y226870D01*
X40837Y226965D01*
X40836Y226969D01*
X40836Y226973D01*
X40813Y227065D01*
X40791Y227158D01*
X40788Y227161D01*
X40787Y227165D01*
X40691Y227301D01*
X38462Y229530D01*
X38462Y233302D01*
X40767Y235607D01*
X40772Y235614D01*
X40778Y235619D01*
X40826Y235696D01*
X40877Y235773D01*
X40878Y235781D01*
X40883Y235788D01*
X40896Y235878D01*
X40913Y235968D01*
X40911Y235977D01*
X40912Y235985D01*
X40890Y236073D01*
X40870Y236162D01*
X40865Y236169D01*
X40863Y236177D01*
X40767Y236313D01*
X38462Y238618D01*
X38462Y242390D01*
X41129Y245057D01*
X44900Y245057D01*
X47274Y242683D01*
X47284Y242676D01*
X47291Y242666D01*
X47292Y242666D01*
X47367Y242621D01*
X47440Y242573D01*
X47452Y242571D01*
X47463Y242564D01*
X47627Y242537D01*
X61490Y242537D01*
X61502Y242539D01*
X61515Y242537D01*
X61599Y242559D01*
X61685Y242576D01*
X61695Y242583D01*
X61707Y242587D01*
X61843Y242683D01*
X64129Y244969D01*
X67900Y244969D01*
X70567Y242302D01*
X70567Y238530D01*
X67900Y235863D01*
X64129Y235863D01*
X61667Y238325D01*
X61656Y238332D01*
X61649Y238342D01*
X61574Y238387D01*
X61501Y238435D01*
X61489Y238437D01*
X61478Y238444D01*
X61314Y238471D01*
X47627Y238471D01*
X47615Y238469D01*
X47602Y238471D01*
X47518Y238449D01*
X47432Y238432D01*
X47422Y238425D01*
X47410Y238421D01*
X47274Y238325D01*
X45262Y236313D01*
X45257Y236306D01*
X45250Y236301D01*
X45203Y236224D01*
X45152Y236147D01*
X45151Y236139D01*
X45146Y236132D01*
X45133Y236042D01*
X45116Y235952D01*
X45118Y235944D01*
X45116Y235935D01*
X45139Y235847D01*
X45159Y235758D01*
X45164Y235751D01*
X45166Y235743D01*
X45262Y235607D01*
X47274Y233595D01*
X47285Y233588D01*
X47292Y233578D01*
X47367Y233533D01*
X47440Y233485D01*
X47452Y233483D01*
X47463Y233476D01*
X47627Y233449D01*
X79856Y233449D01*
X86710Y226595D01*
X86721Y226588D01*
X86728Y226578D01*
X86803Y226533D01*
X86876Y226485D01*
X86888Y226483D01*
X86899Y226476D01*
X87063Y226449D01*
X146338Y226449D01*
X146342Y226450D01*
X146346Y226449D01*
X146439Y226469D01*
X146533Y226488D01*
X146536Y226491D01*
X146540Y226492D01*
X146618Y226547D01*
X146697Y226601D01*
X146699Y226604D01*
X146702Y226607D01*
X146752Y226688D01*
X146804Y226768D01*
X146804Y226773D01*
X146807Y226776D01*
X146821Y226870D01*
X146837Y226965D01*
X146836Y226969D01*
X146836Y226973D01*
X146813Y227065D01*
X146791Y227158D01*
X146788Y227161D01*
X146787Y227165D01*
X146691Y227301D01*
X143962Y230030D01*
X143962Y233802D01*
X146335Y236176D01*
X146342Y236186D01*
X146353Y236194D01*
X146397Y236268D01*
X146445Y236341D01*
X146448Y236354D01*
X146454Y236365D01*
X146482Y236529D01*
X146482Y346667D01*
X146479Y346680D01*
X146481Y346692D01*
X146460Y346776D01*
X146442Y346862D01*
X146435Y346872D01*
X146432Y346885D01*
X146335Y347020D01*
X144319Y349037D01*
X144308Y349044D01*
X144301Y349054D01*
X144226Y349099D01*
X144153Y349147D01*
X144140Y349149D01*
X144130Y349156D01*
X143966Y349183D01*
X58372Y349183D01*
X26482Y381074D01*
X26482Y395258D01*
X31315Y400092D01*
X31322Y400102D01*
X31333Y400110D01*
X31377Y400185D01*
X31425Y400258D01*
X31428Y400270D01*
X31434Y400281D01*
X31462Y400445D01*
X31462Y403802D01*
X33797Y406137D01*
X33799Y406141D01*
X33803Y406143D01*
X33854Y406223D01*
X33907Y406303D01*
X33907Y406307D01*
X33910Y406310D01*
X33926Y406404D01*
X33943Y406498D01*
X33942Y406502D01*
X33943Y406507D01*
X33921Y406598D01*
X33900Y406692D01*
X33898Y406696D01*
X33897Y406700D01*
X33841Y406776D01*
X33785Y406855D01*
X33781Y406857D01*
X33779Y406860D01*
X33697Y406909D01*
X33616Y406959D01*
X33612Y406959D01*
X33608Y406962D01*
X33444Y406989D01*
X21956Y406989D01*
X21948Y406988D01*
X21939Y406989D01*
X21851Y406968D01*
X21761Y406950D01*
X21754Y406945D01*
X21746Y406943D01*
X21673Y406889D01*
X21597Y406837D01*
X21593Y406830D01*
X21586Y406825D01*
X21539Y406747D01*
X21490Y406670D01*
X21489Y406661D01*
X21484Y406654D01*
X21457Y406490D01*
X21457Y218197D01*
X21459Y218185D01*
X21457Y218172D01*
X21479Y218088D01*
X21496Y218002D01*
X21503Y217992D01*
X21506Y217980D01*
X21603Y217844D01*
X39333Y200114D01*
X39336Y200112D01*
X39339Y200108D01*
X39419Y200057D01*
X39499Y200004D01*
X39503Y200004D01*
X39506Y200001D01*
X39600Y199985D01*
X39694Y199968D01*
X39698Y199969D01*
G37*
G36*
X231472Y211496D02*
X231472Y211496D01*
X231481Y211495D01*
X231569Y211517D01*
X231658Y211537D01*
X231665Y211542D01*
X231673Y211544D01*
X231809Y211640D01*
X231929Y211761D01*
X235982Y211761D01*
X235991Y211762D01*
X235999Y211761D01*
X236087Y211782D01*
X236177Y211800D01*
X236184Y211805D01*
X236192Y211807D01*
X236266Y211861D01*
X236341Y211913D01*
X236346Y211920D01*
X236353Y211925D01*
X236399Y212003D01*
X236448Y212080D01*
X236450Y212089D01*
X236454Y212096D01*
X236482Y212260D01*
X236482Y212758D01*
X250172Y226449D01*
X325228Y226449D01*
X325237Y226450D01*
X325245Y226449D01*
X325333Y226470D01*
X325423Y226488D01*
X325430Y226493D01*
X325438Y226495D01*
X325512Y226549D01*
X325587Y226601D01*
X325592Y226608D01*
X325599Y226613D01*
X325645Y226691D01*
X325694Y226768D01*
X325696Y226777D01*
X325700Y226784D01*
X325728Y226948D01*
X325728Y448118D01*
X325725Y448130D01*
X325727Y448143D01*
X325706Y448227D01*
X325688Y448313D01*
X325681Y448323D01*
X325678Y448335D01*
X325581Y448471D01*
X321213Y452839D01*
X321203Y452846D01*
X321195Y452856D01*
X321121Y452901D01*
X321048Y452949D01*
X321035Y452951D01*
X321024Y452958D01*
X320860Y452985D01*
X315373Y452985D01*
X315361Y452983D01*
X315348Y452985D01*
X315264Y452963D01*
X315178Y452946D01*
X315168Y452939D01*
X315156Y452935D01*
X315020Y452839D01*
X312900Y450719D01*
X309129Y450719D01*
X307009Y452839D01*
X306998Y452846D01*
X306991Y452856D01*
X306916Y452901D01*
X306843Y452949D01*
X306831Y452951D01*
X306820Y452958D01*
X306656Y452985D01*
X267874Y452985D01*
X267861Y452983D01*
X267848Y452985D01*
X267764Y452963D01*
X267679Y452946D01*
X267668Y452938D01*
X267655Y452935D01*
X267520Y452838D01*
X251834Y437048D01*
X251828Y437039D01*
X251818Y437032D01*
X251812Y437021D01*
X251020Y436229D01*
X251020Y436228D01*
X251019Y436227D01*
X250226Y435429D01*
X250207Y435416D01*
X245823Y431032D01*
X245817Y431023D01*
X245808Y431016D01*
X245795Y430994D01*
X245012Y430221D01*
X245011Y430219D01*
X245010Y430218D01*
X244339Y429547D01*
X243390Y429553D01*
X243388Y429553D01*
X243386Y429553D01*
X242280Y429553D01*
X242239Y429560D01*
X233803Y429612D01*
X233794Y429610D01*
X233784Y429612D01*
X233697Y429591D01*
X233608Y429574D01*
X233600Y429568D01*
X233590Y429566D01*
X233519Y429513D01*
X233444Y429462D01*
X233438Y429454D01*
X233430Y429448D01*
X233385Y429371D01*
X233336Y429295D01*
X233334Y429285D01*
X233329Y429277D01*
X233301Y429113D01*
X233301Y424186D01*
X233303Y424178D01*
X233301Y424169D01*
X233322Y424081D01*
X233341Y423991D01*
X233346Y423984D01*
X233347Y423976D01*
X233401Y423903D01*
X233453Y423827D01*
X233460Y423823D01*
X233465Y423816D01*
X233544Y423769D01*
X233621Y423720D01*
X233629Y423719D01*
X233636Y423714D01*
X233800Y423687D01*
X238999Y423687D01*
X239744Y422942D01*
X239744Y413727D01*
X239746Y413714D01*
X239744Y413702D01*
X239766Y413618D01*
X239783Y413532D01*
X239790Y413522D01*
X239793Y413509D01*
X239890Y413374D01*
X241080Y412184D01*
X241083Y412181D01*
X241086Y412178D01*
X241165Y412127D01*
X241246Y412074D01*
X241250Y412073D01*
X241253Y412071D01*
X241347Y412055D01*
X241441Y412038D01*
X241445Y412038D01*
X241449Y412038D01*
X241541Y412060D01*
X241635Y412080D01*
X241639Y412083D01*
X241643Y412084D01*
X241718Y412139D01*
X241797Y412196D01*
X241800Y412199D01*
X241803Y412202D01*
X241851Y412283D01*
X241902Y412365D01*
X241902Y412369D01*
X241904Y412373D01*
X241932Y412537D01*
X241932Y416417D01*
X248974Y416417D01*
X248974Y409875D01*
X247369Y409875D01*
X247365Y409874D01*
X247361Y409875D01*
X247268Y409855D01*
X247174Y409836D01*
X247171Y409833D01*
X247167Y409832D01*
X247089Y409777D01*
X247010Y409723D01*
X247008Y409720D01*
X247005Y409717D01*
X246954Y409636D01*
X246903Y409556D01*
X246902Y409551D01*
X246900Y409548D01*
X246886Y409454D01*
X246870Y409359D01*
X246871Y409355D01*
X246870Y409351D01*
X246894Y409258D01*
X246916Y409166D01*
X246919Y409163D01*
X246920Y409159D01*
X247016Y409023D01*
X247489Y408550D01*
X247512Y408510D01*
X247563Y408452D01*
X247609Y408390D01*
X247629Y408378D01*
X247644Y408361D01*
X247714Y408328D01*
X247780Y408288D01*
X247805Y408284D01*
X247823Y408276D01*
X247868Y408274D01*
X247944Y408261D01*
X250982Y408261D01*
X251103Y408140D01*
X251110Y408135D01*
X251115Y408129D01*
X251192Y408081D01*
X251269Y408030D01*
X251277Y408029D01*
X251284Y408024D01*
X251374Y408011D01*
X251464Y407994D01*
X251472Y407996D01*
X251481Y407995D01*
X251569Y408017D01*
X251658Y408037D01*
X251665Y408042D01*
X251673Y408044D01*
X251809Y408140D01*
X251929Y408261D01*
X255982Y408261D01*
X256103Y408140D01*
X256110Y408135D01*
X256115Y408129D01*
X256192Y408081D01*
X256269Y408030D01*
X256277Y408029D01*
X256284Y408024D01*
X256374Y408011D01*
X256464Y407994D01*
X256472Y407996D01*
X256481Y407995D01*
X256569Y408017D01*
X256658Y408037D01*
X256665Y408042D01*
X256673Y408044D01*
X256809Y408140D01*
X256929Y408261D01*
X260982Y408261D01*
X261103Y408140D01*
X261110Y408135D01*
X261115Y408129D01*
X261192Y408081D01*
X261269Y408030D01*
X261277Y408029D01*
X261284Y408024D01*
X261374Y408011D01*
X261464Y407994D01*
X261472Y407996D01*
X261481Y407995D01*
X261569Y408017D01*
X261658Y408037D01*
X261665Y408042D01*
X261673Y408044D01*
X261809Y408140D01*
X261929Y408261D01*
X265982Y408261D01*
X266103Y408140D01*
X266110Y408135D01*
X266115Y408129D01*
X266192Y408081D01*
X266269Y408030D01*
X266277Y408029D01*
X266284Y408024D01*
X266374Y408011D01*
X266464Y407994D01*
X266472Y407996D01*
X266481Y407995D01*
X266569Y408017D01*
X266658Y408037D01*
X266665Y408042D01*
X266673Y408044D01*
X266809Y408140D01*
X266929Y408261D01*
X270982Y408261D01*
X271103Y408140D01*
X271110Y408135D01*
X271115Y408129D01*
X271192Y408081D01*
X271269Y408030D01*
X271277Y408029D01*
X271284Y408024D01*
X271374Y408011D01*
X271464Y407994D01*
X271472Y407996D01*
X271481Y407995D01*
X271569Y408017D01*
X271658Y408037D01*
X271665Y408042D01*
X271673Y408044D01*
X271809Y408140D01*
X271929Y408261D01*
X275982Y408261D01*
X276103Y408140D01*
X276110Y408135D01*
X276115Y408129D01*
X276192Y408081D01*
X276269Y408030D01*
X276277Y408029D01*
X276284Y408024D01*
X276374Y408011D01*
X276464Y407994D01*
X276472Y407996D01*
X276481Y407995D01*
X276569Y408017D01*
X276658Y408037D01*
X276665Y408042D01*
X276673Y408044D01*
X276809Y408140D01*
X276929Y408261D01*
X280982Y408261D01*
X281103Y408140D01*
X281110Y408135D01*
X281115Y408129D01*
X281192Y408081D01*
X281269Y408030D01*
X281277Y408029D01*
X281284Y408024D01*
X281374Y408011D01*
X281464Y407994D01*
X281472Y407996D01*
X281481Y407995D01*
X281569Y408017D01*
X281658Y408037D01*
X281665Y408042D01*
X281673Y408044D01*
X281809Y408140D01*
X281929Y408261D01*
X285982Y408261D01*
X286103Y408140D01*
X286110Y408135D01*
X286115Y408129D01*
X286192Y408081D01*
X286269Y408030D01*
X286277Y408029D01*
X286284Y408024D01*
X286374Y408011D01*
X286464Y407994D01*
X286472Y407996D01*
X286481Y407995D01*
X286569Y408017D01*
X286658Y408037D01*
X286665Y408042D01*
X286673Y408044D01*
X286809Y408140D01*
X286929Y408261D01*
X290982Y408261D01*
X291103Y408140D01*
X291110Y408135D01*
X291115Y408129D01*
X291192Y408081D01*
X291269Y408030D01*
X291277Y408029D01*
X291284Y408024D01*
X291374Y408011D01*
X291464Y407994D01*
X291472Y407996D01*
X291481Y407995D01*
X291569Y408017D01*
X291658Y408037D01*
X291665Y408042D01*
X291673Y408044D01*
X291809Y408140D01*
X291929Y408261D01*
X295982Y408261D01*
X296103Y408140D01*
X296110Y408135D01*
X296115Y408129D01*
X296192Y408081D01*
X296269Y408030D01*
X296277Y408029D01*
X296284Y408024D01*
X296374Y408011D01*
X296464Y407994D01*
X296472Y407996D01*
X296481Y407995D01*
X296569Y408017D01*
X296658Y408037D01*
X296665Y408042D01*
X296673Y408044D01*
X296809Y408140D01*
X296929Y408261D01*
X300982Y408261D01*
X300991Y408262D01*
X300999Y408261D01*
X301087Y408282D01*
X301177Y408300D01*
X301184Y408305D01*
X301192Y408307D01*
X301266Y408361D01*
X301341Y408413D01*
X301346Y408420D01*
X301353Y408425D01*
X301399Y408503D01*
X301448Y408580D01*
X301450Y408589D01*
X301454Y408596D01*
X301482Y408760D01*
X301482Y409839D01*
X301470Y409898D01*
X301467Y409958D01*
X301450Y409994D01*
X301442Y410033D01*
X301408Y410083D01*
X301382Y410138D01*
X301349Y410170D01*
X301330Y410197D01*
X301299Y410217D01*
X301262Y410252D01*
X298176Y412334D01*
X298117Y412358D01*
X298061Y412391D01*
X298021Y412398D01*
X297993Y412410D01*
X297954Y412410D01*
X297897Y412419D01*
X279803Y412419D01*
X274497Y417725D01*
X274497Y419667D01*
X274495Y419680D01*
X274496Y419692D01*
X274475Y419776D01*
X274457Y419862D01*
X274450Y419872D01*
X274447Y419885D01*
X274351Y420020D01*
X272432Y421939D01*
X272432Y425710D01*
X275099Y428377D01*
X278871Y428377D01*
X281538Y425710D01*
X281538Y421939D01*
X279138Y419539D01*
X279134Y419532D01*
X279127Y419527D01*
X279079Y419450D01*
X279028Y419373D01*
X279027Y419365D01*
X279023Y419358D01*
X279009Y419268D01*
X278992Y419178D01*
X278994Y419169D01*
X278993Y419161D01*
X279015Y419073D01*
X279035Y418983D01*
X279040Y418977D01*
X279042Y418968D01*
X279138Y418833D01*
X281340Y416631D01*
X281351Y416624D01*
X281358Y416614D01*
X281433Y416569D01*
X281506Y416521D01*
X281519Y416519D01*
X281529Y416512D01*
X281693Y416485D01*
X298428Y416485D01*
X298466Y416492D01*
X298523Y416494D01*
X299110Y416608D01*
X299166Y416570D01*
X299226Y416545D01*
X299281Y416512D01*
X299322Y416505D01*
X299350Y416494D01*
X299389Y416494D01*
X299445Y416485D01*
X299513Y416485D01*
X299936Y416062D01*
X299969Y416040D01*
X300010Y416001D01*
X304009Y413303D01*
X304069Y413278D01*
X304125Y413245D01*
X304165Y413238D01*
X304193Y413227D01*
X304232Y413227D01*
X304289Y413218D01*
X304356Y413218D01*
X304779Y412795D01*
X304812Y412773D01*
X304853Y412734D01*
X305349Y412399D01*
X305362Y412333D01*
X305387Y412273D01*
X305403Y412210D01*
X305426Y412177D01*
X305438Y412149D01*
X305466Y412121D01*
X305499Y412075D01*
X305547Y412027D01*
X305547Y411429D01*
X305555Y411390D01*
X305556Y411333D01*
X305670Y410746D01*
X305633Y410690D01*
X305608Y410630D01*
X305575Y410575D01*
X305568Y410534D01*
X305556Y410506D01*
X305557Y410467D01*
X305547Y410411D01*
X305547Y291074D01*
X227086Y212613D01*
X227084Y212609D01*
X227080Y212607D01*
X227029Y212527D01*
X226976Y212447D01*
X226976Y212443D01*
X226973Y212440D01*
X226958Y212346D01*
X226940Y212252D01*
X226941Y212248D01*
X226940Y212243D01*
X226962Y212152D01*
X226983Y212058D01*
X226985Y212054D01*
X226986Y212050D01*
X227042Y211974D01*
X227098Y211896D01*
X227102Y211893D01*
X227104Y211890D01*
X227186Y211841D01*
X227267Y211791D01*
X227272Y211791D01*
X227275Y211788D01*
X227439Y211761D01*
X230982Y211761D01*
X231103Y211640D01*
X231110Y211635D01*
X231115Y211629D01*
X231192Y211581D01*
X231269Y211530D01*
X231277Y211529D01*
X231284Y211524D01*
X231374Y211511D01*
X231464Y211494D01*
X231472Y211496D01*
G37*
G36*
X267044Y24475D02*
X267044Y24475D01*
X267056Y24473D01*
X267141Y24495D01*
X267226Y24512D01*
X267237Y24520D01*
X267249Y24523D01*
X267385Y24619D01*
X271224Y28459D01*
X280433Y28459D01*
X280436Y28459D01*
X280439Y28459D01*
X280533Y28479D01*
X280628Y28498D01*
X280630Y28500D01*
X280633Y28501D01*
X280712Y28556D01*
X280791Y28611D01*
X280793Y28614D01*
X280796Y28615D01*
X280847Y28697D01*
X280899Y28778D01*
X280899Y28782D01*
X280901Y28784D01*
X280916Y28879D01*
X280932Y28975D01*
X280931Y28978D01*
X280931Y28981D01*
X280908Y29073D01*
X280886Y29168D01*
X280884Y29171D01*
X280883Y29174D01*
X280787Y29310D01*
X280321Y29779D01*
X280320Y29780D01*
X280319Y29781D01*
X272822Y37238D01*
X272812Y37245D01*
X272805Y37254D01*
X272729Y37299D01*
X272656Y37347D01*
X272644Y37349D01*
X272634Y37356D01*
X272470Y37383D01*
X232871Y37383D01*
X232858Y37381D01*
X232846Y37383D01*
X232762Y37361D01*
X232676Y37344D01*
X232666Y37337D01*
X232653Y37333D01*
X232518Y37237D01*
X230733Y35452D01*
X228061Y34345D01*
X225168Y34345D01*
X222496Y35452D01*
X220451Y37497D01*
X219694Y39324D01*
X219688Y39333D01*
X219686Y39343D01*
X219633Y39415D01*
X219583Y39489D01*
X219574Y39495D01*
X219568Y39503D01*
X219491Y39549D01*
X219416Y39598D01*
X219406Y39600D01*
X219397Y39605D01*
X219233Y39633D01*
X218985Y39633D01*
X216301Y40744D01*
X214246Y42799D01*
X213135Y45483D01*
X213135Y48388D01*
X214246Y51072D01*
X216301Y53126D01*
X218985Y54238D01*
X221890Y54238D01*
X224285Y53246D01*
X224290Y53245D01*
X224293Y53243D01*
X224387Y53226D01*
X224481Y53208D01*
X224485Y53209D01*
X224489Y53208D01*
X224582Y53229D01*
X224675Y53249D01*
X224679Y53251D01*
X224683Y53252D01*
X224760Y53308D01*
X224838Y53363D01*
X224840Y53367D01*
X224844Y53369D01*
X224893Y53450D01*
X224944Y53531D01*
X224944Y53536D01*
X224947Y53539D01*
X224960Y53634D01*
X224975Y53728D01*
X224974Y53732D01*
X224975Y53736D01*
X224938Y53898D01*
X224045Y56052D01*
X224045Y58958D01*
X225157Y61642D01*
X227211Y63696D01*
X229896Y64808D01*
X232801Y64808D01*
X235485Y63696D01*
X237539Y61642D01*
X238138Y60195D01*
X238144Y60186D01*
X238147Y60176D01*
X238199Y60104D01*
X238250Y60030D01*
X238258Y60024D01*
X238265Y60016D01*
X238341Y59971D01*
X238416Y59922D01*
X238427Y59920D01*
X238436Y59914D01*
X238600Y59887D01*
X239161Y59887D01*
X241833Y58780D01*
X243878Y56735D01*
X244985Y54062D01*
X244985Y51170D01*
X244164Y49188D01*
X244146Y49094D01*
X244126Y48993D01*
X244126Y48992D01*
X244148Y48891D01*
X244167Y48799D01*
X244167Y48798D01*
X244170Y48794D01*
X244257Y48659D01*
X245473Y47333D01*
X245481Y47327D01*
X245489Y47316D01*
X248202Y44621D01*
X248212Y44615D01*
X248218Y44606D01*
X248294Y44561D01*
X248368Y44512D01*
X248379Y44510D01*
X248389Y44504D01*
X248553Y44476D01*
X261826Y44452D01*
X261827Y44452D01*
X261828Y44452D01*
X267906Y44462D01*
X267918Y44464D01*
X267930Y44463D01*
X267944Y44466D01*
X268949Y44464D01*
X268950Y44464D01*
X268951Y44464D01*
X269974Y44466D01*
X269999Y44461D01*
X275009Y44449D01*
X275011Y44449D01*
X275013Y44449D01*
X275855Y44453D01*
X276447Y43858D01*
X276448Y43857D01*
X276450Y43856D01*
X282519Y37847D01*
X282521Y37845D01*
X282523Y37843D01*
X282604Y37791D01*
X282685Y37738D01*
X282688Y37737D01*
X282691Y37736D01*
X282786Y37720D01*
X282881Y37703D01*
X282884Y37703D01*
X282887Y37703D01*
X282980Y37725D01*
X283075Y37746D01*
X283077Y37748D01*
X283080Y37749D01*
X283157Y37805D01*
X283236Y37862D01*
X283238Y37865D01*
X283240Y37867D01*
X283289Y37948D01*
X283340Y38032D01*
X283340Y38035D01*
X283342Y38038D01*
X283369Y38202D01*
X283369Y45237D01*
X291907Y45237D01*
X291909Y45238D01*
X291911Y45237D01*
X292005Y45257D01*
X292102Y45277D01*
X292104Y45278D01*
X292106Y45279D01*
X292186Y45335D01*
X292266Y45389D01*
X292267Y45391D01*
X292269Y45392D01*
X292320Y45475D01*
X292373Y45557D01*
X292373Y45559D01*
X292374Y45561D01*
X292390Y45657D01*
X292406Y45753D01*
X292405Y45755D01*
X292406Y45757D01*
X292383Y45849D01*
X292360Y45947D01*
X292359Y45948D01*
X292358Y45950D01*
X292300Y46028D01*
X292242Y46107D01*
X292240Y46108D01*
X292239Y46109D01*
X292098Y46198D01*
X289684Y47198D01*
X289670Y47201D01*
X289657Y47208D01*
X289493Y47236D01*
X283369Y47236D01*
X283369Y53546D01*
X283367Y53560D01*
X283369Y53574D01*
X283331Y53737D01*
X282333Y56146D01*
X282333Y61151D01*
X284249Y65775D01*
X287409Y68935D01*
X287413Y68942D01*
X287420Y68947D01*
X287468Y69024D01*
X287518Y69101D01*
X287520Y69109D01*
X287524Y69116D01*
X287538Y69206D01*
X287555Y69296D01*
X287553Y69305D01*
X287554Y69313D01*
X287532Y69401D01*
X287512Y69490D01*
X287507Y69497D01*
X287505Y69505D01*
X287409Y69641D01*
X284249Y72801D01*
X282333Y77425D01*
X282333Y82430D01*
X284249Y87054D01*
X284493Y87298D01*
X284500Y87309D01*
X284510Y87316D01*
X284555Y87391D01*
X284603Y87464D01*
X284605Y87477D01*
X284612Y87487D01*
X284639Y87651D01*
X284639Y101950D01*
X285384Y102695D01*
X301740Y102695D01*
X301753Y102697D01*
X301765Y102695D01*
X301849Y102717D01*
X301935Y102734D01*
X301945Y102741D01*
X301958Y102744D01*
X302093Y102841D01*
X316669Y117416D01*
X316676Y117427D01*
X316686Y117434D01*
X316730Y117509D01*
X316778Y117582D01*
X316781Y117594D01*
X316787Y117605D01*
X316815Y117769D01*
X316815Y120765D01*
X316813Y120773D01*
X316814Y120782D01*
X316793Y120870D01*
X316775Y120960D01*
X316770Y120967D01*
X316768Y120975D01*
X316714Y121048D01*
X316663Y121124D01*
X316656Y121128D01*
X316651Y121135D01*
X316572Y121182D01*
X316495Y121231D01*
X316487Y121232D01*
X316480Y121237D01*
X316315Y121264D01*
X313575Y121264D01*
X312831Y122009D01*
X312831Y131659D01*
X312828Y131671D01*
X312830Y131684D01*
X312809Y131768D01*
X312791Y131854D01*
X312784Y131864D01*
X312781Y131876D01*
X312685Y132012D01*
X275213Y169483D01*
X275203Y169490D01*
X275195Y169500D01*
X275121Y169545D01*
X275048Y169593D01*
X275035Y169595D01*
X275024Y169602D01*
X274860Y169629D01*
X256799Y169629D01*
X256791Y169628D01*
X256783Y169629D01*
X256694Y169608D01*
X256604Y169590D01*
X256597Y169585D01*
X256589Y169583D01*
X256516Y169529D01*
X256440Y169477D01*
X256436Y169470D01*
X256429Y169465D01*
X256383Y169387D01*
X256333Y169310D01*
X256332Y169301D01*
X256328Y169294D01*
X256300Y169130D01*
X256300Y166009D01*
X255556Y165264D01*
X244503Y165264D01*
X243899Y165868D01*
X243896Y165870D01*
X243894Y165874D01*
X243814Y165925D01*
X243734Y165978D01*
X243729Y165978D01*
X243726Y165981D01*
X243633Y165996D01*
X243538Y166014D01*
X243534Y166013D01*
X243530Y166014D01*
X243438Y165992D01*
X243344Y165971D01*
X243340Y165969D01*
X243336Y165968D01*
X243260Y165912D01*
X243182Y165856D01*
X243180Y165852D01*
X243176Y165850D01*
X243128Y165768D01*
X243078Y165687D01*
X243077Y165682D01*
X243075Y165679D01*
X243047Y165515D01*
X243047Y149896D01*
X243047Y149895D01*
X243047Y149894D01*
X243051Y149054D01*
X242454Y148458D01*
X242453Y148457D01*
X242453Y148456D01*
X214777Y120554D01*
X214729Y120481D01*
X214678Y120411D01*
X214674Y120397D01*
X214668Y120387D01*
X214660Y120345D01*
X214634Y120251D01*
X214620Y120106D01*
X214617Y120095D01*
X214619Y120076D01*
X214615Y120053D01*
X214615Y118161D01*
X214616Y118156D01*
X214615Y118152D01*
X214636Y118059D01*
X214655Y117966D01*
X214657Y117962D01*
X214658Y117958D01*
X214713Y117880D01*
X214767Y117802D01*
X214771Y117799D01*
X214773Y117796D01*
X214854Y117746D01*
X214935Y117695D01*
X214939Y117694D01*
X214943Y117692D01*
X215037Y117677D01*
X215131Y117662D01*
X215135Y117663D01*
X215139Y117662D01*
X215232Y117686D01*
X215324Y117708D01*
X215328Y117710D01*
X215332Y117711D01*
X215467Y117808D01*
X216629Y118969D01*
X220400Y118969D01*
X223067Y116302D01*
X223067Y112530D01*
X221176Y110639D01*
X221174Y110635D01*
X221170Y110633D01*
X221119Y110553D01*
X221066Y110473D01*
X221065Y110469D01*
X221063Y110466D01*
X221047Y110372D01*
X221030Y110278D01*
X221031Y110274D01*
X221030Y110269D01*
X221052Y110178D01*
X221073Y110084D01*
X221075Y110080D01*
X221076Y110076D01*
X221132Y110000D01*
X221188Y109921D01*
X221191Y109919D01*
X221194Y109916D01*
X221276Y109867D01*
X221357Y109817D01*
X221361Y109817D01*
X221365Y109814D01*
X221529Y109787D01*
X222061Y109787D01*
X224750Y108673D01*
X224803Y108641D01*
X224877Y108591D01*
X224888Y108590D01*
X224897Y108584D01*
X224985Y108571D01*
X225073Y108555D01*
X225083Y108557D01*
X225093Y108556D01*
X225256Y108593D01*
X227542Y109540D01*
X230447Y109540D01*
X233131Y108428D01*
X235185Y106374D01*
X236297Y103690D01*
X236297Y100785D01*
X235185Y98101D01*
X233131Y96046D01*
X230447Y94934D01*
X227542Y94934D01*
X224858Y96046D01*
X224841Y96063D01*
X224832Y96069D01*
X224826Y96077D01*
X224749Y96124D01*
X224675Y96173D01*
X224664Y96175D01*
X224655Y96180D01*
X224567Y96193D01*
X224479Y96209D01*
X224469Y96207D01*
X224459Y96209D01*
X224296Y96171D01*
X222061Y95245D01*
X219168Y95245D01*
X216496Y96352D01*
X215467Y97381D01*
X215464Y97383D01*
X215462Y97386D01*
X215382Y97437D01*
X215302Y97490D01*
X215297Y97491D01*
X215294Y97493D01*
X215201Y97509D01*
X215106Y97527D01*
X215102Y97526D01*
X215098Y97527D01*
X215006Y97505D01*
X214912Y97484D01*
X214908Y97482D01*
X214904Y97481D01*
X214828Y97425D01*
X214750Y97369D01*
X214748Y97365D01*
X214744Y97363D01*
X214696Y97281D01*
X214646Y97199D01*
X214645Y97195D01*
X214643Y97192D01*
X214615Y97028D01*
X214615Y75804D01*
X214618Y75792D01*
X214616Y75780D01*
X214637Y75695D01*
X214655Y75610D01*
X214662Y75599D01*
X214665Y75587D01*
X214761Y75451D01*
X215378Y74835D01*
X216403Y72361D01*
X216409Y72353D01*
X216411Y72343D01*
X216464Y72271D01*
X216514Y72197D01*
X216523Y72191D01*
X216529Y72182D01*
X216605Y72137D01*
X216680Y72088D01*
X216691Y72086D01*
X216700Y72081D01*
X216715Y72078D01*
X219460Y70941D01*
X221514Y68887D01*
X222626Y66203D01*
X222626Y63298D01*
X221514Y60614D01*
X219460Y58560D01*
X216776Y57448D01*
X213870Y57448D01*
X211369Y58484D01*
X211367Y58484D01*
X211365Y58486D01*
X211269Y58503D01*
X211174Y58522D01*
X211172Y58522D01*
X211169Y58522D01*
X211074Y58501D01*
X210979Y58481D01*
X210977Y58480D01*
X210975Y58479D01*
X210896Y58423D01*
X210816Y58367D01*
X210815Y58365D01*
X210813Y58364D01*
X210761Y58280D01*
X210710Y58198D01*
X210710Y58196D01*
X210709Y58195D01*
X210694Y58097D01*
X210679Y58002D01*
X210679Y58000D01*
X210679Y57998D01*
X210704Y57902D01*
X210727Y57809D01*
X210728Y57807D01*
X210728Y57805D01*
X210825Y57670D01*
X210944Y57550D01*
X212056Y54866D01*
X212056Y51961D01*
X210944Y49277D01*
X208890Y47223D01*
X206206Y46111D01*
X203301Y46111D01*
X200617Y47223D01*
X198562Y49277D01*
X197626Y51537D01*
X197620Y51546D01*
X197618Y51556D01*
X197565Y51627D01*
X197515Y51702D01*
X197506Y51708D01*
X197500Y51716D01*
X197423Y51761D01*
X197348Y51810D01*
X197338Y51812D01*
X197329Y51818D01*
X197165Y51845D01*
X196968Y51845D01*
X194296Y52952D01*
X192251Y54997D01*
X191144Y57670D01*
X191144Y60562D01*
X191268Y60863D01*
X191270Y60873D01*
X191276Y60882D01*
X191289Y60971D01*
X191306Y61058D01*
X191304Y61068D01*
X191306Y61078D01*
X191284Y61165D01*
X191265Y61253D01*
X191259Y61261D01*
X191257Y61271D01*
X191161Y61407D01*
X190559Y62011D01*
X190555Y62013D01*
X190552Y62017D01*
X190473Y62068D01*
X190393Y62121D01*
X190389Y62122D01*
X190385Y62124D01*
X190292Y62140D01*
X190198Y62157D01*
X190193Y62156D01*
X190189Y62157D01*
X190097Y62135D01*
X190004Y62115D01*
X190000Y62112D01*
X189995Y62111D01*
X189919Y62055D01*
X189841Y62000D01*
X189839Y61996D01*
X189835Y61993D01*
X189787Y61912D01*
X189737Y61831D01*
X189736Y61826D01*
X189734Y61822D01*
X189706Y61658D01*
X189706Y49344D01*
X189709Y49332D01*
X189707Y49319D01*
X189728Y49235D01*
X189746Y49149D01*
X189753Y49139D01*
X189756Y49127D01*
X189852Y48991D01*
X210544Y28299D01*
X210555Y28292D01*
X210562Y28282D01*
X210637Y28238D01*
X210710Y28189D01*
X210722Y28187D01*
X210733Y28181D01*
X210897Y28153D01*
X260426Y28153D01*
X263960Y24619D01*
X263970Y24612D01*
X263978Y24602D01*
X264052Y24558D01*
X264125Y24509D01*
X264138Y24507D01*
X264149Y24501D01*
X264313Y24473D01*
X267032Y24473D01*
X267044Y24475D01*
G37*
G36*
X167506Y390833D02*
X167506Y390833D01*
X167518Y390831D01*
X167603Y390853D01*
X167688Y390870D01*
X167699Y390878D01*
X167711Y390881D01*
X167847Y390977D01*
X169863Y392993D01*
X169870Y393004D01*
X169880Y393011D01*
X169924Y393086D01*
X169973Y393159D01*
X169975Y393171D01*
X169981Y393182D01*
X170009Y393346D01*
X170009Y412146D01*
X177300Y419437D01*
X207820Y419437D01*
X215868Y411389D01*
X215878Y411382D01*
X215886Y411372D01*
X215960Y411328D01*
X216033Y411279D01*
X216046Y411277D01*
X216057Y411271D01*
X216221Y411243D01*
X218358Y411243D01*
X221015Y408586D01*
X221015Y408552D01*
X221016Y408548D01*
X221015Y408543D01*
X221036Y408450D01*
X221055Y408357D01*
X221057Y408353D01*
X221058Y408349D01*
X221113Y408272D01*
X221167Y408193D01*
X221171Y408191D01*
X221173Y408187D01*
X221254Y408137D01*
X221335Y408086D01*
X221339Y408085D01*
X221343Y408083D01*
X221436Y408069D01*
X221531Y408053D01*
X221535Y408054D01*
X221539Y408053D01*
X221632Y408077D01*
X221724Y408099D01*
X221728Y408101D01*
X221732Y408102D01*
X221867Y408199D01*
X221930Y408261D01*
X225982Y408261D01*
X226103Y408140D01*
X226110Y408135D01*
X226115Y408129D01*
X226192Y408081D01*
X226269Y408030D01*
X226277Y408029D01*
X226284Y408024D01*
X226374Y408011D01*
X226464Y407994D01*
X226472Y407996D01*
X226481Y407995D01*
X226569Y408017D01*
X226658Y408037D01*
X226665Y408042D01*
X226673Y408044D01*
X226809Y408140D01*
X226929Y408261D01*
X230982Y408261D01*
X231103Y408140D01*
X231110Y408136D01*
X231115Y408129D01*
X231192Y408081D01*
X231269Y408030D01*
X231277Y408029D01*
X231284Y408024D01*
X231374Y408011D01*
X231464Y407994D01*
X231472Y407996D01*
X231481Y407995D01*
X231569Y408017D01*
X231658Y408037D01*
X231665Y408042D01*
X231673Y408044D01*
X231809Y408140D01*
X231929Y408261D01*
X235982Y408261D01*
X236071Y408172D01*
X236074Y408170D01*
X236077Y408166D01*
X236157Y408115D01*
X236237Y408062D01*
X236241Y408062D01*
X236244Y408059D01*
X236338Y408044D01*
X236432Y408026D01*
X236436Y408027D01*
X236440Y408026D01*
X236533Y408048D01*
X236626Y408069D01*
X236630Y408071D01*
X236634Y408072D01*
X236710Y408128D01*
X236788Y408184D01*
X236791Y408188D01*
X236794Y408190D01*
X236842Y408271D01*
X236893Y408353D01*
X236893Y408357D01*
X236895Y408361D01*
X236923Y408525D01*
X236923Y410384D01*
X236921Y410397D01*
X236922Y410409D01*
X236901Y410493D01*
X236884Y410579D01*
X236876Y410589D01*
X236873Y410602D01*
X236777Y410737D01*
X236515Y410999D01*
X236505Y411006D01*
X236497Y411016D01*
X236422Y411061D01*
X236349Y411109D01*
X236337Y411111D01*
X236326Y411118D01*
X236162Y411145D01*
X226946Y411145D01*
X226202Y411890D01*
X226202Y422942D01*
X226946Y423687D01*
X228228Y423687D01*
X228237Y423688D01*
X228245Y423687D01*
X228333Y423708D01*
X228423Y423726D01*
X228430Y423731D01*
X228438Y423733D01*
X228512Y423787D01*
X228587Y423839D01*
X228592Y423846D01*
X228599Y423851D01*
X228645Y423929D01*
X228694Y424006D01*
X228696Y424015D01*
X228700Y424022D01*
X228728Y424186D01*
X228728Y429118D01*
X228725Y429130D01*
X228727Y429143D01*
X228706Y429227D01*
X228688Y429313D01*
X228681Y429323D01*
X228678Y429335D01*
X228581Y429471D01*
X221213Y436840D01*
X221202Y436847D01*
X221195Y436857D01*
X221120Y436901D01*
X221047Y436950D01*
X221035Y436952D01*
X221024Y436958D01*
X220860Y436986D01*
X114819Y437061D01*
X114808Y437058D01*
X114797Y437060D01*
X114711Y437039D01*
X114625Y437021D01*
X114615Y437015D01*
X114604Y437012D01*
X114468Y436916D01*
X103235Y425811D01*
X103232Y425806D01*
X103227Y425803D01*
X103177Y425724D01*
X103125Y425646D01*
X103123Y425640D01*
X103120Y425636D01*
X103105Y425543D01*
X103087Y425451D01*
X103088Y425445D01*
X103087Y425439D01*
X103109Y425347D01*
X103129Y425256D01*
X103132Y425252D01*
X103133Y425246D01*
X103189Y425171D01*
X103243Y425093D01*
X103248Y425090D01*
X103251Y425086D01*
X103332Y425038D01*
X103412Y424988D01*
X103417Y424987D01*
X103422Y424984D01*
X103586Y424957D01*
X107946Y424957D01*
X107946Y418415D01*
X100904Y418415D01*
X100904Y422311D01*
X100904Y422313D01*
X100904Y422316D01*
X100884Y422410D01*
X100865Y422506D01*
X100863Y422508D01*
X100862Y422511D01*
X100807Y422589D01*
X100752Y422670D01*
X100750Y422671D01*
X100748Y422673D01*
X100666Y422725D01*
X100585Y422777D01*
X100582Y422777D01*
X100579Y422779D01*
X100482Y422794D01*
X100388Y422810D01*
X100386Y422809D01*
X100383Y422810D01*
X100287Y422786D01*
X100195Y422764D01*
X100193Y422762D01*
X100190Y422761D01*
X100054Y422666D01*
X98864Y421489D01*
X98856Y421478D01*
X98845Y421469D01*
X98801Y421396D01*
X98753Y421324D01*
X98751Y421310D01*
X98743Y421298D01*
X98716Y421134D01*
X98716Y413727D01*
X98718Y413714D01*
X98716Y413702D01*
X98738Y413618D01*
X98755Y413532D01*
X98762Y413521D01*
X98766Y413509D01*
X98862Y413374D01*
X100052Y412184D01*
X100055Y412181D01*
X100058Y412178D01*
X100138Y412127D01*
X100218Y412074D01*
X100222Y412073D01*
X100225Y412071D01*
X100319Y412055D01*
X100413Y412038D01*
X100417Y412038D01*
X100421Y412038D01*
X100513Y412060D01*
X100607Y412080D01*
X100611Y412083D01*
X100615Y412084D01*
X100690Y412139D01*
X100769Y412196D01*
X100772Y412199D01*
X100775Y412202D01*
X100824Y412283D01*
X100874Y412365D01*
X100874Y412369D01*
X100876Y412373D01*
X100904Y412537D01*
X100904Y416417D01*
X107946Y416417D01*
X107946Y409875D01*
X106369Y409875D01*
X106365Y409874D01*
X106361Y409875D01*
X106268Y409855D01*
X106174Y409836D01*
X106171Y409833D01*
X106167Y409832D01*
X106089Y409777D01*
X106010Y409723D01*
X106008Y409720D01*
X106005Y409717D01*
X105954Y409636D01*
X105903Y409556D01*
X105902Y409551D01*
X105900Y409548D01*
X105886Y409454D01*
X105870Y409359D01*
X105871Y409355D01*
X105870Y409351D01*
X105894Y409258D01*
X105916Y409166D01*
X105919Y409163D01*
X105920Y409159D01*
X106016Y409023D01*
X106489Y408550D01*
X106512Y408510D01*
X106563Y408452D01*
X106609Y408390D01*
X106629Y408378D01*
X106644Y408361D01*
X106714Y408328D01*
X106780Y408288D01*
X106805Y408284D01*
X106823Y408276D01*
X106868Y408274D01*
X106944Y408261D01*
X109982Y408261D01*
X110103Y408140D01*
X110110Y408135D01*
X110115Y408129D01*
X110192Y408081D01*
X110269Y408030D01*
X110277Y408029D01*
X110284Y408024D01*
X110374Y408011D01*
X110464Y407994D01*
X110472Y407996D01*
X110481Y407995D01*
X110569Y408017D01*
X110658Y408037D01*
X110665Y408042D01*
X110673Y408044D01*
X110809Y408140D01*
X110929Y408261D01*
X114982Y408261D01*
X115103Y408140D01*
X115110Y408135D01*
X115115Y408129D01*
X115192Y408081D01*
X115269Y408030D01*
X115277Y408029D01*
X115284Y408024D01*
X115374Y408011D01*
X115464Y407994D01*
X115472Y407996D01*
X115481Y407995D01*
X115569Y408017D01*
X115658Y408037D01*
X115665Y408042D01*
X115673Y408044D01*
X115809Y408140D01*
X115929Y408261D01*
X119982Y408261D01*
X120071Y408172D01*
X120074Y408170D01*
X120077Y408166D01*
X120157Y408115D01*
X120237Y408062D01*
X120241Y408062D01*
X120244Y408059D01*
X120338Y408044D01*
X120432Y408026D01*
X120436Y408027D01*
X120440Y408026D01*
X120533Y408048D01*
X120626Y408069D01*
X120630Y408071D01*
X120634Y408072D01*
X120710Y408128D01*
X120788Y408184D01*
X120791Y408188D01*
X120794Y408190D01*
X120842Y408271D01*
X120893Y408353D01*
X120893Y408357D01*
X120895Y408361D01*
X120923Y408525D01*
X120923Y420862D01*
X120921Y420874D01*
X120922Y420887D01*
X120901Y420971D01*
X120884Y421057D01*
X120876Y421067D01*
X120873Y421079D01*
X120777Y421215D01*
X119462Y422530D01*
X119462Y426302D01*
X122129Y428969D01*
X125900Y428969D01*
X128661Y426208D01*
X128668Y426203D01*
X128673Y426196D01*
X128751Y426148D01*
X128827Y426098D01*
X128835Y426096D01*
X128843Y426092D01*
X128933Y426078D01*
X129023Y426061D01*
X129031Y426063D01*
X129039Y426062D01*
X129127Y426084D01*
X129217Y426104D01*
X129224Y426109D01*
X129232Y426111D01*
X129367Y426208D01*
X132129Y428969D01*
X135900Y428969D01*
X138661Y426208D01*
X138668Y426203D01*
X138673Y426196D01*
X138751Y426148D01*
X138827Y426098D01*
X138835Y426096D01*
X138843Y426092D01*
X138933Y426078D01*
X139023Y426061D01*
X139031Y426063D01*
X139039Y426062D01*
X139127Y426084D01*
X139217Y426104D01*
X139224Y426109D01*
X139232Y426111D01*
X139367Y426208D01*
X142129Y428969D01*
X145900Y428969D01*
X148661Y426208D01*
X148668Y426203D01*
X148673Y426196D01*
X148751Y426148D01*
X148827Y426098D01*
X148835Y426096D01*
X148843Y426092D01*
X148933Y426078D01*
X149023Y426061D01*
X149031Y426063D01*
X149039Y426062D01*
X149127Y426084D01*
X149217Y426104D01*
X149224Y426109D01*
X149232Y426111D01*
X149367Y426208D01*
X152129Y428969D01*
X155900Y428969D01*
X158567Y426302D01*
X158567Y422530D01*
X155900Y419863D01*
X152543Y419863D01*
X152531Y419861D01*
X152518Y419863D01*
X152434Y419841D01*
X152348Y419824D01*
X152338Y419817D01*
X152326Y419813D01*
X152190Y419717D01*
X141586Y409113D01*
X141584Y409109D01*
X141580Y409107D01*
X141529Y409027D01*
X141476Y408947D01*
X141476Y408943D01*
X141473Y408940D01*
X141458Y408846D01*
X141440Y408752D01*
X141441Y408748D01*
X141440Y408743D01*
X141462Y408652D01*
X141483Y408558D01*
X141485Y408554D01*
X141486Y408550D01*
X141542Y408474D01*
X141598Y408396D01*
X141602Y408393D01*
X141604Y408390D01*
X141686Y408341D01*
X141767Y408291D01*
X141772Y408291D01*
X141775Y408288D01*
X141939Y408261D01*
X144982Y408261D01*
X145103Y408140D01*
X145110Y408135D01*
X145115Y408129D01*
X145192Y408081D01*
X145269Y408030D01*
X145277Y408029D01*
X145284Y408024D01*
X145374Y408011D01*
X145464Y407994D01*
X145472Y407996D01*
X145481Y407995D01*
X145569Y408017D01*
X145658Y408037D01*
X145665Y408042D01*
X145673Y408044D01*
X145809Y408140D01*
X145929Y408261D01*
X149982Y408261D01*
X150103Y408140D01*
X150110Y408136D01*
X150115Y408129D01*
X150192Y408081D01*
X150269Y408030D01*
X150277Y408029D01*
X150284Y408024D01*
X150374Y408011D01*
X150464Y407994D01*
X150472Y407996D01*
X150481Y407995D01*
X150569Y408017D01*
X150658Y408037D01*
X150665Y408042D01*
X150673Y408044D01*
X150809Y408140D01*
X150929Y408261D01*
X154982Y408261D01*
X155103Y408140D01*
X155110Y408135D01*
X155115Y408129D01*
X155192Y408081D01*
X155269Y408030D01*
X155277Y408029D01*
X155284Y408024D01*
X155374Y408011D01*
X155464Y407994D01*
X155472Y407996D01*
X155481Y407995D01*
X155569Y408017D01*
X155658Y408037D01*
X155665Y408042D01*
X155673Y408044D01*
X155809Y408140D01*
X155929Y408261D01*
X159982Y408261D01*
X160727Y407516D01*
X160727Y393964D01*
X159982Y393219D01*
X155929Y393219D01*
X155809Y393340D01*
X155802Y393345D01*
X155797Y393351D01*
X155719Y393399D01*
X155643Y393450D01*
X155635Y393451D01*
X155628Y393456D01*
X155538Y393469D01*
X155448Y393486D01*
X155439Y393484D01*
X155431Y393486D01*
X155343Y393463D01*
X155253Y393443D01*
X155247Y393438D01*
X155238Y393436D01*
X155103Y393340D01*
X154982Y393219D01*
X150929Y393219D01*
X150809Y393340D01*
X150802Y393345D01*
X150797Y393351D01*
X150719Y393399D01*
X150643Y393450D01*
X150635Y393451D01*
X150628Y393456D01*
X150538Y393469D01*
X150448Y393486D01*
X150439Y393484D01*
X150431Y393486D01*
X150343Y393463D01*
X150253Y393443D01*
X150247Y393438D01*
X150238Y393436D01*
X150103Y393340D01*
X149982Y393219D01*
X145929Y393219D01*
X145809Y393340D01*
X145802Y393345D01*
X145797Y393351D01*
X145719Y393399D01*
X145643Y393450D01*
X145635Y393451D01*
X145628Y393456D01*
X145538Y393469D01*
X145448Y393486D01*
X145439Y393484D01*
X145431Y393486D01*
X145343Y393463D01*
X145253Y393443D01*
X145247Y393438D01*
X145238Y393436D01*
X145103Y393340D01*
X144982Y393219D01*
X140929Y393219D01*
X140809Y393340D01*
X140802Y393345D01*
X140797Y393351D01*
X140719Y393399D01*
X140643Y393450D01*
X140635Y393451D01*
X140628Y393456D01*
X140538Y393469D01*
X140448Y393486D01*
X140439Y393484D01*
X140431Y393486D01*
X140343Y393463D01*
X140253Y393443D01*
X140247Y393438D01*
X140238Y393436D01*
X140103Y393340D01*
X139982Y393219D01*
X135929Y393219D01*
X135809Y393340D01*
X135802Y393345D01*
X135797Y393351D01*
X135719Y393399D01*
X135643Y393450D01*
X135635Y393451D01*
X135628Y393456D01*
X135538Y393469D01*
X135448Y393486D01*
X135439Y393484D01*
X135431Y393486D01*
X135343Y393463D01*
X135253Y393443D01*
X135247Y393438D01*
X135238Y393436D01*
X135103Y393340D01*
X134982Y393219D01*
X130929Y393219D01*
X130809Y393340D01*
X130802Y393345D01*
X130797Y393351D01*
X130719Y393399D01*
X130643Y393450D01*
X130635Y393451D01*
X130628Y393456D01*
X130538Y393469D01*
X130448Y393486D01*
X130439Y393484D01*
X130431Y393486D01*
X130343Y393463D01*
X130253Y393443D01*
X130247Y393438D01*
X130238Y393436D01*
X130103Y393340D01*
X129982Y393219D01*
X125929Y393219D01*
X125809Y393340D01*
X125802Y393345D01*
X125797Y393351D01*
X125719Y393399D01*
X125643Y393450D01*
X125635Y393451D01*
X125628Y393456D01*
X125538Y393469D01*
X125448Y393486D01*
X125439Y393484D01*
X125431Y393486D01*
X125343Y393463D01*
X125253Y393443D01*
X125247Y393438D01*
X125238Y393436D01*
X125103Y393340D01*
X124982Y393219D01*
X120929Y393219D01*
X120809Y393340D01*
X120802Y393345D01*
X120797Y393351D01*
X120719Y393399D01*
X120643Y393450D01*
X120635Y393451D01*
X120628Y393456D01*
X120538Y393469D01*
X120448Y393486D01*
X120439Y393484D01*
X120431Y393486D01*
X120343Y393463D01*
X120253Y393443D01*
X120247Y393438D01*
X120238Y393436D01*
X120103Y393340D01*
X119982Y393219D01*
X115929Y393219D01*
X115809Y393340D01*
X115802Y393345D01*
X115797Y393351D01*
X115719Y393399D01*
X115643Y393450D01*
X115635Y393451D01*
X115628Y393456D01*
X115538Y393469D01*
X115448Y393486D01*
X115439Y393484D01*
X115431Y393486D01*
X115343Y393463D01*
X115253Y393443D01*
X115247Y393438D01*
X115238Y393436D01*
X115103Y393340D01*
X114982Y393219D01*
X110929Y393219D01*
X110809Y393340D01*
X110802Y393345D01*
X110797Y393351D01*
X110719Y393399D01*
X110643Y393450D01*
X110635Y393451D01*
X110628Y393456D01*
X110538Y393469D01*
X110448Y393486D01*
X110439Y393484D01*
X110431Y393486D01*
X110343Y393463D01*
X110253Y393443D01*
X110247Y393438D01*
X110238Y393436D01*
X110103Y393340D01*
X109982Y393219D01*
X106944Y393219D01*
X106868Y393204D01*
X106791Y393195D01*
X106772Y393184D01*
X106749Y393180D01*
X106685Y393136D01*
X106618Y393098D01*
X106602Y393078D01*
X106585Y393067D01*
X106561Y393029D01*
X106512Y392970D01*
X106489Y392930D01*
X106016Y392457D01*
X105437Y392122D01*
X104790Y391949D01*
X103705Y391949D01*
X103705Y400490D01*
X103703Y400498D01*
X103705Y400506D01*
X103684Y400595D01*
X103666Y400685D01*
X103661Y400692D01*
X103659Y400700D01*
X103605Y400773D01*
X103553Y400849D01*
X103546Y400853D01*
X103541Y400860D01*
X103463Y400906D01*
X103385Y400956D01*
X103377Y400957D01*
X103370Y400961D01*
X103206Y400989D01*
X102706Y400989D01*
X102698Y400987D01*
X102689Y400989D01*
X102601Y400968D01*
X102511Y400949D01*
X102504Y400945D01*
X102496Y400943D01*
X102423Y400889D01*
X102347Y400837D01*
X102342Y400830D01*
X102336Y400825D01*
X102289Y400747D01*
X102240Y400669D01*
X102239Y400661D01*
X102234Y400654D01*
X102207Y400490D01*
X102207Y391949D01*
X101121Y391949D01*
X100875Y392015D01*
X100806Y392020D01*
X100737Y392032D01*
X100707Y392026D01*
X100676Y392028D01*
X100611Y392004D01*
X100543Y391989D01*
X100518Y391972D01*
X100489Y391961D01*
X100438Y391914D01*
X100381Y391874D01*
X100365Y391848D01*
X100342Y391827D01*
X100313Y391764D01*
X100277Y391705D01*
X100272Y391674D01*
X100259Y391646D01*
X100258Y391577D01*
X100247Y391508D01*
X100255Y391478D01*
X100254Y391448D01*
X100279Y391383D01*
X100296Y391316D01*
X100317Y391287D01*
X100326Y391262D01*
X100355Y391232D01*
X100393Y391180D01*
X100596Y390977D01*
X100606Y390970D01*
X100614Y390960D01*
X100689Y390916D01*
X100762Y390867D01*
X100774Y390865D01*
X100785Y390859D01*
X100949Y390831D01*
X167494Y390831D01*
X167506Y390833D01*
G37*
G36*
X322444Y134808D02*
X322444Y134808D01*
X322456Y134806D01*
X322541Y134828D01*
X322626Y134845D01*
X322637Y134853D01*
X322649Y134856D01*
X322784Y134952D01*
X325581Y137749D01*
X325588Y137759D01*
X325599Y137767D01*
X325643Y137842D01*
X325691Y137915D01*
X325694Y137927D01*
X325700Y137938D01*
X325728Y138102D01*
X325728Y221884D01*
X325726Y221892D01*
X325727Y221901D01*
X325706Y221989D01*
X325688Y222079D01*
X325683Y222086D01*
X325681Y222094D01*
X325627Y222167D01*
X325576Y222243D01*
X325568Y222247D01*
X325563Y222254D01*
X325485Y222301D01*
X325408Y222350D01*
X325400Y222351D01*
X325392Y222356D01*
X325228Y222383D01*
X255691Y222383D01*
X255687Y222382D01*
X255683Y222383D01*
X255589Y222363D01*
X255496Y222344D01*
X255493Y222341D01*
X255489Y222340D01*
X255411Y222285D01*
X255332Y222231D01*
X255330Y222228D01*
X255326Y222225D01*
X255277Y222144D01*
X255225Y222064D01*
X255224Y222059D01*
X255222Y222056D01*
X255208Y221962D01*
X255192Y221867D01*
X255193Y221863D01*
X255192Y221859D01*
X255216Y221767D01*
X255238Y221674D01*
X255241Y221671D01*
X255242Y221667D01*
X255338Y221531D01*
X257774Y219095D01*
X257785Y219088D01*
X257792Y219078D01*
X257867Y219033D01*
X257940Y218985D01*
X257952Y218983D01*
X257963Y218976D01*
X258127Y218949D01*
X259356Y218949D01*
X263161Y215144D01*
X263168Y215139D01*
X263173Y215132D01*
X263251Y215084D01*
X263327Y215034D01*
X263335Y215032D01*
X263343Y215028D01*
X263433Y215014D01*
X263523Y214998D01*
X263531Y214999D01*
X263539Y214998D01*
X263627Y215021D01*
X263717Y215040D01*
X263724Y215045D01*
X263732Y215047D01*
X263867Y215144D01*
X265172Y216449D01*
X300764Y216449D01*
X300803Y216457D01*
X300862Y216458D01*
X301441Y216574D01*
X301504Y216533D01*
X301563Y216509D01*
X301617Y216476D01*
X301659Y216469D01*
X301688Y216457D01*
X301726Y216458D01*
X301781Y216449D01*
X301856Y216449D01*
X302275Y216031D01*
X302308Y216009D01*
X302351Y215968D01*
X304504Y214533D01*
X304563Y214509D01*
X304617Y214476D01*
X304659Y214469D01*
X304688Y214457D01*
X304726Y214458D01*
X304781Y214449D01*
X304856Y214449D01*
X305274Y214031D01*
X305308Y214009D01*
X305351Y213968D01*
X305843Y213640D01*
X305857Y213566D01*
X305882Y213508D01*
X305897Y213447D01*
X305922Y213412D01*
X305934Y213383D01*
X305962Y213356D01*
X305994Y213311D01*
X306047Y213258D01*
X306047Y212667D01*
X306055Y212628D01*
X306057Y212569D01*
X306173Y211989D01*
X306131Y211926D01*
X306107Y211868D01*
X306075Y211813D01*
X306068Y211771D01*
X306056Y211742D01*
X306056Y211704D01*
X306047Y211649D01*
X306047Y192465D01*
X306050Y192452D01*
X306048Y192440D01*
X306069Y192356D01*
X306087Y192270D01*
X306094Y192260D01*
X306097Y192247D01*
X306193Y192112D01*
X309710Y188595D01*
X309721Y188588D01*
X309728Y188578D01*
X309803Y188533D01*
X309876Y188485D01*
X309888Y188483D01*
X309899Y188476D01*
X310063Y188449D01*
X314856Y188449D01*
X320547Y182758D01*
X320547Y153574D01*
X315713Y148740D01*
X315706Y148730D01*
X315696Y148722D01*
X315652Y148647D01*
X315604Y148574D01*
X315601Y148562D01*
X315595Y148551D01*
X315567Y148387D01*
X315567Y145030D01*
X312900Y142363D01*
X310006Y142363D01*
X310002Y142362D01*
X309998Y142363D01*
X309905Y142343D01*
X309811Y142324D01*
X309808Y142321D01*
X309804Y142320D01*
X309726Y142265D01*
X309648Y142211D01*
X309645Y142208D01*
X309642Y142205D01*
X309592Y142124D01*
X309541Y142044D01*
X309540Y142039D01*
X309538Y142036D01*
X309523Y141942D01*
X309507Y141847D01*
X309508Y141843D01*
X309508Y141839D01*
X309531Y141747D01*
X309553Y141654D01*
X309556Y141651D01*
X309557Y141647D01*
X309653Y141511D01*
X316212Y134952D01*
X316223Y134945D01*
X316230Y134935D01*
X316305Y134891D01*
X316378Y134842D01*
X316391Y134840D01*
X316401Y134833D01*
X316565Y134806D01*
X322431Y134806D01*
X322444Y134808D01*
G37*
G36*
X305975Y145410D02*
X305975Y145410D01*
X305979Y145409D01*
X306071Y145431D01*
X306165Y145452D01*
X306168Y145454D01*
X306172Y145455D01*
X306248Y145511D01*
X306327Y145567D01*
X306329Y145570D01*
X306333Y145573D01*
X306381Y145655D01*
X306431Y145736D01*
X306432Y145740D01*
X306434Y145744D01*
X306462Y145908D01*
X306462Y148802D01*
X309129Y151469D01*
X312486Y151469D01*
X312498Y151471D01*
X312510Y151469D01*
X312595Y151491D01*
X312680Y151508D01*
X312691Y151515D01*
X312703Y151519D01*
X312839Y151615D01*
X316335Y155112D01*
X316342Y155122D01*
X316353Y155130D01*
X316397Y155205D01*
X316445Y155278D01*
X316448Y155290D01*
X316454Y155301D01*
X316482Y155465D01*
X316482Y180867D01*
X316479Y180880D01*
X316481Y180892D01*
X316460Y180976D01*
X316442Y181062D01*
X316435Y181072D01*
X316432Y181085D01*
X316335Y181220D01*
X313319Y184237D01*
X313308Y184244D01*
X313301Y184254D01*
X313226Y184299D01*
X313153Y184347D01*
X313140Y184349D01*
X313130Y184356D01*
X312966Y184383D01*
X308172Y184383D01*
X301982Y190574D01*
X301982Y196513D01*
X301981Y196518D01*
X301982Y196522D01*
X301961Y196615D01*
X301942Y196708D01*
X301940Y196712D01*
X301939Y196716D01*
X301884Y196793D01*
X301830Y196872D01*
X301826Y196875D01*
X301824Y196878D01*
X301743Y196928D01*
X301662Y196979D01*
X301658Y196980D01*
X301654Y196982D01*
X301560Y196997D01*
X301466Y197012D01*
X301462Y197011D01*
X301458Y197012D01*
X301365Y196988D01*
X301272Y196966D01*
X301269Y196964D01*
X301265Y196963D01*
X301129Y196866D01*
X300982Y196719D01*
X296929Y196719D01*
X296809Y196840D01*
X296802Y196845D01*
X296797Y196851D01*
X296719Y196899D01*
X296643Y196950D01*
X296635Y196951D01*
X296628Y196956D01*
X296538Y196969D01*
X296448Y196986D01*
X296439Y196984D01*
X296431Y196986D01*
X296343Y196963D01*
X296253Y196943D01*
X296247Y196938D01*
X296238Y196936D01*
X296103Y196840D01*
X295982Y196719D01*
X291929Y196719D01*
X291809Y196840D01*
X291802Y196845D01*
X291797Y196851D01*
X291719Y196899D01*
X291643Y196950D01*
X291635Y196951D01*
X291628Y196956D01*
X291538Y196969D01*
X291448Y196986D01*
X291439Y196984D01*
X291431Y196986D01*
X291343Y196963D01*
X291253Y196943D01*
X291247Y196938D01*
X291238Y196936D01*
X291103Y196840D01*
X290982Y196719D01*
X286929Y196719D01*
X286809Y196840D01*
X286802Y196845D01*
X286797Y196851D01*
X286719Y196899D01*
X286643Y196950D01*
X286635Y196951D01*
X286628Y196956D01*
X286538Y196969D01*
X286448Y196986D01*
X286439Y196984D01*
X286431Y196986D01*
X286343Y196963D01*
X286253Y196943D01*
X286247Y196938D01*
X286238Y196936D01*
X286103Y196840D01*
X285982Y196719D01*
X281929Y196719D01*
X281809Y196840D01*
X281802Y196845D01*
X281797Y196851D01*
X281719Y196899D01*
X281643Y196950D01*
X281635Y196951D01*
X281628Y196956D01*
X281538Y196969D01*
X281448Y196986D01*
X281439Y196984D01*
X281431Y196986D01*
X281343Y196963D01*
X281253Y196943D01*
X281247Y196938D01*
X281238Y196936D01*
X281103Y196840D01*
X280982Y196719D01*
X277791Y196719D01*
X277787Y196718D01*
X277783Y196719D01*
X277690Y196699D01*
X277596Y196680D01*
X277593Y196677D01*
X277589Y196676D01*
X277511Y196621D01*
X277432Y196567D01*
X277430Y196564D01*
X277427Y196561D01*
X277377Y196480D01*
X277325Y196400D01*
X277325Y196395D01*
X277322Y196392D01*
X277308Y196298D01*
X277292Y196204D01*
X277293Y196199D01*
X277292Y196195D01*
X277316Y196102D01*
X277338Y196010D01*
X277341Y196007D01*
X277342Y196003D01*
X277438Y195867D01*
X306690Y166615D01*
X306701Y166608D01*
X306708Y166598D01*
X306783Y166553D01*
X306856Y166505D01*
X306868Y166503D01*
X306879Y166496D01*
X307043Y166469D01*
X310400Y166469D01*
X313067Y163802D01*
X313067Y160030D01*
X310400Y157363D01*
X306629Y157363D01*
X303962Y160030D01*
X303962Y163387D01*
X303959Y163400D01*
X303961Y163412D01*
X303940Y163496D01*
X303922Y163582D01*
X303915Y163593D01*
X303912Y163605D01*
X303815Y163740D01*
X272819Y194737D01*
X271399Y196156D01*
X271396Y196159D01*
X271394Y196162D01*
X271314Y196213D01*
X271234Y196266D01*
X271229Y196267D01*
X271226Y196269D01*
X271133Y196285D01*
X271038Y196302D01*
X271034Y196302D01*
X271030Y196302D01*
X270938Y196280D01*
X270844Y196260D01*
X270840Y196257D01*
X270836Y196256D01*
X270760Y196200D01*
X270682Y196144D01*
X270680Y196141D01*
X270676Y196138D01*
X270628Y196057D01*
X270578Y195975D01*
X270577Y195971D01*
X270575Y195967D01*
X270547Y195803D01*
X270547Y184029D01*
X270550Y184016D01*
X270548Y184004D01*
X270569Y183919D01*
X270587Y183834D01*
X270594Y183823D01*
X270597Y183811D01*
X270693Y183676D01*
X273067Y181302D01*
X273067Y177530D01*
X270592Y175055D01*
X270590Y175051D01*
X270586Y175049D01*
X270535Y174969D01*
X270482Y174889D01*
X270481Y174885D01*
X270479Y174882D01*
X270463Y174788D01*
X270446Y174694D01*
X270447Y174690D01*
X270446Y174685D01*
X270468Y174594D01*
X270489Y174500D01*
X270491Y174496D01*
X270492Y174492D01*
X270548Y174416D01*
X270604Y174337D01*
X270607Y174335D01*
X270610Y174332D01*
X270692Y174283D01*
X270773Y174233D01*
X270777Y174233D01*
X270781Y174230D01*
X270945Y174203D01*
X276962Y174203D01*
X278447Y172717D01*
X305609Y145555D01*
X305613Y145553D01*
X305615Y145549D01*
X305695Y145498D01*
X305775Y145445D01*
X305779Y145444D01*
X305783Y145442D01*
X305876Y145426D01*
X305971Y145409D01*
X305975Y145410D01*
G37*
%LPC*%
G36*
X273841Y103733D02*
X273841Y103733D01*
X271157Y104845D01*
X269102Y106899D01*
X267990Y109583D01*
X267990Y112488D01*
X268697Y114193D01*
X268698Y114199D01*
X268701Y114204D01*
X268717Y114297D01*
X268735Y114388D01*
X268733Y114394D01*
X268734Y114401D01*
X268713Y114491D01*
X268693Y114583D01*
X268690Y114588D01*
X268688Y114594D01*
X268633Y114669D01*
X268579Y114746D01*
X268574Y114749D01*
X268570Y114754D01*
X268490Y114802D01*
X268411Y114851D01*
X268405Y114852D01*
X268399Y114856D01*
X268235Y114883D01*
X235172Y114883D01*
X233835Y116220D01*
X230339Y119717D01*
X230328Y119724D01*
X230321Y119734D01*
X230246Y119778D01*
X230173Y119827D01*
X230160Y119829D01*
X230150Y119836D01*
X229986Y119863D01*
X226629Y119863D01*
X223962Y122530D01*
X223962Y126302D01*
X226629Y128969D01*
X230400Y128969D01*
X230863Y128506D01*
X230866Y128504D01*
X230869Y128500D01*
X230949Y128449D01*
X231029Y128396D01*
X231033Y128395D01*
X231036Y128393D01*
X231130Y128377D01*
X231224Y128360D01*
X231228Y128361D01*
X231232Y128360D01*
X231324Y128382D01*
X231418Y128403D01*
X231422Y128405D01*
X231426Y128406D01*
X231502Y128462D01*
X231580Y128518D01*
X231583Y128522D01*
X231586Y128524D01*
X231634Y128605D01*
X231685Y128687D01*
X231685Y128691D01*
X231687Y128695D01*
X231715Y128859D01*
X231715Y133149D01*
X233390Y137192D01*
X236484Y140286D01*
X240528Y141961D01*
X244904Y141961D01*
X248947Y140286D01*
X252042Y137192D01*
X253717Y133149D01*
X253717Y128772D01*
X252042Y124729D01*
X248947Y121634D01*
X244904Y119960D01*
X240528Y119960D01*
X236484Y121634D01*
X233919Y124199D01*
X233916Y124202D01*
X233914Y124205D01*
X233834Y124256D01*
X233754Y124309D01*
X233749Y124310D01*
X233746Y124312D01*
X233653Y124328D01*
X233558Y124346D01*
X233554Y124345D01*
X233550Y124345D01*
X233458Y124324D01*
X233364Y124303D01*
X233360Y124300D01*
X233356Y124299D01*
X233280Y124243D01*
X233202Y124188D01*
X233200Y124184D01*
X233196Y124181D01*
X233148Y124100D01*
X233098Y124018D01*
X233097Y124014D01*
X233095Y124010D01*
X233067Y123846D01*
X233067Y122945D01*
X233070Y122932D01*
X233068Y122920D01*
X233089Y122836D01*
X233107Y122750D01*
X233114Y122739D01*
X233117Y122727D01*
X233213Y122592D01*
X236710Y119095D01*
X236721Y119088D01*
X236728Y119078D01*
X236803Y119033D01*
X236876Y118985D01*
X236888Y118983D01*
X236899Y118976D01*
X237063Y118949D01*
X267466Y118949D01*
X267478Y118951D01*
X267490Y118949D01*
X267575Y118971D01*
X267660Y118988D01*
X267671Y118995D01*
X267683Y118999D01*
X267819Y119095D01*
X267876Y119152D01*
X267883Y119163D01*
X267893Y119171D01*
X267938Y119245D01*
X267986Y119318D01*
X267988Y119331D01*
X267995Y119342D01*
X268022Y119506D01*
X268022Y120662D01*
X269129Y123335D01*
X271175Y125380D01*
X273847Y126487D01*
X276739Y126487D01*
X278263Y125856D01*
X278273Y125854D01*
X278282Y125848D01*
X278371Y125835D01*
X278458Y125818D01*
X278468Y125820D01*
X278479Y125818D01*
X278565Y125840D01*
X278653Y125859D01*
X278661Y125865D01*
X278672Y125867D01*
X278807Y125964D01*
X283165Y130322D01*
X295331Y130322D01*
X295340Y130323D01*
X295348Y130322D01*
X295436Y130343D01*
X295526Y130361D01*
X295533Y130366D01*
X295541Y130368D01*
X295615Y130422D01*
X295690Y130474D01*
X295695Y130481D01*
X295702Y130486D01*
X295748Y130564D01*
X295797Y130641D01*
X295799Y130650D01*
X295803Y130657D01*
X295831Y130821D01*
X295831Y134061D01*
X296575Y134806D01*
X307628Y134806D01*
X308372Y134061D01*
X308372Y122009D01*
X307628Y121264D01*
X296575Y121264D01*
X295831Y122009D01*
X295831Y125249D01*
X295829Y125257D01*
X295830Y125266D01*
X295809Y125354D01*
X295791Y125444D01*
X295786Y125451D01*
X295784Y125459D01*
X295730Y125532D01*
X295679Y125608D01*
X295672Y125612D01*
X295667Y125619D01*
X295588Y125666D01*
X295511Y125715D01*
X295503Y125716D01*
X295496Y125721D01*
X295331Y125748D01*
X285266Y125748D01*
X285254Y125746D01*
X285241Y125748D01*
X285157Y125726D01*
X285071Y125709D01*
X285061Y125702D01*
X285049Y125698D01*
X284913Y125602D01*
X282041Y122730D01*
X282035Y122721D01*
X282027Y122715D01*
X281981Y122639D01*
X281931Y122564D01*
X281929Y122554D01*
X281924Y122545D01*
X281911Y122457D01*
X281895Y122369D01*
X281897Y122358D01*
X281896Y122348D01*
X281933Y122186D01*
X282564Y120662D01*
X282564Y117770D01*
X281565Y115359D01*
X281563Y115346D01*
X281556Y115336D01*
X281544Y115249D01*
X281527Y115164D01*
X281530Y115151D01*
X281528Y115139D01*
X281565Y114977D01*
X282596Y112488D01*
X282596Y109583D01*
X281484Y106899D01*
X279430Y104845D01*
X276746Y103733D01*
X273841Y103733D01*
G37*
%LPD*%
G36*
X208905Y59643D02*
X208905Y59643D01*
X208907Y59642D01*
X209003Y59663D01*
X209097Y59683D01*
X209099Y59685D01*
X209101Y59685D01*
X209180Y59741D01*
X209260Y59797D01*
X209261Y59799D01*
X209263Y59800D01*
X209314Y59883D01*
X209366Y59966D01*
X209366Y59968D01*
X209367Y59970D01*
X209382Y60067D01*
X209397Y60162D01*
X209397Y60164D01*
X209397Y60166D01*
X209373Y60262D01*
X209350Y60355D01*
X209349Y60357D01*
X209348Y60359D01*
X209252Y60494D01*
X209132Y60614D01*
X208078Y63159D01*
X208071Y63169D01*
X208068Y63181D01*
X208016Y63251D01*
X207967Y63324D01*
X207956Y63330D01*
X207949Y63341D01*
X207808Y63429D01*
X205096Y64552D01*
X203051Y66597D01*
X201944Y69270D01*
X201944Y72162D01*
X203051Y74835D01*
X205096Y76880D01*
X207768Y77987D01*
X210050Y77987D01*
X210059Y77988D01*
X210067Y77987D01*
X210155Y78008D01*
X210245Y78026D01*
X210252Y78031D01*
X210260Y78033D01*
X210334Y78087D01*
X210409Y78139D01*
X210414Y78146D01*
X210421Y78151D01*
X210467Y78229D01*
X210516Y78306D01*
X210518Y78315D01*
X210522Y78322D01*
X210550Y78486D01*
X210550Y120581D01*
X210532Y120667D01*
X210519Y120753D01*
X210512Y120765D01*
X210510Y120776D01*
X210486Y120811D01*
X210436Y120898D01*
X205274Y127181D01*
X205245Y127204D01*
X205223Y127234D01*
X205169Y127266D01*
X205120Y127306D01*
X205084Y127317D01*
X205052Y127336D01*
X204972Y127349D01*
X204929Y127362D01*
X204911Y127359D01*
X204888Y127363D01*
X202129Y127363D01*
X199462Y130030D01*
X199462Y133802D01*
X202171Y136511D01*
X202173Y136515D01*
X202177Y136517D01*
X202228Y136597D01*
X202281Y136677D01*
X202281Y136681D01*
X202284Y136684D01*
X202299Y136778D01*
X202317Y136872D01*
X202316Y136876D01*
X202317Y136881D01*
X202295Y136972D01*
X202274Y137066D01*
X202272Y137070D01*
X202271Y137074D01*
X202215Y137150D01*
X202159Y137229D01*
X202155Y137231D01*
X202153Y137234D01*
X202071Y137283D01*
X201990Y137333D01*
X201986Y137333D01*
X201982Y137336D01*
X201818Y137363D01*
X199129Y137363D01*
X196462Y140030D01*
X196462Y141884D01*
X196460Y141892D01*
X196461Y141901D01*
X196440Y141989D01*
X196422Y142079D01*
X196417Y142086D01*
X196415Y142094D01*
X196361Y142167D01*
X196310Y142243D01*
X196302Y142247D01*
X196297Y142254D01*
X196219Y142301D01*
X196142Y142350D01*
X196134Y142351D01*
X196126Y142356D01*
X195962Y142383D01*
X184334Y142383D01*
X184330Y142382D01*
X184325Y142383D01*
X184232Y142363D01*
X184139Y142344D01*
X184135Y142341D01*
X184131Y142340D01*
X184053Y142285D01*
X183975Y142231D01*
X183973Y142228D01*
X183969Y142225D01*
X183919Y142144D01*
X183868Y142064D01*
X183867Y142059D01*
X183865Y142056D01*
X183851Y141961D01*
X183835Y141867D01*
X183836Y141863D01*
X183835Y141859D01*
X183859Y141767D01*
X183881Y141674D01*
X183883Y141671D01*
X183884Y141667D01*
X183981Y141531D01*
X185523Y139988D01*
X185523Y136217D01*
X183446Y134140D01*
X183444Y134136D01*
X183440Y134134D01*
X183390Y134054D01*
X183336Y133974D01*
X183336Y133970D01*
X183333Y133967D01*
X183318Y133873D01*
X183300Y133779D01*
X183301Y133775D01*
X183300Y133770D01*
X183322Y133679D01*
X183343Y133585D01*
X183345Y133581D01*
X183346Y133577D01*
X183402Y133501D01*
X183458Y133422D01*
X183462Y133420D01*
X183464Y133417D01*
X183546Y133368D01*
X183627Y133318D01*
X183632Y133318D01*
X183635Y133315D01*
X183799Y133288D01*
X187935Y133288D01*
X191019Y130203D01*
X191030Y130196D01*
X191037Y130186D01*
X191112Y130142D01*
X191185Y130093D01*
X191197Y130091D01*
X191208Y130085D01*
X191372Y130057D01*
X195422Y130057D01*
X201655Y123824D01*
X201655Y104982D01*
X201657Y104974D01*
X201656Y104966D01*
X201677Y104877D01*
X201695Y104787D01*
X201700Y104780D01*
X201702Y104772D01*
X201755Y104699D01*
X201807Y104623D01*
X201814Y104619D01*
X201819Y104612D01*
X201898Y104566D01*
X201975Y104516D01*
X201983Y104515D01*
X201990Y104511D01*
X202154Y104483D01*
X204450Y104483D01*
X207117Y101816D01*
X207117Y98044D01*
X204450Y95377D01*
X200678Y95377D01*
X198011Y98044D01*
X198011Y101401D01*
X198009Y101414D01*
X198011Y101426D01*
X197989Y101510D01*
X197972Y101596D01*
X197965Y101607D01*
X197962Y101619D01*
X197865Y101754D01*
X197590Y102030D01*
X197590Y113689D01*
X197589Y113693D01*
X197590Y113697D01*
X197569Y113791D01*
X197550Y113884D01*
X197548Y113887D01*
X197547Y113891D01*
X197492Y113969D01*
X197438Y114048D01*
X197434Y114050D01*
X197432Y114054D01*
X197351Y114103D01*
X197270Y114155D01*
X197266Y114156D01*
X197262Y114158D01*
X197168Y114172D01*
X197074Y114188D01*
X197070Y114187D01*
X197066Y114188D01*
X196973Y114164D01*
X196881Y114142D01*
X196877Y114139D01*
X196873Y114138D01*
X196737Y114042D01*
X195602Y112906D01*
X194265Y111569D01*
X193194Y111569D01*
X193182Y111567D01*
X193169Y111569D01*
X193085Y111547D01*
X192999Y111530D01*
X192989Y111522D01*
X192977Y111519D01*
X192841Y111423D01*
X192554Y111135D01*
X192547Y111125D01*
X192537Y111118D01*
X192492Y111043D01*
X192444Y110970D01*
X192442Y110957D01*
X192435Y110946D01*
X192407Y110782D01*
X192407Y104543D01*
X192410Y104530D01*
X192408Y104518D01*
X192430Y104434D01*
X192447Y104348D01*
X192454Y104338D01*
X192457Y104325D01*
X192554Y104190D01*
X194927Y101816D01*
X194927Y98044D01*
X192260Y95377D01*
X188489Y95377D01*
X185822Y98044D01*
X185822Y101816D01*
X188196Y104190D01*
X188203Y104200D01*
X188213Y104208D01*
X188257Y104283D01*
X188305Y104356D01*
X188308Y104368D01*
X188314Y104379D01*
X188342Y104543D01*
X188342Y112673D01*
X189679Y114010D01*
X189682Y114014D01*
X189685Y114017D01*
X189734Y114093D01*
X189786Y114168D01*
X189787Y114173D01*
X189789Y114176D01*
X189789Y114179D01*
X189793Y114184D01*
X189808Y114273D01*
X189826Y114362D01*
X189825Y114369D01*
X189825Y114371D01*
X189825Y114374D01*
X189826Y114381D01*
X189805Y114468D01*
X189787Y114557D01*
X189783Y114564D01*
X189782Y114566D01*
X189781Y114567D01*
X189780Y114574D01*
X189726Y114647D01*
X189675Y114722D01*
X189668Y114726D01*
X189667Y114728D01*
X189666Y114728D01*
X189662Y114734D01*
X189584Y114780D01*
X189508Y114829D01*
X189500Y114831D01*
X189498Y114832D01*
X189496Y114832D01*
X189491Y114836D01*
X189327Y114863D01*
X189129Y114863D01*
X186367Y117624D01*
X186360Y117629D01*
X186356Y117636D01*
X186278Y117684D01*
X186202Y117734D01*
X186193Y117736D01*
X186186Y117740D01*
X186096Y117754D01*
X186006Y117771D01*
X185998Y117769D01*
X185990Y117770D01*
X185902Y117748D01*
X185812Y117728D01*
X185805Y117723D01*
X185797Y117721D01*
X185661Y117624D01*
X183135Y115098D01*
X183129Y115090D01*
X183122Y115084D01*
X183075Y115007D01*
X183025Y114932D01*
X183023Y114923D01*
X183018Y114915D01*
X182988Y114751D01*
X182944Y111235D01*
X182945Y111232D01*
X182944Y111228D01*
X182944Y90675D01*
X182947Y90661D01*
X182945Y90647D01*
X182967Y90564D01*
X182984Y90480D01*
X182992Y90468D01*
X182995Y90455D01*
X183093Y90320D01*
X191906Y81613D01*
X191915Y81607D01*
X191922Y81599D01*
X191942Y81587D01*
X192650Y80879D01*
X192651Y80878D01*
X192652Y80877D01*
X193250Y80286D01*
X193250Y79445D01*
X193250Y79443D01*
X193250Y79442D01*
X193256Y78434D01*
X193250Y78397D01*
X193250Y65439D01*
X193251Y65435D01*
X193250Y65431D01*
X193271Y65338D01*
X193290Y65244D01*
X193292Y65241D01*
X193293Y65237D01*
X193348Y65159D01*
X193402Y65080D01*
X193406Y65078D01*
X193408Y65075D01*
X193489Y65025D01*
X193570Y64973D01*
X193574Y64973D01*
X193578Y64971D01*
X193671Y64956D01*
X193766Y64940D01*
X193770Y64941D01*
X193774Y64941D01*
X193867Y64964D01*
X193959Y64986D01*
X193963Y64989D01*
X193967Y64990D01*
X194102Y65086D01*
X194296Y65280D01*
X196968Y66387D01*
X199861Y66387D01*
X202533Y65280D01*
X204578Y63235D01*
X205494Y61024D01*
X205500Y61016D01*
X205502Y61006D01*
X205555Y60934D01*
X205605Y60860D01*
X205614Y60854D01*
X205620Y60845D01*
X205696Y60800D01*
X205772Y60751D01*
X205782Y60749D01*
X205791Y60744D01*
X205955Y60716D01*
X206206Y60716D01*
X208708Y59680D01*
X208710Y59680D01*
X208711Y59678D01*
X208807Y59661D01*
X208903Y59642D01*
X208905Y59643D01*
G37*
%LPC*%
G36*
X66746Y20283D02*
X66746Y20283D01*
X64219Y21330D01*
X64207Y21332D01*
X64196Y21339D01*
X64110Y21351D01*
X64024Y21368D01*
X64012Y21365D01*
X63999Y21367D01*
X63837Y21330D01*
X61461Y20345D01*
X58568Y20345D01*
X55896Y21452D01*
X53851Y23497D01*
X52744Y26170D01*
X52744Y29062D01*
X53851Y31735D01*
X55679Y33563D01*
X55684Y33570D01*
X55690Y33575D01*
X55738Y33652D01*
X55789Y33729D01*
X55790Y33737D01*
X55795Y33744D01*
X55808Y33834D01*
X55825Y33924D01*
X55823Y33932D01*
X55825Y33941D01*
X55802Y34029D01*
X55782Y34118D01*
X55777Y34125D01*
X55775Y34133D01*
X55679Y34269D01*
X53851Y36097D01*
X52744Y38770D01*
X52744Y41662D01*
X53851Y44335D01*
X55879Y46363D01*
X55884Y46370D01*
X55890Y46375D01*
X55938Y46452D01*
X55989Y46529D01*
X55990Y46537D01*
X55995Y46544D01*
X56008Y46634D01*
X56025Y46724D01*
X56023Y46732D01*
X56025Y46741D01*
X56002Y46829D01*
X55982Y46918D01*
X55977Y46925D01*
X55975Y46933D01*
X55879Y47069D01*
X53851Y49097D01*
X52744Y51770D01*
X52744Y54662D01*
X53851Y57335D01*
X55829Y59313D01*
X55834Y59320D01*
X55840Y59325D01*
X55888Y59402D01*
X55939Y59479D01*
X55940Y59487D01*
X55945Y59494D01*
X55958Y59584D01*
X55975Y59674D01*
X55973Y59682D01*
X55975Y59691D01*
X55952Y59779D01*
X55932Y59868D01*
X55927Y59875D01*
X55925Y59883D01*
X55829Y60019D01*
X53851Y61997D01*
X52744Y64670D01*
X52744Y67562D01*
X53851Y70235D01*
X55896Y72280D01*
X58568Y73387D01*
X61461Y73387D01*
X63773Y72429D01*
X63785Y72427D01*
X63796Y72420D01*
X63882Y72408D01*
X63968Y72391D01*
X63980Y72394D01*
X63993Y72392D01*
X64155Y72429D01*
X66746Y73502D01*
X69651Y73502D01*
X72335Y72391D01*
X74390Y70336D01*
X75501Y67652D01*
X75501Y64747D01*
X74390Y62063D01*
X72401Y60074D01*
X72396Y60067D01*
X72390Y60062D01*
X72342Y59985D01*
X72291Y59909D01*
X72290Y59900D01*
X72285Y59893D01*
X72272Y59803D01*
X72255Y59713D01*
X72257Y59705D01*
X72256Y59697D01*
X72278Y59608D01*
X72298Y59519D01*
X72303Y59512D01*
X72305Y59504D01*
X72401Y59368D01*
X74390Y57380D01*
X75501Y54696D01*
X75501Y51790D01*
X74390Y49106D01*
X72401Y47118D01*
X72396Y47111D01*
X72390Y47106D01*
X72342Y47029D01*
X72291Y46952D01*
X72290Y46944D01*
X72285Y46937D01*
X72272Y46847D01*
X72255Y46757D01*
X72257Y46748D01*
X72256Y46740D01*
X72278Y46652D01*
X72298Y46562D01*
X72303Y46556D01*
X72305Y46547D01*
X72401Y46412D01*
X74390Y44423D01*
X75501Y41739D01*
X75501Y38834D01*
X74390Y36150D01*
X72529Y34289D01*
X72524Y34282D01*
X72518Y34277D01*
X72470Y34200D01*
X72419Y34123D01*
X72418Y34115D01*
X72413Y34108D01*
X72400Y34018D01*
X72383Y33928D01*
X72385Y33920D01*
X72383Y33911D01*
X72406Y33823D01*
X72426Y33734D01*
X72431Y33727D01*
X72433Y33719D01*
X72529Y33583D01*
X74390Y31723D01*
X75501Y29038D01*
X75501Y26133D01*
X74390Y23449D01*
X72335Y21395D01*
X69651Y20283D01*
X66746Y20283D01*
G37*
%LPD*%
G36*
X134567Y124289D02*
X134567Y124289D01*
X134571Y124288D01*
X134664Y124308D01*
X134758Y124327D01*
X134761Y124330D01*
X134765Y124331D01*
X134843Y124386D01*
X134922Y124440D01*
X134924Y124443D01*
X134927Y124446D01*
X134977Y124527D01*
X135029Y124607D01*
X135029Y124612D01*
X135031Y124615D01*
X135046Y124709D01*
X135062Y124803D01*
X135061Y124808D01*
X135061Y124812D01*
X135038Y124904D01*
X135016Y124997D01*
X135013Y125000D01*
X135012Y125004D01*
X134916Y125140D01*
X130319Y129737D01*
X128982Y131074D01*
X128982Y142758D01*
X137672Y151449D01*
X190152Y151449D01*
X190156Y151450D01*
X190160Y151449D01*
X190254Y151469D01*
X190347Y151488D01*
X190350Y151491D01*
X190354Y151492D01*
X190433Y151547D01*
X190511Y151601D01*
X190513Y151604D01*
X190516Y151607D01*
X190567Y151689D01*
X190618Y151768D01*
X190618Y151773D01*
X190621Y151776D01*
X190635Y151870D01*
X190651Y151965D01*
X190650Y151969D01*
X190650Y151973D01*
X190627Y152065D01*
X190605Y152158D01*
X190602Y152161D01*
X190601Y152165D01*
X190505Y152301D01*
X189755Y153051D01*
X189744Y153058D01*
X189737Y153068D01*
X189662Y153113D01*
X189589Y153161D01*
X189577Y153163D01*
X189566Y153170D01*
X189402Y153197D01*
X179806Y153197D01*
X179794Y153195D01*
X179782Y153197D01*
X179697Y153175D01*
X179612Y153158D01*
X179601Y153151D01*
X179589Y153147D01*
X179453Y153051D01*
X179385Y152983D01*
X148067Y152983D01*
X143607Y157443D01*
X143602Y157447D01*
X143592Y157456D01*
X143589Y157460D01*
X143587Y157462D01*
X131811Y169237D01*
X131801Y169244D01*
X131793Y169254D01*
X131718Y169299D01*
X131645Y169347D01*
X131633Y169349D01*
X131622Y169356D01*
X131458Y169383D01*
X127627Y169383D01*
X127615Y169381D01*
X127602Y169383D01*
X127518Y169361D01*
X127432Y169344D01*
X127422Y169337D01*
X127410Y169333D01*
X127274Y169237D01*
X124900Y166863D01*
X121129Y166863D01*
X118462Y169530D01*
X118462Y173302D01*
X121129Y175969D01*
X124900Y175969D01*
X127274Y173595D01*
X127285Y173588D01*
X127292Y173578D01*
X127367Y173533D01*
X127440Y173485D01*
X127452Y173483D01*
X127463Y173476D01*
X127627Y173449D01*
X130368Y173449D01*
X130372Y173450D01*
X130376Y173449D01*
X130469Y173469D01*
X130563Y173488D01*
X130566Y173491D01*
X130570Y173491D01*
X130648Y173547D01*
X130727Y173601D01*
X130729Y173604D01*
X130732Y173606D01*
X130782Y173688D01*
X130834Y173768D01*
X130834Y173772D01*
X130836Y173776D01*
X130851Y173870D01*
X130867Y173965D01*
X130866Y173968D01*
X130867Y173972D01*
X130843Y174065D01*
X130821Y174158D01*
X130819Y174161D01*
X130818Y174165D01*
X130721Y174301D01*
X117893Y187160D01*
X117889Y187163D01*
X117887Y187167D01*
X117808Y187217D01*
X117728Y187270D01*
X117723Y187271D01*
X117719Y187274D01*
X117690Y187279D01*
X117676Y187335D01*
X117674Y187338D01*
X117673Y187342D01*
X117577Y187478D01*
X117090Y187966D01*
X116578Y188478D01*
X116570Y188483D01*
X116566Y188489D01*
X116563Y188491D01*
X116560Y188495D01*
X116485Y188539D01*
X116412Y188588D01*
X116400Y188590D01*
X116389Y188596D01*
X116225Y188624D01*
X109999Y188624D01*
X109999Y195166D01*
X114834Y195166D01*
X115481Y194992D01*
X115733Y194847D01*
X115770Y194834D01*
X115803Y194813D01*
X115863Y194803D01*
X115921Y194784D01*
X115960Y194787D01*
X115999Y194780D01*
X116059Y194794D01*
X116120Y194799D01*
X116154Y194817D01*
X116192Y194826D01*
X116242Y194863D01*
X116296Y194891D01*
X116321Y194921D01*
X116353Y194944D01*
X116384Y194997D01*
X116423Y195044D01*
X116434Y195082D01*
X116454Y195115D01*
X116467Y195192D01*
X116480Y195235D01*
X116477Y195254D01*
X116482Y195279D01*
X116482Y196220D01*
X116480Y196228D01*
X116481Y196237D01*
X116460Y196325D01*
X116442Y196415D01*
X116437Y196422D01*
X116435Y196430D01*
X116381Y196503D01*
X116330Y196579D01*
X116322Y196583D01*
X116317Y196590D01*
X116239Y196637D01*
X116162Y196686D01*
X116154Y196687D01*
X116146Y196692D01*
X115982Y196719D01*
X115929Y196719D01*
X115809Y196840D01*
X115802Y196845D01*
X115797Y196851D01*
X115719Y196899D01*
X115643Y196950D01*
X115635Y196951D01*
X115628Y196956D01*
X115538Y196969D01*
X115448Y196986D01*
X115439Y196984D01*
X115431Y196986D01*
X115343Y196963D01*
X115253Y196943D01*
X115247Y196938D01*
X115238Y196936D01*
X115103Y196840D01*
X114982Y196719D01*
X110929Y196719D01*
X110809Y196840D01*
X110802Y196845D01*
X110797Y196851D01*
X110719Y196899D01*
X110643Y196950D01*
X110635Y196951D01*
X110628Y196956D01*
X110538Y196969D01*
X110448Y196986D01*
X110439Y196984D01*
X110431Y196986D01*
X110343Y196963D01*
X110253Y196943D01*
X110247Y196938D01*
X110238Y196936D01*
X110103Y196840D01*
X109982Y196719D01*
X106944Y196719D01*
X106868Y196704D01*
X106791Y196695D01*
X106772Y196684D01*
X106749Y196680D01*
X106685Y196636D01*
X106618Y196598D01*
X106602Y196578D01*
X106585Y196567D01*
X106561Y196529D01*
X106512Y196470D01*
X106489Y196430D01*
X106077Y196018D01*
X106075Y196014D01*
X106071Y196012D01*
X106020Y195932D01*
X105967Y195852D01*
X105966Y195848D01*
X105964Y195844D01*
X105948Y195751D01*
X105931Y195657D01*
X105932Y195652D01*
X105931Y195648D01*
X105953Y195556D01*
X105973Y195462D01*
X105976Y195459D01*
X105977Y195455D01*
X106033Y195379D01*
X106089Y195300D01*
X106092Y195298D01*
X106095Y195295D01*
X106176Y195247D01*
X106258Y195196D01*
X106262Y195195D01*
X106266Y195193D01*
X106430Y195166D01*
X108001Y195166D01*
X108001Y188624D01*
X100959Y188624D01*
X100959Y192504D01*
X100958Y192508D01*
X100959Y192512D01*
X100938Y192606D01*
X100920Y192699D01*
X100917Y192702D01*
X100916Y192707D01*
X100861Y192784D01*
X100807Y192863D01*
X100803Y192865D01*
X100801Y192869D01*
X100720Y192919D01*
X100639Y192970D01*
X100635Y192971D01*
X100632Y192973D01*
X100538Y192987D01*
X100443Y193003D01*
X100439Y193002D01*
X100435Y193003D01*
X100343Y192979D01*
X100250Y192957D01*
X100247Y192955D01*
X100242Y192954D01*
X100107Y192857D01*
X98917Y191667D01*
X98910Y191657D01*
X98900Y191649D01*
X98855Y191574D01*
X98807Y191501D01*
X98805Y191489D01*
X98798Y191478D01*
X98771Y191314D01*
X98771Y187241D01*
X98773Y187229D01*
X98771Y187217D01*
X98793Y187132D01*
X98810Y187046D01*
X98817Y187036D01*
X98820Y187024D01*
X98917Y186888D01*
X100107Y185698D01*
X100110Y185696D01*
X100113Y185692D01*
X100192Y185642D01*
X100273Y185588D01*
X100277Y185588D01*
X100280Y185585D01*
X100374Y185570D01*
X100468Y185552D01*
X100472Y185553D01*
X100476Y185552D01*
X100568Y185574D01*
X100662Y185595D01*
X100666Y185597D01*
X100670Y185598D01*
X100746Y185654D01*
X100824Y185710D01*
X100827Y185714D01*
X100830Y185716D01*
X100878Y185798D01*
X100929Y185879D01*
X100929Y185884D01*
X100931Y185887D01*
X100959Y186051D01*
X100959Y186626D01*
X108001Y186626D01*
X108001Y180084D01*
X106926Y180084D01*
X106922Y180083D01*
X106918Y180084D01*
X106825Y180064D01*
X106731Y180045D01*
X106728Y180042D01*
X106724Y180041D01*
X106646Y179986D01*
X106567Y179932D01*
X106565Y179928D01*
X106562Y179926D01*
X106512Y179845D01*
X106460Y179764D01*
X106460Y179760D01*
X106458Y179757D01*
X106443Y179663D01*
X106427Y179568D01*
X106428Y179564D01*
X106428Y179560D01*
X106451Y179467D01*
X106473Y179375D01*
X106476Y179372D01*
X106477Y179367D01*
X106573Y179232D01*
X106853Y178952D01*
X106864Y178945D01*
X106871Y178935D01*
X106946Y178890D01*
X107019Y178842D01*
X107031Y178840D01*
X107042Y178833D01*
X107206Y178806D01*
X114637Y178806D01*
X115381Y178061D01*
X115381Y170631D01*
X115382Y170629D01*
X115382Y170626D01*
X115384Y170618D01*
X115382Y170606D01*
X115404Y170521D01*
X115421Y170436D01*
X115428Y170425D01*
X115431Y170413D01*
X115528Y170278D01*
X118047Y167758D01*
X118047Y141279D01*
X118048Y141274D01*
X118047Y141270D01*
X118068Y141177D01*
X118087Y141084D01*
X118089Y141080D01*
X118090Y141076D01*
X118145Y140998D01*
X118199Y140920D01*
X118203Y140917D01*
X118205Y140914D01*
X118286Y140864D01*
X118367Y140813D01*
X118371Y140812D01*
X118375Y140810D01*
X118469Y140795D01*
X118563Y140780D01*
X118567Y140781D01*
X118571Y140780D01*
X118664Y140804D01*
X118756Y140826D01*
X118760Y140828D01*
X118764Y140829D01*
X118899Y140926D01*
X119943Y141969D01*
X123714Y141969D01*
X126381Y139302D01*
X126381Y135530D01*
X124931Y134080D01*
X124926Y134073D01*
X124920Y134068D01*
X124872Y133991D01*
X124821Y133914D01*
X124820Y133906D01*
X124815Y133899D01*
X124802Y133809D01*
X124785Y133719D01*
X124787Y133711D01*
X124785Y133702D01*
X124808Y133614D01*
X124828Y133525D01*
X124833Y133518D01*
X124835Y133510D01*
X124931Y133374D01*
X133871Y124434D01*
X133882Y124427D01*
X133889Y124417D01*
X133964Y124372D01*
X134037Y124324D01*
X134049Y124322D01*
X134060Y124315D01*
X134224Y124288D01*
X134563Y124288D01*
X134567Y124289D01*
G37*
G36*
X206414Y178951D02*
X206414Y178951D01*
X206427Y178949D01*
X206511Y178971D01*
X206597Y178988D01*
X206607Y178995D01*
X206619Y178999D01*
X206755Y179095D01*
X209223Y181563D01*
X209228Y181570D01*
X209234Y181575D01*
X209282Y181652D01*
X209333Y181729D01*
X209334Y181737D01*
X209339Y181744D01*
X209352Y181834D01*
X209369Y181924D01*
X209367Y181933D01*
X209368Y181941D01*
X209346Y182029D01*
X209326Y182118D01*
X209321Y182125D01*
X209319Y182133D01*
X209223Y182269D01*
X206755Y184737D01*
X206744Y184744D01*
X206737Y184754D01*
X206662Y184799D01*
X206589Y184847D01*
X206577Y184849D01*
X206566Y184856D01*
X206402Y184883D01*
X182672Y184883D01*
X171482Y196074D01*
X171482Y198367D01*
X171479Y198380D01*
X171481Y198392D01*
X171460Y198476D01*
X171442Y198562D01*
X171435Y198572D01*
X171432Y198585D01*
X171335Y198720D01*
X161579Y208477D01*
X161575Y208479D01*
X161573Y208483D01*
X161493Y208534D01*
X161413Y208587D01*
X161409Y208587D01*
X161405Y208590D01*
X161312Y208605D01*
X161218Y208623D01*
X161213Y208622D01*
X161209Y208623D01*
X161117Y208601D01*
X161023Y208580D01*
X161020Y208578D01*
X161016Y208577D01*
X160940Y208521D01*
X160861Y208465D01*
X160859Y208461D01*
X160856Y208459D01*
X160807Y208377D01*
X160757Y208296D01*
X160756Y208291D01*
X160754Y208288D01*
X160727Y208124D01*
X160727Y197464D01*
X159982Y196719D01*
X155929Y196719D01*
X155809Y196840D01*
X155802Y196845D01*
X155797Y196851D01*
X155719Y196899D01*
X155643Y196950D01*
X155635Y196951D01*
X155628Y196956D01*
X155538Y196969D01*
X155448Y196986D01*
X155439Y196984D01*
X155431Y196986D01*
X155343Y196963D01*
X155253Y196943D01*
X155247Y196938D01*
X155238Y196936D01*
X155103Y196840D01*
X154982Y196719D01*
X150929Y196719D01*
X150809Y196840D01*
X150802Y196845D01*
X150797Y196851D01*
X150719Y196899D01*
X150643Y196950D01*
X150635Y196951D01*
X150628Y196956D01*
X150538Y196969D01*
X150448Y196986D01*
X150439Y196984D01*
X150431Y196986D01*
X150343Y196963D01*
X150253Y196943D01*
X150247Y196938D01*
X150238Y196936D01*
X150103Y196840D01*
X149982Y196719D01*
X145929Y196719D01*
X145809Y196840D01*
X145802Y196845D01*
X145797Y196851D01*
X145719Y196899D01*
X145643Y196950D01*
X145635Y196951D01*
X145628Y196956D01*
X145538Y196969D01*
X145448Y196986D01*
X145439Y196984D01*
X145431Y196986D01*
X145343Y196963D01*
X145253Y196943D01*
X145247Y196938D01*
X145238Y196936D01*
X145103Y196840D01*
X144982Y196719D01*
X140929Y196719D01*
X140809Y196840D01*
X140802Y196845D01*
X140797Y196851D01*
X140719Y196899D01*
X140643Y196950D01*
X140635Y196951D01*
X140628Y196956D01*
X140538Y196969D01*
X140448Y196986D01*
X140439Y196984D01*
X140431Y196986D01*
X140343Y196963D01*
X140253Y196943D01*
X140247Y196938D01*
X140238Y196936D01*
X140103Y196840D01*
X139982Y196719D01*
X137791Y196719D01*
X137787Y196718D01*
X137783Y196719D01*
X137690Y196699D01*
X137596Y196680D01*
X137593Y196677D01*
X137589Y196676D01*
X137511Y196621D01*
X137432Y196567D01*
X137430Y196564D01*
X137427Y196561D01*
X137377Y196480D01*
X137325Y196400D01*
X137325Y196395D01*
X137322Y196392D01*
X137308Y196298D01*
X137292Y196204D01*
X137293Y196199D01*
X137292Y196195D01*
X137316Y196102D01*
X137338Y196010D01*
X137341Y196007D01*
X137342Y196003D01*
X137438Y195867D01*
X154210Y179095D01*
X154221Y179088D01*
X154228Y179078D01*
X154303Y179033D01*
X154376Y178985D01*
X154388Y178983D01*
X154399Y178976D01*
X154563Y178949D01*
X206402Y178949D01*
X206414Y178951D01*
G37*
G36*
X180698Y200327D02*
X180698Y200327D01*
X180702Y200326D01*
X180794Y200348D01*
X180888Y200369D01*
X180892Y200371D01*
X180896Y200372D01*
X180972Y200428D01*
X181050Y200484D01*
X181053Y200488D01*
X181056Y200490D01*
X181104Y200572D01*
X181155Y200653D01*
X181155Y200658D01*
X181157Y200661D01*
X181185Y200825D01*
X181185Y211016D01*
X181929Y211761D01*
X185982Y211761D01*
X186103Y211640D01*
X186110Y211636D01*
X186115Y211629D01*
X186192Y211581D01*
X186269Y211530D01*
X186277Y211529D01*
X186284Y211524D01*
X186374Y211511D01*
X186464Y211494D01*
X186472Y211496D01*
X186481Y211495D01*
X186569Y211517D01*
X186658Y211537D01*
X186665Y211542D01*
X186673Y211544D01*
X186809Y211640D01*
X186929Y211761D01*
X190982Y211761D01*
X191103Y211640D01*
X191110Y211636D01*
X191115Y211629D01*
X191192Y211581D01*
X191269Y211530D01*
X191277Y211529D01*
X191284Y211524D01*
X191374Y211511D01*
X191464Y211494D01*
X191472Y211496D01*
X191481Y211495D01*
X191569Y211517D01*
X191658Y211537D01*
X191665Y211542D01*
X191673Y211544D01*
X191809Y211640D01*
X191929Y211761D01*
X195982Y211761D01*
X196103Y211640D01*
X196110Y211636D01*
X196115Y211629D01*
X196192Y211581D01*
X196269Y211530D01*
X196277Y211529D01*
X196284Y211524D01*
X196374Y211511D01*
X196464Y211494D01*
X196472Y211496D01*
X196481Y211495D01*
X196569Y211517D01*
X196658Y211537D01*
X196665Y211542D01*
X196673Y211544D01*
X196809Y211640D01*
X196929Y211761D01*
X200982Y211761D01*
X201103Y211640D01*
X201110Y211636D01*
X201115Y211629D01*
X201192Y211581D01*
X201269Y211530D01*
X201277Y211529D01*
X201284Y211524D01*
X201374Y211511D01*
X201464Y211494D01*
X201472Y211496D01*
X201481Y211495D01*
X201569Y211517D01*
X201658Y211537D01*
X201665Y211542D01*
X201673Y211544D01*
X201809Y211640D01*
X201929Y211761D01*
X205982Y211761D01*
X206103Y211640D01*
X206110Y211636D01*
X206115Y211629D01*
X206192Y211581D01*
X206269Y211530D01*
X206277Y211529D01*
X206284Y211524D01*
X206374Y211511D01*
X206464Y211494D01*
X206472Y211496D01*
X206481Y211495D01*
X206569Y211517D01*
X206658Y211537D01*
X206665Y211542D01*
X206673Y211544D01*
X206809Y211640D01*
X206929Y211761D01*
X209590Y211761D01*
X209594Y211762D01*
X209598Y211761D01*
X209691Y211781D01*
X209785Y211800D01*
X209788Y211803D01*
X209792Y211804D01*
X209870Y211859D01*
X209948Y211913D01*
X209951Y211916D01*
X209954Y211919D01*
X210004Y212000D01*
X210055Y212080D01*
X210056Y212085D01*
X210058Y212088D01*
X210073Y212182D01*
X210089Y212277D01*
X210088Y212281D01*
X210088Y212285D01*
X210065Y212377D01*
X210043Y212470D01*
X210040Y212473D01*
X210039Y212477D01*
X209943Y212613D01*
X200319Y222237D01*
X200308Y222244D01*
X200301Y222254D01*
X200226Y222299D01*
X200153Y222347D01*
X200140Y222349D01*
X200130Y222356D01*
X199966Y222383D01*
X159627Y222383D01*
X159623Y222382D01*
X159619Y222383D01*
X159526Y222363D01*
X159432Y222344D01*
X159429Y222341D01*
X159425Y222340D01*
X159347Y222285D01*
X159268Y222231D01*
X159266Y222228D01*
X159263Y222225D01*
X159213Y222144D01*
X159161Y222064D01*
X159161Y222059D01*
X159158Y222056D01*
X159144Y221962D01*
X159128Y221867D01*
X159129Y221863D01*
X159129Y221859D01*
X159152Y221767D01*
X159174Y221674D01*
X159177Y221671D01*
X159178Y221667D01*
X159274Y221531D01*
X179210Y201595D01*
X180333Y200472D01*
X180336Y200470D01*
X180339Y200466D01*
X180418Y200416D01*
X180499Y200362D01*
X180503Y200362D01*
X180506Y200359D01*
X180600Y200344D01*
X180694Y200326D01*
X180698Y200327D01*
G37*
G36*
X306971Y38435D02*
X306971Y38435D01*
X306975Y38434D01*
X307067Y38458D01*
X307160Y38480D01*
X307164Y38482D01*
X307168Y38483D01*
X307303Y38579D01*
X311835Y43111D01*
X311842Y43122D01*
X311852Y43130D01*
X311897Y43204D01*
X311945Y43277D01*
X311947Y43290D01*
X311954Y43301D01*
X311981Y43465D01*
X311968Y91751D01*
X311965Y91763D01*
X311967Y91776D01*
X311945Y91860D01*
X311928Y91946D01*
X311921Y91956D01*
X311918Y91968D01*
X311821Y92104D01*
X308946Y94979D01*
X308942Y94998D01*
X308935Y95009D01*
X308932Y95021D01*
X308835Y95156D01*
X306462Y97530D01*
X306462Y99536D01*
X306461Y99540D01*
X306462Y99544D01*
X306441Y99637D01*
X306422Y99731D01*
X306420Y99735D01*
X306419Y99739D01*
X306364Y99816D01*
X306310Y99895D01*
X306306Y99897D01*
X306304Y99901D01*
X306223Y99950D01*
X306142Y100002D01*
X306138Y100003D01*
X306134Y100005D01*
X306040Y100019D01*
X305946Y100035D01*
X305942Y100034D01*
X305938Y100035D01*
X305845Y100011D01*
X305752Y99989D01*
X305749Y99987D01*
X305745Y99986D01*
X305609Y99889D01*
X305327Y99607D01*
X305323Y99601D01*
X305321Y99600D01*
X305318Y99595D01*
X305310Y99589D01*
X305266Y99514D01*
X305217Y99441D01*
X305216Y99435D01*
X305214Y99432D01*
X305213Y99426D01*
X305209Y99418D01*
X305181Y99254D01*
X305181Y87659D01*
X305183Y87647D01*
X305182Y87634D01*
X305203Y87550D01*
X305221Y87464D01*
X305228Y87454D01*
X305231Y87442D01*
X305327Y87306D01*
X305580Y87054D01*
X307495Y82430D01*
X307495Y77425D01*
X305580Y72801D01*
X302420Y69641D01*
X302415Y69634D01*
X302408Y69629D01*
X302360Y69552D01*
X302310Y69475D01*
X302308Y69467D01*
X302304Y69460D01*
X302290Y69370D01*
X302273Y69280D01*
X302275Y69272D01*
X302274Y69263D01*
X302296Y69175D01*
X302316Y69086D01*
X302321Y69079D01*
X302323Y69071D01*
X302420Y68935D01*
X305580Y65775D01*
X307495Y61151D01*
X307495Y56146D01*
X306489Y53718D01*
X306486Y53703D01*
X306479Y53691D01*
X306451Y53527D01*
X306451Y47236D01*
X300335Y47236D01*
X300321Y47233D01*
X300306Y47235D01*
X300144Y47198D01*
X297730Y46198D01*
X297728Y46197D01*
X297726Y46196D01*
X297647Y46141D01*
X297565Y46087D01*
X297564Y46085D01*
X297562Y46084D01*
X297510Y46002D01*
X297457Y45920D01*
X297456Y45918D01*
X297455Y45916D01*
X297439Y45821D01*
X297422Y45724D01*
X297423Y45722D01*
X297422Y45720D01*
X297444Y45627D01*
X297467Y45530D01*
X297468Y45529D01*
X297468Y45527D01*
X297525Y45450D01*
X297583Y45369D01*
X297585Y45368D01*
X297586Y45366D01*
X297670Y45317D01*
X297753Y45266D01*
X297755Y45266D01*
X297757Y45265D01*
X297921Y45237D01*
X306451Y45237D01*
X306451Y38933D01*
X306452Y38928D01*
X306451Y38924D01*
X306472Y38831D01*
X306491Y38738D01*
X306493Y38734D01*
X306494Y38730D01*
X306549Y38652D01*
X306603Y38574D01*
X306607Y38571D01*
X306609Y38568D01*
X306690Y38518D01*
X306771Y38467D01*
X306775Y38466D01*
X306778Y38464D01*
X306873Y38449D01*
X306967Y38434D01*
X306971Y38435D01*
G37*
%LPC*%
G36*
X19871Y87845D02*
X19871Y87845D01*
X16097Y89409D01*
X13207Y92298D01*
X11644Y96073D01*
X11644Y100159D01*
X13207Y103934D01*
X16097Y106823D01*
X19871Y108387D01*
X23957Y108387D01*
X27732Y106823D01*
X30622Y103934D01*
X32185Y100159D01*
X32185Y96073D01*
X30622Y92298D01*
X27732Y89409D01*
X23957Y87845D01*
X19871Y87845D01*
G37*
%LPD*%
%LPC*%
G36*
X19871Y115045D02*
X19871Y115045D01*
X16097Y116609D01*
X13207Y119498D01*
X11644Y123273D01*
X11644Y127359D01*
X13207Y131134D01*
X16097Y134023D01*
X19871Y135587D01*
X23957Y135587D01*
X27732Y134023D01*
X30622Y131134D01*
X32185Y127359D01*
X32185Y123273D01*
X30622Y119498D01*
X27732Y116609D01*
X23957Y115045D01*
X19871Y115045D01*
G37*
%LPD*%
%LPC*%
G36*
X25916Y65975D02*
X25916Y65975D01*
X22649Y67329D01*
X20148Y69830D01*
X18794Y73097D01*
X18794Y76634D01*
X20148Y79902D01*
X22649Y82403D01*
X25916Y83756D01*
X29453Y83756D01*
X32721Y82403D01*
X35222Y79902D01*
X36575Y76634D01*
X36575Y73097D01*
X35222Y69830D01*
X32721Y67329D01*
X29453Y65975D01*
X25916Y65975D01*
G37*
%LPD*%
%LPC*%
G36*
X175758Y42569D02*
X175758Y42569D01*
X173091Y45236D01*
X173091Y49008D01*
X175465Y51381D01*
X175472Y51392D01*
X175482Y51399D01*
X175526Y51474D01*
X175574Y51547D01*
X175577Y51560D01*
X175583Y51570D01*
X175611Y51734D01*
X175611Y53770D01*
X175608Y53783D01*
X175610Y53795D01*
X175589Y53880D01*
X175571Y53965D01*
X175564Y53976D01*
X175561Y53988D01*
X175465Y54123D01*
X174392Y55196D01*
X174382Y55203D01*
X174375Y55213D01*
X174300Y55257D01*
X174227Y55305D01*
X174214Y55308D01*
X174203Y55314D01*
X174039Y55342D01*
X170601Y55342D01*
X170593Y55340D01*
X170585Y55342D01*
X170496Y55320D01*
X170407Y55302D01*
X170400Y55297D01*
X170392Y55295D01*
X170318Y55242D01*
X170243Y55190D01*
X170238Y55183D01*
X170231Y55178D01*
X170185Y55099D01*
X170136Y55022D01*
X170134Y55014D01*
X170130Y55007D01*
X170102Y54843D01*
X170102Y53038D01*
X169358Y52294D01*
X163192Y52294D01*
X163116Y52278D01*
X163039Y52270D01*
X163019Y52259D01*
X162997Y52254D01*
X162933Y52210D01*
X162866Y52172D01*
X162849Y52153D01*
X162833Y52142D01*
X162809Y52104D01*
X162760Y52044D01*
X162737Y52005D01*
X162264Y51531D01*
X161684Y51197D01*
X161038Y51024D01*
X158528Y51024D01*
X158528Y56874D01*
X158526Y56883D01*
X158527Y56891D01*
X158506Y56979D01*
X158488Y57069D01*
X158483Y57076D01*
X158481Y57084D01*
X158427Y57158D01*
X158376Y57233D01*
X158368Y57238D01*
X158363Y57245D01*
X158285Y57291D01*
X158208Y57340D01*
X158200Y57342D01*
X158192Y57346D01*
X158028Y57374D01*
X157528Y57374D01*
X157528Y57375D01*
X158028Y57375D01*
X158037Y57377D01*
X158045Y57376D01*
X158133Y57397D01*
X158223Y57415D01*
X158230Y57420D01*
X158238Y57422D01*
X158312Y57476D01*
X158387Y57528D01*
X158392Y57535D01*
X158399Y57540D01*
X158445Y57618D01*
X158494Y57695D01*
X158496Y57703D01*
X158500Y57711D01*
X158528Y57875D01*
X158528Y63725D01*
X161038Y63725D01*
X161684Y63552D01*
X162264Y63218D01*
X162737Y62745D01*
X162760Y62705D01*
X162811Y62647D01*
X162857Y62584D01*
X162876Y62573D01*
X162891Y62556D01*
X162961Y62522D01*
X163028Y62483D01*
X163053Y62479D01*
X163071Y62470D01*
X163115Y62468D01*
X163192Y62455D01*
X169358Y62455D01*
X170102Y61711D01*
X170102Y59907D01*
X170104Y59898D01*
X170103Y59890D01*
X170124Y59802D01*
X170142Y59712D01*
X170147Y59705D01*
X170149Y59697D01*
X170202Y59623D01*
X170254Y59548D01*
X170261Y59543D01*
X170266Y59536D01*
X170345Y59490D01*
X170422Y59441D01*
X170430Y59439D01*
X170437Y59435D01*
X170601Y59407D01*
X175930Y59407D01*
X179676Y55661D01*
X179676Y51734D01*
X179679Y51722D01*
X179677Y51710D01*
X179698Y51625D01*
X179716Y51540D01*
X179723Y51529D01*
X179726Y51517D01*
X179823Y51381D01*
X182196Y49008D01*
X182196Y45236D01*
X179529Y42569D01*
X175758Y42569D01*
G37*
%LPD*%
%LPC*%
G36*
X132051Y51024D02*
X132051Y51024D01*
X131405Y51197D01*
X130825Y51531D01*
X130352Y52005D01*
X130329Y52044D01*
X130278Y52102D01*
X130232Y52165D01*
X130213Y52176D01*
X130198Y52193D01*
X130128Y52227D01*
X130061Y52266D01*
X130036Y52270D01*
X130018Y52279D01*
X129974Y52281D01*
X129897Y52294D01*
X123731Y52294D01*
X122987Y53038D01*
X122987Y61711D01*
X123731Y62455D01*
X124966Y62455D01*
X124974Y62457D01*
X124982Y62456D01*
X125071Y62477D01*
X125161Y62495D01*
X125168Y62500D01*
X125176Y62502D01*
X125249Y62556D01*
X125325Y62607D01*
X125329Y62614D01*
X125336Y62619D01*
X125382Y62698D01*
X125432Y62775D01*
X125433Y62783D01*
X125437Y62790D01*
X125465Y62955D01*
X125465Y66268D01*
X125463Y66281D01*
X125464Y66293D01*
X125443Y66377D01*
X125425Y66463D01*
X125418Y66473D01*
X125415Y66486D01*
X125319Y66621D01*
X124883Y67057D01*
X124873Y67064D01*
X124865Y67074D01*
X124790Y67118D01*
X124717Y67167D01*
X124705Y67169D01*
X124694Y67175D01*
X124530Y67203D01*
X122159Y67203D01*
X122146Y67201D01*
X122134Y67203D01*
X122050Y67181D01*
X121964Y67164D01*
X121953Y67156D01*
X121941Y67153D01*
X121806Y67057D01*
X119432Y64683D01*
X115660Y64683D01*
X112993Y67350D01*
X112993Y71122D01*
X115660Y73789D01*
X119432Y73789D01*
X121806Y71415D01*
X121816Y71408D01*
X121824Y71398D01*
X121898Y71353D01*
X121971Y71305D01*
X121984Y71303D01*
X121995Y71296D01*
X122159Y71269D01*
X126421Y71269D01*
X129531Y68159D01*
X129531Y63128D01*
X129531Y63124D01*
X129531Y63120D01*
X129551Y63027D01*
X129570Y62933D01*
X129573Y62930D01*
X129573Y62926D01*
X129629Y62848D01*
X129683Y62769D01*
X129686Y62767D01*
X129689Y62763D01*
X129770Y62713D01*
X129850Y62662D01*
X129854Y62661D01*
X129858Y62659D01*
X129952Y62645D01*
X130046Y62629D01*
X130050Y62630D01*
X130055Y62629D01*
X130147Y62653D01*
X130240Y62675D01*
X130243Y62678D01*
X130247Y62679D01*
X130383Y62775D01*
X130825Y63218D01*
X131405Y63552D01*
X132051Y63725D01*
X134561Y63725D01*
X134561Y57875D01*
X134563Y57866D01*
X134562Y57858D01*
X134583Y57770D01*
X134601Y57680D01*
X134606Y57673D01*
X134608Y57665D01*
X134662Y57591D01*
X134713Y57516D01*
X134721Y57511D01*
X134725Y57505D01*
X134804Y57458D01*
X134881Y57409D01*
X134889Y57407D01*
X134897Y57403D01*
X135061Y57375D01*
X135561Y57375D01*
X135561Y57374D01*
X135061Y57374D01*
X135052Y57372D01*
X135044Y57373D01*
X134956Y57352D01*
X134866Y57334D01*
X134859Y57329D01*
X134851Y57327D01*
X134777Y57273D01*
X134702Y57222D01*
X134697Y57214D01*
X134690Y57209D01*
X134644Y57131D01*
X134595Y57054D01*
X134593Y57046D01*
X134589Y57038D01*
X134561Y56874D01*
X134561Y51024D01*
X132051Y51024D01*
G37*
%LPD*%
G36*
X127342Y101450D02*
X127342Y101450D01*
X127346Y101449D01*
X127439Y101469D01*
X127533Y101488D01*
X127536Y101491D01*
X127540Y101492D01*
X127618Y101547D01*
X127697Y101601D01*
X127699Y101604D01*
X127702Y101607D01*
X127752Y101688D01*
X127804Y101768D01*
X127804Y101773D01*
X127807Y101776D01*
X127821Y101870D01*
X127837Y101965D01*
X127836Y101969D01*
X127836Y101973D01*
X127813Y102065D01*
X127791Y102158D01*
X127788Y102161D01*
X127787Y102165D01*
X127691Y102301D01*
X126462Y103530D01*
X126462Y107302D01*
X127573Y108414D01*
X127576Y108417D01*
X127579Y108419D01*
X127630Y108498D01*
X127683Y108579D01*
X127684Y108584D01*
X127686Y108587D01*
X127702Y108680D01*
X127720Y108775D01*
X127719Y108779D01*
X127719Y108783D01*
X127698Y108875D01*
X127677Y108969D01*
X127674Y108973D01*
X127673Y108977D01*
X127617Y109053D01*
X127562Y109131D01*
X127558Y109133D01*
X127556Y109137D01*
X127474Y109185D01*
X127392Y109235D01*
X127388Y109236D01*
X127384Y109238D01*
X127220Y109266D01*
X124166Y109266D01*
X121499Y111933D01*
X121499Y115704D01*
X124166Y118371D01*
X127938Y118371D01*
X128260Y118049D01*
X128303Y118020D01*
X128340Y117984D01*
X128385Y117966D01*
X128426Y117939D01*
X128477Y117930D01*
X128525Y117911D01*
X128574Y117912D01*
X128621Y117903D01*
X128672Y117914D01*
X128724Y117915D01*
X128777Y117937D01*
X128816Y117946D01*
X128840Y117963D01*
X128878Y117978D01*
X129693Y118487D01*
X129724Y118517D01*
X129781Y118558D01*
X130172Y118949D01*
X130289Y118949D01*
X130344Y118960D01*
X130400Y118961D01*
X130448Y118981D01*
X130484Y118988D01*
X130511Y119007D01*
X130553Y119024D01*
X130652Y119086D01*
X131191Y118962D01*
X131234Y118960D01*
X131304Y118949D01*
X135183Y118949D01*
X135195Y118951D01*
X135207Y118949D01*
X135292Y118971D01*
X135377Y118988D01*
X135388Y118995D01*
X135400Y118999D01*
X135536Y119095D01*
X135811Y119370D01*
X135812Y119373D01*
X135815Y119375D01*
X135816Y119375D01*
X135816Y119376D01*
X135868Y119456D01*
X135920Y119536D01*
X135921Y119540D01*
X135923Y119543D01*
X135939Y119637D01*
X135957Y119731D01*
X135956Y119735D01*
X135957Y119740D01*
X135935Y119832D01*
X135914Y119925D01*
X135911Y119929D01*
X135911Y119933D01*
X135854Y120009D01*
X135799Y120087D01*
X135795Y120090D01*
X135793Y120093D01*
X135711Y120141D01*
X135629Y120192D01*
X135625Y120192D01*
X135622Y120195D01*
X135458Y120222D01*
X132333Y120222D01*
X119796Y132760D01*
X119796Y132803D01*
X119793Y132816D01*
X119795Y132828D01*
X119774Y132912D01*
X119756Y132998D01*
X119749Y133009D01*
X119746Y133021D01*
X119649Y133156D01*
X118899Y133906D01*
X118896Y133909D01*
X118894Y133912D01*
X118814Y133963D01*
X118734Y134016D01*
X118729Y134017D01*
X118726Y134019D01*
X118633Y134035D01*
X118538Y134053D01*
X118534Y134052D01*
X118530Y134052D01*
X118438Y134031D01*
X118344Y134010D01*
X118340Y134007D01*
X118336Y134006D01*
X118260Y133950D01*
X118182Y133895D01*
X118180Y133891D01*
X118176Y133889D01*
X118128Y133807D01*
X118078Y133725D01*
X118077Y133721D01*
X118075Y133717D01*
X118047Y133553D01*
X118047Y105965D01*
X118050Y105952D01*
X118048Y105940D01*
X118069Y105856D01*
X118087Y105770D01*
X118094Y105760D01*
X118097Y105747D01*
X118193Y105612D01*
X122210Y101595D01*
X122221Y101588D01*
X122228Y101578D01*
X122303Y101533D01*
X122376Y101485D01*
X122388Y101483D01*
X122399Y101476D01*
X122563Y101449D01*
X127338Y101449D01*
X127342Y101450D01*
G37*
G36*
X103214Y203993D02*
X103214Y203993D01*
X103222Y203991D01*
X103311Y204012D01*
X103401Y204031D01*
X103408Y204035D01*
X103416Y204037D01*
X103489Y204091D01*
X103565Y204143D01*
X103569Y204150D01*
X103576Y204155D01*
X103622Y204233D01*
X103672Y204311D01*
X103673Y204319D01*
X103677Y204326D01*
X103705Y204490D01*
X103705Y213031D01*
X104790Y213031D01*
X105437Y212858D01*
X106016Y212523D01*
X106489Y212050D01*
X106512Y212010D01*
X106563Y211952D01*
X106609Y211890D01*
X106629Y211878D01*
X106644Y211861D01*
X106714Y211828D01*
X106780Y211788D01*
X106805Y211784D01*
X106823Y211776D01*
X106868Y211774D01*
X106944Y211761D01*
X109982Y211761D01*
X110103Y211640D01*
X110110Y211636D01*
X110115Y211629D01*
X110192Y211581D01*
X110269Y211530D01*
X110277Y211529D01*
X110284Y211524D01*
X110374Y211511D01*
X110464Y211494D01*
X110472Y211496D01*
X110481Y211495D01*
X110569Y211517D01*
X110658Y211537D01*
X110665Y211542D01*
X110673Y211544D01*
X110809Y211640D01*
X110929Y211761D01*
X114982Y211761D01*
X115103Y211640D01*
X115110Y211636D01*
X115115Y211629D01*
X115192Y211581D01*
X115269Y211530D01*
X115277Y211529D01*
X115284Y211524D01*
X115374Y211511D01*
X115464Y211494D01*
X115472Y211496D01*
X115481Y211495D01*
X115569Y211517D01*
X115658Y211537D01*
X115665Y211542D01*
X115673Y211544D01*
X115809Y211640D01*
X115929Y211761D01*
X119982Y211761D01*
X120103Y211640D01*
X120110Y211636D01*
X120115Y211629D01*
X120192Y211581D01*
X120269Y211530D01*
X120277Y211529D01*
X120284Y211524D01*
X120374Y211511D01*
X120464Y211494D01*
X120472Y211496D01*
X120481Y211495D01*
X120569Y211517D01*
X120658Y211537D01*
X120665Y211542D01*
X120673Y211544D01*
X120809Y211640D01*
X120929Y211761D01*
X120982Y211761D01*
X120991Y211762D01*
X120999Y211761D01*
X121087Y211782D01*
X121177Y211800D01*
X121184Y211805D01*
X121192Y211807D01*
X121266Y211861D01*
X121341Y211913D01*
X121346Y211920D01*
X121353Y211925D01*
X121399Y212003D01*
X121448Y212080D01*
X121450Y212089D01*
X121454Y212096D01*
X121482Y212260D01*
X121482Y212758D01*
X123835Y215112D01*
X125255Y216531D01*
X125257Y216535D01*
X125260Y216537D01*
X125311Y216616D01*
X125364Y216697D01*
X125365Y216701D01*
X125368Y216704D01*
X125383Y216798D01*
X125401Y216892D01*
X125400Y216896D01*
X125401Y216901D01*
X125379Y216992D01*
X125358Y217086D01*
X125356Y217090D01*
X125355Y217094D01*
X125299Y217170D01*
X125243Y217249D01*
X125239Y217251D01*
X125237Y217254D01*
X125155Y217303D01*
X125073Y217353D01*
X125069Y217353D01*
X125066Y217356D01*
X124902Y217383D01*
X87063Y217383D01*
X87051Y217381D01*
X87038Y217383D01*
X86954Y217361D01*
X86868Y217344D01*
X86858Y217337D01*
X86846Y217333D01*
X86710Y217237D01*
X82086Y212613D01*
X82084Y212609D01*
X82080Y212607D01*
X82029Y212527D01*
X81976Y212447D01*
X81976Y212443D01*
X81973Y212440D01*
X81958Y212346D01*
X81940Y212252D01*
X81941Y212248D01*
X81940Y212243D01*
X81962Y212152D01*
X81983Y212058D01*
X81985Y212054D01*
X81986Y212050D01*
X82042Y211974D01*
X82098Y211896D01*
X82102Y211893D01*
X82104Y211890D01*
X82186Y211841D01*
X82267Y211791D01*
X82272Y211791D01*
X82275Y211788D01*
X82439Y211761D01*
X84982Y211761D01*
X85103Y211640D01*
X85110Y211636D01*
X85115Y211629D01*
X85192Y211581D01*
X85269Y211530D01*
X85277Y211529D01*
X85284Y211524D01*
X85374Y211511D01*
X85464Y211494D01*
X85472Y211496D01*
X85481Y211495D01*
X85569Y211517D01*
X85658Y211537D01*
X85665Y211542D01*
X85673Y211544D01*
X85809Y211640D01*
X85929Y211761D01*
X89982Y211761D01*
X90103Y211640D01*
X90110Y211636D01*
X90115Y211629D01*
X90192Y211581D01*
X90269Y211530D01*
X90277Y211529D01*
X90284Y211524D01*
X90374Y211511D01*
X90464Y211494D01*
X90472Y211496D01*
X90481Y211495D01*
X90569Y211517D01*
X90658Y211537D01*
X90665Y211542D01*
X90673Y211544D01*
X90809Y211640D01*
X90929Y211761D01*
X94982Y211761D01*
X95103Y211640D01*
X95110Y211636D01*
X95115Y211629D01*
X95192Y211581D01*
X95269Y211530D01*
X95277Y211529D01*
X95284Y211524D01*
X95374Y211511D01*
X95464Y211494D01*
X95472Y211496D01*
X95481Y211495D01*
X95569Y211517D01*
X95658Y211537D01*
X95665Y211542D01*
X95673Y211544D01*
X95809Y211640D01*
X95929Y211761D01*
X98967Y211761D01*
X99044Y211776D01*
X99120Y211785D01*
X99140Y211796D01*
X99162Y211800D01*
X99226Y211844D01*
X99294Y211882D01*
X99310Y211902D01*
X99326Y211913D01*
X99350Y211951D01*
X99400Y212010D01*
X99423Y212050D01*
X99896Y212523D01*
X100475Y212858D01*
X101121Y213031D01*
X102207Y213031D01*
X102207Y204490D01*
X102208Y204482D01*
X102207Y204474D01*
X102228Y204385D01*
X102246Y204295D01*
X102251Y204288D01*
X102253Y204280D01*
X102307Y204207D01*
X102359Y204131D01*
X102366Y204127D01*
X102371Y204120D01*
X102449Y204074D01*
X102526Y204024D01*
X102535Y204023D01*
X102542Y204019D01*
X102706Y203991D01*
X103206Y203991D01*
X103214Y203993D01*
G37*
%LPC*%
G36*
X111188Y77010D02*
X111188Y77010D01*
X108700Y78041D01*
X106795Y79945D01*
X105764Y82434D01*
X105764Y85127D01*
X106795Y87616D01*
X108700Y89521D01*
X111188Y90551D01*
X113882Y90551D01*
X116370Y89521D01*
X118275Y87616D01*
X119306Y85127D01*
X119306Y82434D01*
X118275Y79945D01*
X116370Y78041D01*
X113882Y77010D01*
X111188Y77010D01*
G37*
%LPD*%
G36*
X239570Y178016D02*
X239570Y178016D01*
X239578Y178015D01*
X239666Y178038D01*
X239756Y178057D01*
X239763Y178062D01*
X239771Y178064D01*
X239907Y178161D01*
X242009Y180263D01*
X242349Y180603D01*
X242373Y180639D01*
X242404Y180669D01*
X242427Y180721D01*
X242459Y180769D01*
X242467Y180811D01*
X242484Y180851D01*
X242485Y180908D01*
X242495Y180964D01*
X242486Y181007D01*
X242486Y181050D01*
X242462Y181116D01*
X242452Y181159D01*
X242439Y181178D01*
X242428Y181206D01*
X242175Y181644D01*
X242002Y182290D01*
X242002Y186626D01*
X249044Y186626D01*
X249044Y182099D01*
X249045Y182091D01*
X249044Y182082D01*
X249065Y181994D01*
X249083Y181904D01*
X249088Y181897D01*
X249090Y181889D01*
X249144Y181816D01*
X249196Y181740D01*
X249203Y181736D01*
X249208Y181729D01*
X249286Y181682D01*
X249363Y181633D01*
X249372Y181632D01*
X249379Y181627D01*
X249543Y181600D01*
X250543Y181600D01*
X250551Y181601D01*
X250559Y181600D01*
X250648Y181621D01*
X250738Y181639D01*
X250745Y181644D01*
X250753Y181646D01*
X250826Y181700D01*
X250902Y181752D01*
X250906Y181759D01*
X250913Y181764D01*
X250959Y181842D01*
X251009Y181919D01*
X251010Y181928D01*
X251014Y181935D01*
X251042Y182099D01*
X251042Y186626D01*
X256424Y186626D01*
X256432Y186627D01*
X256440Y186626D01*
X256529Y186647D01*
X256619Y186665D01*
X256626Y186670D01*
X256634Y186672D01*
X256707Y186726D01*
X256783Y186778D01*
X256787Y186785D01*
X256794Y186790D01*
X256840Y186868D01*
X256890Y186945D01*
X256891Y186954D01*
X256895Y186961D01*
X256923Y187125D01*
X256923Y188125D01*
X256922Y188130D01*
X256923Y188136D01*
X256922Y188138D01*
X256923Y188141D01*
X256902Y188230D01*
X256884Y188320D01*
X256879Y188327D01*
X256877Y188335D01*
X256823Y188408D01*
X256771Y188484D01*
X256764Y188488D01*
X256759Y188495D01*
X256681Y188541D01*
X256603Y188591D01*
X256595Y188592D01*
X256588Y188596D01*
X256424Y188624D01*
X251042Y188624D01*
X251042Y195166D01*
X255877Y195166D01*
X256295Y195054D01*
X256368Y195049D01*
X256440Y195037D01*
X256466Y195043D01*
X256493Y195042D01*
X256563Y195066D01*
X256634Y195083D01*
X256655Y195099D01*
X256681Y195108D01*
X256735Y195157D01*
X256794Y195201D01*
X256808Y195224D01*
X256827Y195242D01*
X256858Y195309D01*
X256895Y195372D01*
X256900Y195402D01*
X256910Y195423D01*
X256911Y195466D01*
X256923Y195536D01*
X256923Y196455D01*
X256922Y196459D01*
X256923Y196463D01*
X256903Y196555D01*
X256884Y196650D01*
X256881Y196653D01*
X256880Y196657D01*
X256825Y196735D01*
X256771Y196814D01*
X256767Y196816D01*
X256765Y196819D01*
X256684Y196869D01*
X256603Y196921D01*
X256599Y196921D01*
X256596Y196924D01*
X256502Y196938D01*
X256407Y196954D01*
X256403Y196953D01*
X256399Y196954D01*
X256306Y196930D01*
X256214Y196908D01*
X256211Y196905D01*
X256206Y196904D01*
X256071Y196808D01*
X255982Y196719D01*
X251929Y196719D01*
X251809Y196840D01*
X251802Y196845D01*
X251797Y196851D01*
X251719Y196899D01*
X251643Y196950D01*
X251635Y196951D01*
X251628Y196956D01*
X251538Y196969D01*
X251448Y196986D01*
X251439Y196984D01*
X251431Y196986D01*
X251343Y196963D01*
X251253Y196943D01*
X251247Y196938D01*
X251238Y196936D01*
X251103Y196840D01*
X250982Y196719D01*
X247944Y196719D01*
X247868Y196704D01*
X247791Y196695D01*
X247772Y196684D01*
X247749Y196680D01*
X247685Y196636D01*
X247618Y196598D01*
X247602Y196578D01*
X247585Y196567D01*
X247561Y196529D01*
X247512Y196470D01*
X247489Y196430D01*
X247077Y196018D01*
X247075Y196014D01*
X247071Y196012D01*
X247020Y195932D01*
X246967Y195852D01*
X246966Y195848D01*
X246964Y195844D01*
X246948Y195751D01*
X246931Y195657D01*
X246932Y195652D01*
X246931Y195648D01*
X246953Y195556D01*
X246973Y195462D01*
X246976Y195459D01*
X246977Y195455D01*
X247033Y195379D01*
X247089Y195300D01*
X247092Y195298D01*
X247095Y195295D01*
X247176Y195247D01*
X247258Y195196D01*
X247262Y195195D01*
X247266Y195193D01*
X247430Y195166D01*
X249044Y195166D01*
X249044Y188624D01*
X242002Y188624D01*
X242002Y192959D01*
X242175Y193606D01*
X242510Y194185D01*
X242922Y194597D01*
X242924Y194601D01*
X242928Y194603D01*
X242979Y194683D01*
X243032Y194763D01*
X243032Y194767D01*
X243035Y194770D01*
X243050Y194864D01*
X243068Y194958D01*
X243067Y194962D01*
X243068Y194967D01*
X243046Y195058D01*
X243025Y195152D01*
X243023Y195156D01*
X243022Y195160D01*
X242966Y195236D01*
X242910Y195315D01*
X242906Y195317D01*
X242904Y195320D01*
X242823Y195368D01*
X242741Y195419D01*
X242736Y195419D01*
X242733Y195422D01*
X242569Y195449D01*
X242121Y195449D01*
X241617Y195584D01*
X241544Y195589D01*
X241471Y195601D01*
X241445Y195595D01*
X241419Y195597D01*
X241349Y195572D01*
X241278Y195555D01*
X241256Y195539D01*
X241231Y195530D01*
X241177Y195481D01*
X241118Y195437D01*
X241104Y195414D01*
X241084Y195396D01*
X241054Y195329D01*
X241016Y195266D01*
X241011Y195237D01*
X241002Y195215D01*
X241000Y195172D01*
X240989Y195102D01*
X240989Y192696D01*
X239960Y191667D01*
X239953Y191657D01*
X239943Y191649D01*
X239898Y191574D01*
X239850Y191501D01*
X239848Y191489D01*
X239841Y191478D01*
X239814Y191314D01*
X239814Y182099D01*
X239069Y181354D01*
X228156Y181354D01*
X228152Y181353D01*
X228148Y181354D01*
X228055Y181334D01*
X227961Y181315D01*
X227958Y181312D01*
X227954Y181311D01*
X227876Y181256D01*
X227797Y181202D01*
X227795Y181198D01*
X227792Y181196D01*
X227742Y181114D01*
X227690Y181034D01*
X227690Y181030D01*
X227688Y181027D01*
X227673Y180933D01*
X227657Y180838D01*
X227658Y180834D01*
X227658Y180830D01*
X227681Y180738D01*
X227703Y180645D01*
X227706Y180642D01*
X227707Y180637D01*
X227803Y180502D01*
X229353Y178952D01*
X229364Y178945D01*
X229371Y178935D01*
X229446Y178891D01*
X229519Y178842D01*
X229531Y178840D01*
X229542Y178833D01*
X229706Y178806D01*
X238556Y178806D01*
X239201Y178161D01*
X239208Y178156D01*
X239212Y178149D01*
X239290Y178102D01*
X239366Y178051D01*
X239375Y178049D01*
X239382Y178045D01*
X239472Y178031D01*
X239562Y178015D01*
X239570Y178016D01*
G37*
%LPC*%
G36*
X236607Y453356D02*
X236607Y453356D01*
X236607Y464898D01*
X245942Y464898D01*
X246588Y464725D01*
X247167Y464390D01*
X247641Y463917D01*
X247975Y463338D01*
X248148Y462692D01*
X248148Y453356D01*
X236607Y453356D01*
G37*
%LPD*%
%LPC*%
G36*
X223067Y453356D02*
X223067Y453356D01*
X223067Y462692D01*
X223240Y463338D01*
X223574Y463917D01*
X224047Y464390D01*
X224627Y464725D01*
X225273Y464898D01*
X234608Y464898D01*
X234608Y453356D01*
X223067Y453356D01*
G37*
%LPD*%
%LPC*%
G36*
X236607Y439817D02*
X236607Y439817D01*
X236607Y451358D01*
X248148Y451358D01*
X248148Y442023D01*
X247975Y441377D01*
X247641Y440797D01*
X247167Y440324D01*
X246588Y439990D01*
X245942Y439817D01*
X236607Y439817D01*
G37*
%LPD*%
G36*
X155499Y106908D02*
X155499Y106908D01*
X155508Y106906D01*
X155596Y106927D01*
X155686Y106946D01*
X155693Y106950D01*
X155701Y106952D01*
X155774Y107006D01*
X155850Y107058D01*
X155855Y107065D01*
X155861Y107070D01*
X155908Y107148D01*
X155957Y107226D01*
X155958Y107234D01*
X155963Y107241D01*
X155990Y107405D01*
X155990Y113466D01*
X155996Y113467D01*
X156086Y113485D01*
X156093Y113490D01*
X156101Y113492D01*
X156174Y113546D01*
X156250Y113598D01*
X156254Y113605D01*
X156261Y113610D01*
X156308Y113688D01*
X156357Y113765D01*
X156358Y113774D01*
X156363Y113781D01*
X156390Y113945D01*
X156390Y121256D01*
X164971Y121256D01*
X164979Y121257D01*
X164988Y121256D01*
X165076Y121277D01*
X165166Y121295D01*
X165173Y121300D01*
X165181Y121302D01*
X165254Y121356D01*
X165330Y121408D01*
X165335Y121415D01*
X165341Y121420D01*
X165388Y121498D01*
X165437Y121575D01*
X165438Y121584D01*
X165443Y121591D01*
X165470Y121755D01*
X165470Y122755D01*
X165469Y122763D01*
X165470Y122771D01*
X165449Y122860D01*
X165431Y122950D01*
X165426Y122957D01*
X165424Y122965D01*
X165370Y123038D01*
X165318Y123114D01*
X165311Y123118D01*
X165306Y123125D01*
X165228Y123171D01*
X165151Y123221D01*
X165142Y123222D01*
X165135Y123226D01*
X164971Y123254D01*
X156390Y123254D01*
X156390Y131835D01*
X156389Y131843D01*
X156390Y131852D01*
X156369Y131940D01*
X156351Y132030D01*
X156346Y132037D01*
X156344Y132045D01*
X156290Y132118D01*
X156238Y132194D01*
X156231Y132198D01*
X156226Y132205D01*
X156148Y132252D01*
X156071Y132301D01*
X156062Y132302D01*
X156055Y132307D01*
X155891Y132334D01*
X154891Y132334D01*
X154883Y132333D01*
X154875Y132334D01*
X154786Y132313D01*
X154696Y132295D01*
X154689Y132290D01*
X154681Y132288D01*
X154608Y132234D01*
X154532Y132182D01*
X154528Y132175D01*
X154521Y132170D01*
X154475Y132092D01*
X154425Y132015D01*
X154424Y132006D01*
X154420Y131999D01*
X154392Y131835D01*
X154392Y123254D01*
X145811Y123254D01*
X145803Y123252D01*
X145795Y123254D01*
X145706Y123233D01*
X145616Y123215D01*
X145609Y123210D01*
X145601Y123208D01*
X145528Y123154D01*
X145452Y123102D01*
X145448Y123095D01*
X145441Y123090D01*
X145395Y123012D01*
X145345Y122934D01*
X145344Y122926D01*
X145340Y122919D01*
X145312Y122755D01*
X145312Y121755D01*
X145314Y121747D01*
X145312Y121738D01*
X145333Y121650D01*
X145352Y121560D01*
X145356Y121553D01*
X145358Y121545D01*
X145412Y121472D01*
X145464Y121396D01*
X145471Y121392D01*
X145476Y121385D01*
X145554Y121338D01*
X145632Y121289D01*
X145640Y121288D01*
X145647Y121283D01*
X145811Y121256D01*
X154392Y121256D01*
X154392Y113945D01*
X154394Y113937D01*
X154392Y113928D01*
X154413Y113840D01*
X154432Y113750D01*
X154436Y113743D01*
X154438Y113735D01*
X154492Y113662D01*
X154544Y113586D01*
X154551Y113582D01*
X154556Y113575D01*
X154635Y113528D01*
X154712Y113479D01*
X154720Y113478D01*
X154727Y113473D01*
X154792Y113462D01*
X154792Y107405D01*
X154794Y107397D01*
X154792Y107389D01*
X154813Y107300D01*
X154832Y107210D01*
X154836Y107203D01*
X154838Y107195D01*
X154892Y107122D01*
X154944Y107046D01*
X154951Y107042D01*
X154956Y107035D01*
X155034Y106989D01*
X155112Y106939D01*
X155120Y106938D01*
X155127Y106934D01*
X155291Y106906D01*
X155491Y106906D01*
X155499Y106908D01*
G37*
%LPC*%
G36*
X147803Y87835D02*
X147803Y87835D01*
X147803Y94377D01*
X152638Y94377D01*
X153284Y94204D01*
X153863Y93869D01*
X154336Y93396D01*
X154671Y92817D01*
X154844Y92170D01*
X154844Y87835D01*
X147803Y87835D01*
G37*
%LPD*%
%LPC*%
G36*
X250972Y418415D02*
X250972Y418415D01*
X250972Y424957D01*
X255807Y424957D01*
X256454Y424784D01*
X257033Y424449D01*
X257506Y423976D01*
X257840Y423397D01*
X258014Y422750D01*
X258014Y418415D01*
X250972Y418415D01*
G37*
%LPD*%
%LPC*%
G36*
X109944Y418415D02*
X109944Y418415D01*
X109944Y424957D01*
X114779Y424957D01*
X115426Y424784D01*
X116005Y424449D01*
X116478Y423976D01*
X116813Y423397D01*
X116986Y422750D01*
X116986Y418415D01*
X109944Y418415D01*
G37*
%LPD*%
%LPC*%
G36*
X138763Y87835D02*
X138763Y87835D01*
X138763Y92170D01*
X138936Y92817D01*
X139270Y93396D01*
X139743Y93869D01*
X140323Y94204D01*
X140969Y94377D01*
X145804Y94377D01*
X145804Y87835D01*
X138763Y87835D01*
G37*
%LPD*%
%LPC*%
G36*
X241932Y418415D02*
X241932Y418415D01*
X241932Y422750D01*
X242105Y423397D01*
X242440Y423976D01*
X242913Y424449D01*
X243492Y424784D01*
X244138Y424957D01*
X248974Y424957D01*
X248974Y418415D01*
X241932Y418415D01*
G37*
%LPD*%
%LPC*%
G36*
X109999Y180084D02*
X109999Y180084D01*
X109999Y186626D01*
X117041Y186626D01*
X117041Y182290D01*
X116867Y181644D01*
X116533Y181065D01*
X116060Y180592D01*
X115481Y180257D01*
X114834Y180084D01*
X109999Y180084D01*
G37*
%LPD*%
%LPC*%
G36*
X250972Y409875D02*
X250972Y409875D01*
X250972Y416417D01*
X258014Y416417D01*
X258014Y412082D01*
X257840Y411435D01*
X257506Y410856D01*
X257033Y410383D01*
X256454Y410048D01*
X255807Y409875D01*
X250972Y409875D01*
G37*
%LPD*%
%LPC*%
G36*
X109944Y409875D02*
X109944Y409875D01*
X109944Y416417D01*
X116986Y416417D01*
X116986Y412082D01*
X116813Y411435D01*
X116478Y410856D01*
X116005Y410383D01*
X115426Y410048D01*
X114779Y409875D01*
X109944Y409875D01*
G37*
%LPD*%
%LPC*%
G36*
X147803Y79295D02*
X147803Y79295D01*
X147803Y85837D01*
X154844Y85837D01*
X154844Y81501D01*
X154671Y80855D01*
X154336Y80276D01*
X153863Y79803D01*
X153284Y79468D01*
X152638Y79295D01*
X147803Y79295D01*
G37*
%LPD*%
%LPC*%
G36*
X140969Y79295D02*
X140969Y79295D01*
X140323Y79468D01*
X139743Y79803D01*
X139270Y80276D01*
X138936Y80855D01*
X138763Y81501D01*
X138763Y85837D01*
X145804Y85837D01*
X145804Y79295D01*
X140969Y79295D01*
G37*
%LPD*%
G36*
X244214Y203993D02*
X244214Y203993D01*
X244222Y203991D01*
X244311Y204012D01*
X244401Y204031D01*
X244408Y204035D01*
X244416Y204037D01*
X244489Y204091D01*
X244565Y204143D01*
X244569Y204150D01*
X244576Y204155D01*
X244622Y204233D01*
X244672Y204311D01*
X244673Y204319D01*
X244677Y204326D01*
X244705Y204490D01*
X244705Y213031D01*
X245790Y213031D01*
X246437Y212858D01*
X247016Y212523D01*
X247489Y212050D01*
X247512Y212010D01*
X247563Y211952D01*
X247609Y211890D01*
X247629Y211878D01*
X247644Y211861D01*
X247714Y211828D01*
X247780Y211788D01*
X247805Y211784D01*
X247823Y211776D01*
X247868Y211774D01*
X247944Y211761D01*
X251026Y211761D01*
X251030Y211762D01*
X251034Y211761D01*
X251127Y211781D01*
X251221Y211800D01*
X251224Y211803D01*
X251228Y211804D01*
X251306Y211859D01*
X251385Y211913D01*
X251387Y211916D01*
X251390Y211919D01*
X251440Y212000D01*
X251492Y212080D01*
X251492Y212085D01*
X251495Y212088D01*
X251509Y212182D01*
X251525Y212277D01*
X251524Y212281D01*
X251524Y212285D01*
X251501Y212377D01*
X251479Y212470D01*
X251476Y212473D01*
X251475Y212477D01*
X251379Y212613D01*
X248962Y215030D01*
X248962Y218283D01*
X248961Y218287D01*
X248962Y218292D01*
X248941Y218385D01*
X248922Y218478D01*
X248920Y218482D01*
X248919Y218486D01*
X248863Y218564D01*
X248810Y218642D01*
X248806Y218644D01*
X248804Y218648D01*
X248723Y218698D01*
X248642Y218749D01*
X248638Y218750D01*
X248634Y218752D01*
X248540Y218766D01*
X248446Y218782D01*
X248442Y218781D01*
X248438Y218782D01*
X248345Y218758D01*
X248252Y218736D01*
X248249Y218734D01*
X248245Y218733D01*
X248109Y218636D01*
X243353Y213880D01*
X243346Y213869D01*
X243336Y213862D01*
X243291Y213787D01*
X243243Y213714D01*
X243241Y213701D01*
X243234Y213691D01*
X243207Y213527D01*
X243207Y204490D01*
X243208Y204482D01*
X243207Y204474D01*
X243228Y204385D01*
X243246Y204295D01*
X243251Y204288D01*
X243253Y204280D01*
X243307Y204207D01*
X243359Y204131D01*
X243366Y204127D01*
X243371Y204120D01*
X243449Y204074D01*
X243526Y204024D01*
X243535Y204023D01*
X243542Y204019D01*
X243706Y203991D01*
X244206Y203991D01*
X244214Y203993D01*
G37*
%LPC*%
G36*
X136560Y58374D02*
X136560Y58374D01*
X136560Y63725D01*
X139070Y63725D01*
X139716Y63552D01*
X140296Y63218D01*
X140769Y62745D01*
X141103Y62165D01*
X141276Y61519D01*
X141276Y58374D01*
X136560Y58374D01*
G37*
%LPD*%
%LPC*%
G36*
X151813Y58374D02*
X151813Y58374D01*
X151813Y61519D01*
X151986Y62165D01*
X152320Y62745D01*
X152793Y63218D01*
X153373Y63552D01*
X154019Y63725D01*
X156529Y63725D01*
X156529Y58374D01*
X151813Y58374D01*
G37*
%LPD*%
%LPC*%
G36*
X136560Y51024D02*
X136560Y51024D01*
X136560Y56375D01*
X141276Y56375D01*
X141276Y53230D01*
X141103Y52584D01*
X140769Y52004D01*
X140296Y51531D01*
X139716Y51197D01*
X139070Y51024D01*
X136560Y51024D01*
G37*
%LPD*%
%LPC*%
G36*
X154019Y51024D02*
X154019Y51024D01*
X153373Y51197D01*
X152793Y51531D01*
X152320Y52004D01*
X151986Y52584D01*
X151813Y53230D01*
X151813Y56375D01*
X156529Y56375D01*
X156529Y51024D01*
X154019Y51024D01*
G37*
%LPD*%
G36*
X295418Y36450D02*
X295418Y36450D01*
X295427Y36449D01*
X295515Y36470D01*
X295605Y36488D01*
X295612Y36493D01*
X295620Y36495D01*
X295693Y36549D01*
X295769Y36601D01*
X295773Y36608D01*
X295780Y36613D01*
X295827Y36691D01*
X295876Y36768D01*
X295877Y36777D01*
X295882Y36784D01*
X295909Y36948D01*
X295909Y45569D01*
X295908Y45577D01*
X295909Y45585D01*
X295888Y45674D01*
X295870Y45764D01*
X295865Y45771D01*
X295863Y45779D01*
X295809Y45852D01*
X295757Y45927D01*
X295750Y45932D01*
X295745Y45939D01*
X295667Y45985D01*
X295590Y46035D01*
X295581Y46036D01*
X295574Y46040D01*
X295410Y46068D01*
X294410Y46068D01*
X294402Y46066D01*
X294394Y46068D01*
X294305Y46047D01*
X294215Y46028D01*
X294208Y46024D01*
X294200Y46022D01*
X294127Y45968D01*
X294051Y45916D01*
X294047Y45909D01*
X294040Y45904D01*
X293994Y45825D01*
X293944Y45748D01*
X293943Y45740D01*
X293939Y45733D01*
X293911Y45569D01*
X293911Y36948D01*
X293913Y36940D01*
X293911Y36931D01*
X293932Y36843D01*
X293951Y36753D01*
X293955Y36746D01*
X293957Y36738D01*
X294011Y36665D01*
X294063Y36589D01*
X294070Y36585D01*
X294075Y36578D01*
X294153Y36531D01*
X294231Y36482D01*
X294239Y36481D01*
X294246Y36476D01*
X294410Y36449D01*
X295410Y36449D01*
X295418Y36450D01*
G37*
%LPC*%
G36*
X235607Y452356D02*
X235607Y452356D01*
X235607Y452358D01*
X235608Y452358D01*
X235608Y452356D01*
X235607Y452356D01*
G37*
%LPD*%
%LPC*%
G36*
X250042Y187624D02*
X250042Y187624D01*
X250042Y187626D01*
X250044Y187626D01*
X250044Y187624D01*
X250042Y187624D01*
G37*
%LPD*%
%LPC*%
G36*
X108999Y187624D02*
X108999Y187624D01*
X108999Y187626D01*
X109001Y187626D01*
X109001Y187624D01*
X108999Y187624D01*
G37*
%LPD*%
%LPC*%
G36*
X155390Y122254D02*
X155390Y122254D01*
X155390Y122256D01*
X155392Y122256D01*
X155392Y122254D01*
X155390Y122254D01*
G37*
%LPD*%
%LPC*%
G36*
X249972Y417415D02*
X249972Y417415D01*
X249972Y417417D01*
X249974Y417417D01*
X249974Y417415D01*
X249972Y417415D01*
G37*
%LPD*%
%LPC*%
G36*
X108944Y417415D02*
X108944Y417415D01*
X108944Y417417D01*
X108946Y417417D01*
X108946Y417415D01*
X108944Y417415D01*
G37*
%LPD*%
%LPC*%
G36*
X146803Y86835D02*
X146803Y86835D01*
X146803Y86837D01*
X146804Y86837D01*
X146804Y86835D01*
X146803Y86835D01*
G37*
%LPD*%
D10*
X294910Y92424D03*
D11*
X237714Y52616D03*
D12*
X21914Y125316D03*
D13*
X233043Y187625D03*
X250043Y187625D03*
X232973Y417416D03*
X249973Y417416D03*
X91945Y417416D03*
X108945Y417416D03*
X92000Y187625D03*
X109000Y187625D03*
X163803Y86836D03*
X146803Y86836D03*
D11*
X275293Y119216D03*
X209214Y70716D03*
D10*
X294910Y46237D03*
D14*
X42956Y204240D03*
X47956Y204240D03*
X52956Y204240D03*
X57956Y204240D03*
X62956Y204240D03*
X67956Y204240D03*
X72956Y204240D03*
X77956Y204240D03*
X82956Y204240D03*
X87956Y204240D03*
X92956Y204240D03*
X97956Y204240D03*
X102956Y204240D03*
X107956Y204240D03*
X112956Y204240D03*
X117956Y204240D03*
X122956Y204240D03*
X127956Y204240D03*
X132956Y204240D03*
X137956Y204240D03*
X142956Y204240D03*
X147956Y204240D03*
X152956Y204240D03*
X157956Y204240D03*
X157956Y400740D03*
X152956Y400740D03*
X147956Y400740D03*
X142956Y400740D03*
X137956Y400740D03*
X132956Y400740D03*
X127956Y400740D03*
X122956Y400740D03*
X117956Y400740D03*
X112956Y400740D03*
X107956Y400740D03*
X102956Y400740D03*
X97956Y400740D03*
X92956Y400740D03*
X87956Y400740D03*
X82956Y400740D03*
X77956Y400740D03*
X72956Y400740D03*
X67956Y400740D03*
X62956Y400740D03*
X57956Y400740D03*
X52956Y400740D03*
X47956Y400740D03*
X42956Y400740D03*
X183956Y204240D03*
X188956Y204240D03*
X193956Y204240D03*
X198956Y204240D03*
X203956Y204240D03*
X208956Y204240D03*
X213956Y204240D03*
X218956Y204240D03*
X223956Y204240D03*
X228956Y204240D03*
X233956Y204240D03*
X238956Y204240D03*
X243956Y204240D03*
X248956Y204240D03*
X253956Y204240D03*
X258956Y204240D03*
X263956Y204240D03*
X268956Y204240D03*
X273956Y204240D03*
X278956Y204240D03*
X283956Y204240D03*
X288956Y204240D03*
X293956Y204240D03*
X298956Y204240D03*
X298956Y400740D03*
X293956Y400740D03*
X288956Y400740D03*
X283956Y400740D03*
X278956Y400740D03*
X273956Y400740D03*
X268956Y400740D03*
X263956Y400740D03*
X258956Y400740D03*
X253956Y400740D03*
X248956Y400740D03*
X243956Y400740D03*
X238956Y400740D03*
X233956Y400740D03*
X228956Y400740D03*
X223956Y400740D03*
X218956Y400740D03*
X213956Y400740D03*
X208956Y400740D03*
X203956Y400740D03*
X198956Y400740D03*
X193956Y400740D03*
X188956Y400740D03*
X183956Y400740D03*
D11*
X60014Y27616D03*
X60014Y40216D03*
X60014Y53216D03*
X60014Y66116D03*
X60014Y92116D03*
X60014Y104816D03*
X60014Y117716D03*
X60014Y131016D03*
D12*
X21914Y152516D03*
D15*
X250029Y172035D03*
X233029Y172035D03*
X302101Y128035D03*
X319101Y128035D03*
D12*
X21914Y98116D03*
D11*
X220614Y102516D03*
D12*
X21914Y179716D03*
D16*
X108607Y452357D03*
X134007Y452357D03*
X159407Y452357D03*
X184807Y452357D03*
X210207Y452357D03*
D17*
X235607Y452357D03*
D18*
X143441Y130655D02*
X137441Y130655D01*
X137441Y131855D01*
X143441Y131855D01*
X143441Y130655D01*
X143441Y131854D02*
X137441Y131854D01*
X137441Y126155D02*
X143441Y126155D01*
X137441Y126155D02*
X137441Y127355D01*
X143441Y127355D01*
X143441Y126155D01*
X143441Y127354D02*
X137441Y127354D01*
X137441Y121655D02*
X143441Y121655D01*
X137441Y121655D02*
X137441Y122855D01*
X143441Y122855D01*
X143441Y121655D01*
X143441Y122854D02*
X137441Y122854D01*
X137441Y117155D02*
X143441Y117155D01*
X137441Y117155D02*
X137441Y118355D01*
X143441Y118355D01*
X143441Y117155D01*
X143441Y118354D02*
X137441Y118354D01*
X137441Y112655D02*
X143441Y112655D01*
X137441Y112655D02*
X137441Y113855D01*
X143441Y113855D01*
X143441Y112655D01*
X143441Y113854D02*
X137441Y113854D01*
X146991Y110305D02*
X146991Y104305D01*
X145791Y104305D01*
X145791Y110305D01*
X146991Y110305D01*
X146991Y105504D02*
X145791Y105504D01*
X145791Y106703D02*
X146991Y106703D01*
X146991Y107902D02*
X145791Y107902D01*
X145791Y109101D02*
X146991Y109101D01*
X146991Y110300D02*
X145791Y110300D01*
X151491Y110305D02*
X151491Y104305D01*
X150291Y104305D01*
X150291Y110305D01*
X151491Y110305D01*
X151491Y105504D02*
X150291Y105504D01*
X150291Y106703D02*
X151491Y106703D01*
X151491Y107902D02*
X150291Y107902D01*
X150291Y109101D02*
X151491Y109101D01*
X151491Y110300D02*
X150291Y110300D01*
X155991Y110305D02*
X155991Y104305D01*
X154791Y104305D01*
X154791Y110305D01*
X155991Y110305D01*
X155991Y105504D02*
X154791Y105504D01*
X154791Y106703D02*
X155991Y106703D01*
X155991Y107902D02*
X154791Y107902D01*
X154791Y109101D02*
X155991Y109101D01*
X155991Y110300D02*
X154791Y110300D01*
X160491Y110305D02*
X160491Y104305D01*
X159291Y104305D01*
X159291Y110305D01*
X160491Y110305D01*
X160491Y105504D02*
X159291Y105504D01*
X159291Y106703D02*
X160491Y106703D01*
X160491Y107902D02*
X159291Y107902D01*
X159291Y109101D02*
X160491Y109101D01*
X160491Y110300D02*
X159291Y110300D01*
X164991Y110305D02*
X164991Y104305D01*
X163791Y104305D01*
X163791Y110305D01*
X164991Y110305D01*
X164991Y105504D02*
X163791Y105504D01*
X163791Y106703D02*
X164991Y106703D01*
X164991Y107902D02*
X163791Y107902D01*
X163791Y109101D02*
X164991Y109101D01*
X164991Y110300D02*
X163791Y110300D01*
X167341Y113855D02*
X173341Y113855D01*
X173341Y112655D01*
X167341Y112655D01*
X167341Y113855D01*
X167341Y113854D02*
X173341Y113854D01*
X173341Y118355D02*
X167341Y118355D01*
X173341Y118355D02*
X173341Y117155D01*
X167341Y117155D01*
X167341Y118355D01*
X167341Y118354D02*
X173341Y118354D01*
X173341Y122855D02*
X167341Y122855D01*
X173341Y122855D02*
X173341Y121655D01*
X167341Y121655D01*
X167341Y122855D01*
X167341Y122854D02*
X173341Y122854D01*
X173341Y127355D02*
X167341Y127355D01*
X173341Y127355D02*
X173341Y126155D01*
X167341Y126155D01*
X167341Y127355D01*
X167341Y127354D02*
X173341Y127354D01*
X173341Y131855D02*
X167341Y131855D01*
X173341Y131855D02*
X173341Y130655D01*
X167341Y130655D01*
X167341Y131855D01*
X167341Y131854D02*
X173341Y131854D01*
X163791Y134205D02*
X163791Y140205D01*
X164991Y140205D01*
X164991Y134205D01*
X163791Y134205D01*
X163791Y135404D02*
X164991Y135404D01*
X164991Y136603D02*
X163791Y136603D01*
X163791Y137802D02*
X164991Y137802D01*
X164991Y139001D02*
X163791Y139001D01*
X163791Y140200D02*
X164991Y140200D01*
X159291Y140205D02*
X159291Y134205D01*
X159291Y140205D02*
X160491Y140205D01*
X160491Y134205D01*
X159291Y134205D01*
X159291Y135404D02*
X160491Y135404D01*
X160491Y136603D02*
X159291Y136603D01*
X159291Y137802D02*
X160491Y137802D01*
X160491Y139001D02*
X159291Y139001D01*
X159291Y140200D02*
X160491Y140200D01*
X154791Y140205D02*
X154791Y134205D01*
X154791Y140205D02*
X155991Y140205D01*
X155991Y134205D01*
X154791Y134205D01*
X154791Y135404D02*
X155991Y135404D01*
X155991Y136603D02*
X154791Y136603D01*
X154791Y137802D02*
X155991Y137802D01*
X155991Y139001D02*
X154791Y139001D01*
X154791Y140200D02*
X155991Y140200D01*
X150291Y140205D02*
X150291Y134205D01*
X150291Y140205D02*
X151491Y140205D01*
X151491Y134205D01*
X150291Y134205D01*
X150291Y135404D02*
X151491Y135404D01*
X151491Y136603D02*
X150291Y136603D01*
X150291Y137802D02*
X151491Y137802D01*
X151491Y139001D02*
X150291Y139001D01*
X150291Y140200D02*
X151491Y140200D01*
X145791Y140205D02*
X145791Y134205D01*
X145791Y140205D02*
X146991Y140205D01*
X146991Y134205D01*
X145791Y134205D01*
X145791Y135404D02*
X146991Y135404D01*
X146991Y136603D02*
X145791Y136603D01*
X145791Y137802D02*
X146991Y137802D01*
X146991Y139001D02*
X145791Y139001D01*
X145791Y140200D02*
X146991Y140200D01*
D19*
X155391Y122255D03*
D11*
X198414Y59116D03*
X226614Y41616D03*
D15*
X109111Y172035D03*
X92111Y172035D03*
D20*
X127433Y57375D03*
X135561Y57375D03*
X165657Y57375D03*
X157529Y57375D03*
D21*
X112535Y83781D03*
D22*
X60014Y131016D02*
X60014Y176558D01*
X19424Y217148D01*
X19424Y407832D01*
X20614Y409022D02*
X60408Y409022D01*
X63014Y406416D01*
X20614Y409022D02*
X19424Y407832D01*
X62956Y406357D02*
X63014Y406416D01*
X62956Y406357D02*
X62956Y400740D01*
X203956Y400740D02*
X203956Y395144D01*
X204000Y395100D01*
X196614Y392458D02*
X196456Y392616D01*
X201358Y392458D02*
X204000Y395100D01*
X201358Y392458D02*
X196614Y392458D01*
X196456Y392616D02*
X196298Y392458D01*
X184056Y392458D01*
X172014Y380416D01*
X82500Y357300D02*
X68100Y357300D01*
X59100Y366300D01*
X62956Y390256D02*
X62956Y400740D01*
X97816Y380416D02*
X172014Y380416D01*
X97816Y380416D02*
X90900Y373500D01*
X90900Y365700D01*
X82500Y357300D01*
X59100Y366300D02*
X59100Y386400D01*
X62956Y390256D01*
X57220Y139581D02*
X51982Y134343D01*
X51982Y125748D02*
X60014Y117716D01*
X51982Y125748D02*
X51982Y134343D01*
X57220Y139581D02*
X57220Y175400D01*
X16630Y215991D01*
X16630Y408989D02*
X19457Y411816D01*
X67904Y406416D02*
X68014Y406416D01*
X62503Y411816D02*
X19457Y411816D01*
X62503Y411816D02*
X67904Y406416D01*
X16630Y408989D02*
X16630Y215991D01*
X67956Y406357D02*
X68014Y406416D01*
X67956Y406357D02*
X67956Y400740D01*
X208956Y400740D02*
X209014Y400799D01*
X208956Y400740D02*
X208956Y407412D01*
X204552Y411816D01*
X180503Y411816D01*
X177630Y408943D01*
X177630Y389983D02*
X170857Y383210D01*
X177630Y389983D02*
X177630Y408943D01*
X97585Y383210D02*
X93925Y386870D01*
X97585Y383210D02*
X170857Y383210D01*
X67924Y393648D02*
X67924Y400800D01*
X74622Y386870D02*
X93925Y386870D01*
X74622Y386870D02*
X67924Y393648D01*
X67924Y400800D02*
X69064Y400740D01*
X67956Y400740D01*
X54426Y140738D02*
X49188Y135500D01*
X49188Y115642D02*
X60014Y104816D01*
X49188Y115642D02*
X49188Y135500D01*
X54426Y140738D02*
X54426Y174243D01*
X13836Y214834D01*
X13836Y410147D02*
X18299Y414610D01*
X71904Y407416D02*
X72014Y407416D01*
X13836Y410147D02*
X13836Y214834D01*
X18299Y414610D02*
X64709Y414610D01*
X71904Y407416D01*
X72014Y407416D02*
X72956Y406475D01*
X72956Y400740D01*
X213956Y400740D02*
X214014Y400799D01*
X213956Y400740D02*
X213956Y406364D01*
X205709Y414610D01*
X179346Y414610D02*
X174836Y410100D01*
X179346Y414610D02*
X205709Y414610D01*
X174836Y410100D02*
X174836Y391140D01*
X169700Y386004D01*
X98743Y386004D02*
X95083Y389664D01*
X98743Y386004D02*
X169700Y386004D01*
X72959Y393319D02*
X72959Y398942D01*
X72956Y400740D01*
X72959Y393319D02*
X76613Y389664D01*
X95083Y389664D01*
X51632Y141896D02*
X46394Y136658D01*
X46394Y105736D02*
X60014Y92116D01*
X46394Y105736D02*
X46394Y136658D01*
X51632Y173086D02*
X11042Y213676D01*
X51632Y173086D02*
X51632Y141896D01*
X11042Y411304D02*
X17142Y417404D01*
X77904Y406416D02*
X78014Y406416D01*
X11042Y411304D02*
X11042Y213676D01*
X17142Y417404D02*
X66915Y417404D01*
X77904Y406416D01*
X77956Y406357D02*
X78014Y406416D01*
X77956Y406357D02*
X77956Y400740D01*
X218956Y400740D02*
X219014Y400799D01*
X218956Y400740D02*
X218982Y402120D01*
X218982Y407744D01*
X178142Y417404D02*
X172042Y411304D01*
X215172Y409210D02*
X217516Y409210D01*
X215172Y409210D02*
X206978Y417404D01*
X217516Y409210D02*
X218982Y407744D01*
X206978Y417404D02*
X178142Y417404D01*
X172042Y411304D02*
X172042Y392298D01*
X168542Y388798D02*
X99900Y388798D01*
X168542Y388798D02*
X172042Y392298D01*
X99900Y388798D02*
X96240Y392458D01*
X78709Y392458D02*
X77959Y393136D01*
X77959Y398759D01*
X77956Y400740D01*
X78709Y392458D02*
X96240Y392458D01*
D23*
X59991Y27616D03*
X154014Y424416D03*
X286014Y379416D03*
D22*
X154014Y424416D02*
X137956Y408357D01*
X137956Y400740D01*
X278956Y386475D02*
X286014Y379416D01*
X278956Y386475D02*
X278956Y400740D01*
X60014Y27616D02*
X58514Y26916D01*
X59991Y27616D01*
D23*
X59991Y40216D03*
X144014Y424416D03*
X276014Y379416D03*
D22*
X144014Y424416D02*
X132956Y413357D01*
X132956Y400740D01*
X276014Y392416D02*
X276014Y379416D01*
X273956Y394475D02*
X273956Y400740D01*
X273956Y394475D02*
X276014Y392416D01*
X60014Y40216D02*
X58514Y39416D01*
X59991Y40216D01*
D23*
X59991Y53216D03*
X134014Y424416D03*
X266014Y379416D03*
D22*
X134014Y424416D02*
X127956Y418357D01*
X127956Y400740D01*
X266014Y379416D02*
X268956Y382357D01*
X268956Y400740D01*
X58514Y54416D02*
X60014Y53216D01*
X59991Y53216D02*
X58514Y54416D01*
D23*
X59991Y66130D03*
X124014Y424416D03*
X256014Y379416D03*
D22*
X124014Y424416D02*
X122956Y423357D01*
X122956Y400740D01*
X256014Y379416D02*
X263956Y387357D01*
X263956Y400740D01*
X60014Y66116D02*
X58514Y66916D01*
X59991Y66130D01*
X228514Y39416D02*
X273514Y39416D01*
X281759Y31216D01*
X307758Y31114D01*
X318514Y41916D01*
X318514Y106916D01*
X308514Y161916D02*
X273514Y196916D01*
X273514Y201916D01*
X226614Y41616D02*
X228514Y39416D01*
X273514Y201916D02*
X273956Y204240D01*
X133514Y201916D02*
X133514Y196916D01*
X153514Y176916D01*
X211014Y176916D01*
X133514Y201916D02*
X132956Y204240D01*
D23*
X318514Y106916D03*
X308514Y161916D03*
X211014Y176916D03*
D22*
X180911Y111244D02*
X180911Y89617D01*
X191217Y79437D01*
X191217Y64229D01*
X191351Y64096D01*
X196014Y59416D01*
X180911Y111244D02*
X181014Y119416D01*
X156014Y166916D02*
X128514Y194416D01*
X128514Y201916D01*
X196014Y59416D02*
X198414Y59116D01*
X128514Y201916D02*
X127956Y204240D01*
X268514Y201916D02*
X268514Y179416D01*
X211014Y166916D02*
X156014Y166916D01*
X268514Y201916D02*
X268956Y204240D01*
D23*
X181014Y119416D03*
X156014Y166916D03*
X268514Y179416D03*
X211014Y166916D03*
D22*
X238514Y51916D02*
X244014Y45916D01*
X275014Y42416D02*
X283095Y34416D01*
X275014Y42416D02*
X268952Y42431D01*
X261825Y42419D01*
X247508Y42446D01*
X244014Y45916D01*
X283095Y34416D02*
X306014Y34416D01*
X314014Y42416D01*
X311014Y95786D02*
X311014Y99416D01*
X311014Y95786D02*
X314000Y92800D01*
X314014Y42416D01*
X311014Y146916D02*
X318514Y154416D01*
X318514Y181916D01*
X304014Y212416D02*
X301014Y214416D01*
X304014Y212416D02*
X304014Y191416D01*
X309014Y186416D01*
X314014Y186416D01*
X318514Y181916D01*
X301014Y214416D02*
X266014Y214416D01*
X263514Y211916D01*
X263514Y204416D01*
X237714Y52616D02*
X238514Y51916D01*
X263956Y204240D02*
X263514Y204416D01*
X123514Y204416D02*
X123514Y211916D01*
X126014Y214416D01*
X158514Y214416D01*
X173514Y199416D01*
X173514Y196916D01*
X183514Y186916D01*
X211014Y186916D01*
X253514Y216916D02*
X258514Y216916D01*
X263514Y211916D01*
X123514Y204416D02*
X122956Y204240D01*
D23*
X311014Y99416D03*
X311014Y146916D03*
X211014Y186916D03*
X253514Y216916D03*
D22*
X212582Y74084D02*
X209214Y70716D01*
X212582Y74084D02*
X212582Y121461D01*
X212699Y121346D01*
X241014Y149893D01*
X241014Y176394D01*
X244188Y179567D01*
X255359Y179567D02*
X258956Y183164D01*
X258956Y204240D01*
X255359Y179567D02*
X244188Y179567D01*
X118514Y189416D02*
X118514Y201916D01*
X145432Y162446D02*
X149518Y158360D01*
X145460Y162416D02*
X145432Y162446D01*
X145460Y162416D02*
X140334Y167543D01*
X118514Y189416D01*
X149518Y158360D02*
X173635Y158330D01*
X176135Y160830D01*
X204014Y131916D02*
X212699Y121346D01*
X118514Y201916D02*
X117956Y204240D01*
D23*
X176135Y160830D03*
X204014Y131916D03*
D22*
X73514Y204416D02*
X73514Y211916D01*
X86014Y224416D01*
X201014Y224416D01*
X213514Y211916D01*
X213514Y204416D01*
X73514Y204416D02*
X72956Y204240D01*
X213514Y204416D02*
X213956Y204240D01*
D23*
X21914Y98027D03*
X43014Y231416D03*
D22*
X79014Y231416D01*
X86014Y224416D01*
D24*
X21914Y98116D02*
X21914Y98027D01*
D22*
X218514Y104416D02*
X218514Y114416D01*
X218514Y194416D02*
X218514Y201916D01*
X218514Y194416D02*
X218514Y159416D01*
X218514Y104416D02*
X220614Y102516D01*
X218514Y201916D02*
X218956Y204240D01*
X78514Y204416D02*
X78514Y211916D01*
X86014Y219416D01*
X158514Y219416D01*
X178514Y199416D01*
X178514Y196916D01*
X181014Y194416D01*
X218514Y194416D01*
X78514Y204416D02*
X77956Y204240D01*
D23*
X218514Y114416D03*
X218514Y159416D03*
D22*
X173514Y121916D02*
X171014Y121916D01*
X173514Y121916D02*
X177165Y125549D01*
X184896Y125547D01*
X191014Y119416D01*
X148514Y231916D02*
X148514Y347716D01*
X59214Y351216D02*
X28514Y381916D01*
X59214Y351216D02*
X145014Y351216D01*
X148514Y347716D01*
X28514Y381916D02*
X28514Y394416D01*
X36014Y401916D01*
X170341Y122255D02*
X171014Y121916D01*
D23*
X191014Y119416D03*
X148514Y231916D03*
X36014Y401916D03*
D22*
X164394Y138147D02*
X180970Y138103D01*
X166014Y233916D02*
X166014Y350216D01*
X61214Y354216D02*
X36014Y379416D01*
X61214Y354216D02*
X162014Y354216D01*
X166014Y350216D01*
X36014Y379416D02*
X36014Y391916D01*
X164394Y138147D02*
X164391Y137205D01*
D23*
X180970Y138103D03*
X166014Y233916D03*
X36014Y391916D03*
D22*
X146014Y141916D02*
X146014Y139416D01*
X146014Y141916D02*
X148514Y144416D01*
X198514Y144416D01*
X201014Y141916D01*
X211014Y151916D02*
X221014Y151916D01*
X231014Y161916D01*
X231014Y171916D01*
X146014Y139416D02*
X146391Y137205D01*
X231014Y171916D02*
X233029Y172035D01*
X223514Y181916D02*
X223514Y201916D01*
X223514Y181916D02*
X231014Y174416D01*
X223514Y201916D02*
X223956Y204240D01*
X231014Y174416D02*
X233029Y172035D01*
X303514Y411185D02*
X298671Y414452D01*
X280645Y414452D01*
X276530Y418567D01*
X303514Y411185D02*
X303514Y291916D01*
X223514Y211916D01*
X223514Y204416D01*
X223956Y204240D01*
D23*
X201014Y141916D03*
X211014Y151916D03*
D22*
X276530Y418567D02*
X276530Y423672D01*
X276985Y423824D01*
D23*
X276985Y423824D03*
D22*
X138514Y139416D02*
X138514Y131916D01*
X108514Y156916D02*
X93514Y171916D01*
X138514Y131916D02*
X140441Y131255D01*
X93514Y171916D02*
X92111Y172035D01*
X83514Y181916D02*
X83514Y201916D01*
X83514Y181916D02*
X91014Y174416D01*
X83514Y201916D02*
X82956Y204240D01*
X91014Y174416D02*
X92111Y172035D01*
D23*
X138514Y139416D03*
X108514Y156916D03*
X155214Y122216D03*
D22*
X102956Y411427D02*
X108945Y417416D01*
X102956Y411427D02*
X102956Y400740D01*
X243956Y411399D02*
X249973Y417416D01*
X243956Y411399D02*
X243956Y400740D01*
X102956Y193669D02*
X109000Y187625D01*
X102956Y193669D02*
X102956Y204240D01*
X243956Y193712D02*
X250043Y187625D01*
X243956Y193712D02*
X243956Y204240D01*
D23*
X23014Y454416D03*
X127690Y19589D03*
X174014Y315416D03*
X109014Y417416D03*
X109014Y187416D03*
X250014Y187416D03*
D25*
X295014Y46416D03*
D23*
X118414Y256616D03*
X289014Y257416D03*
X265672Y28254D03*
X206005Y119674D03*
X205889Y88823D03*
X174014Y216416D03*
X321014Y218416D03*
X313014Y201416D03*
X295014Y189416D03*
X158014Y187416D03*
X174014Y185416D03*
X135014Y156416D03*
X122151Y124732D03*
X256844Y153951D03*
D24*
X294910Y92424D02*
X319101Y116615D01*
X319101Y128035D01*
D22*
X97956Y411405D02*
X91945Y417416D01*
X97956Y411405D02*
X97956Y400740D01*
X232973Y417416D02*
X238956Y411433D01*
X238956Y400740D01*
X97956Y193581D02*
X92000Y187625D01*
X97956Y193581D02*
X97956Y204240D01*
X233043Y187625D02*
X238956Y193538D01*
X238956Y204240D01*
D23*
X311014Y455272D03*
D24*
X323917Y36644D02*
X313044Y26172D01*
X323917Y36644D02*
X328081Y40808D01*
X328014Y107702D01*
X319101Y128035D02*
X328014Y136948D01*
X322014Y455272D02*
X311014Y455272D01*
X328014Y224416D02*
X328014Y136948D01*
X328014Y224416D02*
X328014Y449272D01*
X322014Y455272D01*
D22*
X160214Y99416D02*
X160214Y89416D01*
X160214Y99416D02*
X160214Y106916D01*
X160214Y89416D02*
X163514Y86916D01*
X160214Y106916D02*
X159891Y107305D01*
X163514Y86916D02*
X163803Y86836D01*
X108514Y174416D02*
X93514Y189416D01*
X108514Y174416D02*
X109111Y172035D01*
X92000Y187625D02*
X93514Y189416D01*
X121514Y99416D02*
X160214Y99416D01*
X121514Y99416D02*
X116014Y104916D01*
X116014Y166916D01*
X111014Y171916D01*
X109111Y172035D01*
D24*
X251014Y171916D02*
X276014Y171916D01*
X318514Y129416D01*
D22*
X251014Y171916D02*
X250029Y172035D01*
X318514Y129416D02*
X319101Y128035D01*
X238514Y204416D02*
X238514Y211916D01*
X251014Y224416D01*
X328014Y224416D01*
X238956Y204240D02*
X238514Y204416D01*
X328014Y224416D02*
X328114Y224416D01*
D24*
X231014Y430272D02*
X231014Y431916D01*
X231014Y430272D02*
X231014Y419416D01*
X222014Y439272D02*
X211014Y450272D01*
X222014Y439272D02*
X231014Y430272D01*
D22*
X231014Y419416D02*
X232973Y417416D01*
D24*
X211014Y450272D02*
X210207Y452357D01*
X113675Y439348D02*
X93514Y419416D01*
X113675Y439348D02*
X222014Y439272D01*
D22*
X93514Y419416D02*
X91945Y417416D01*
D24*
X266715Y455272D02*
X311014Y455272D01*
X243397Y431840D02*
X231014Y431916D01*
X243397Y431840D02*
X249403Y437845D01*
X266715Y455272D01*
D22*
X163912Y86717D02*
X166014Y84416D01*
X163912Y86717D02*
X163803Y86836D01*
D24*
X263159Y22186D02*
X268186Y22186D01*
X272172Y26172D02*
X313044Y26172D01*
X272172Y26172D02*
X268186Y22186D01*
X263159Y22186D02*
X259479Y25866D01*
X177512Y86717D02*
X163912Y86717D01*
X209743Y25866D02*
X259479Y25866D01*
X209743Y25866D02*
X187419Y48190D01*
X187419Y76809D01*
X177512Y86717D01*
X328014Y107702D02*
X328014Y136948D01*
X302101Y128035D02*
X284112Y128035D01*
X275431Y119354D01*
X275293Y119354D01*
D22*
X138514Y126916D02*
X136014Y126916D01*
X131014Y131916D01*
X131014Y141916D01*
X138514Y149416D01*
X203514Y149416D01*
X217514Y135416D01*
X228514Y124416D02*
X236014Y116916D01*
X268514Y116916D01*
X271014Y119416D01*
X273514Y119416D01*
X140441Y126755D02*
X138514Y126916D01*
X273514Y119416D02*
X275293Y119216D01*
X275431Y119354D02*
X276014Y119416D01*
X275293Y119216D01*
D23*
X217514Y135416D03*
X228514Y124416D03*
X21914Y125316D03*
X43014Y240504D03*
D22*
X65926Y240504D01*
X66014Y240416D01*
D23*
X66014Y240416D03*
X123014Y171416D03*
X194014Y155230D03*
D22*
X178758Y155230D02*
X178543Y155016D01*
X178758Y155230D02*
X194014Y155230D01*
X132507Y171416D02*
X123014Y171416D01*
X144301Y159622D02*
X144303Y159622D01*
X148909Y155016D01*
X144301Y159622D02*
X132507Y171416D01*
X148909Y155016D02*
X178543Y155016D01*
D23*
X131014Y105416D03*
D22*
X132014Y106416D01*
X132014Y110416D01*
X134853Y113255D01*
X140441Y113255D01*
D23*
X21914Y179716D03*
D22*
X131014Y116916D02*
X138514Y116916D01*
X131014Y116916D02*
X126052Y113819D01*
X66014Y216916D02*
X43514Y216916D01*
X138514Y116916D02*
X140441Y117755D01*
D23*
X126052Y113819D03*
X66014Y216916D03*
X43514Y216916D03*
D22*
X36014Y166616D02*
X21914Y152516D01*
X36014Y180069D02*
X36220Y180275D01*
D23*
X36220Y180275D03*
X33014Y215416D03*
D22*
X32986Y221424D01*
X35977Y224416D01*
X73014Y224416D01*
D23*
X73014Y224416D03*
X75014Y191416D03*
D22*
X36014Y180069D02*
X36014Y166616D01*
X75014Y191416D02*
X80720Y185710D01*
X86269Y163752D02*
X96478Y163752D01*
X80720Y169301D02*
X80720Y185710D01*
X80720Y169301D02*
X86269Y163752D01*
X96478Y163752D02*
X102700Y157530D01*
X102700Y154508D01*
X110200Y147008D02*
X110200Y141416D01*
D23*
X110200Y141416D03*
X121828Y137416D03*
D22*
X121828Y133602D01*
X133175Y122255D02*
X140441Y122255D01*
X110200Y147008D02*
X102700Y154508D01*
X121828Y133602D02*
X133175Y122255D01*
D26*
X275293Y111036D03*
D27*
X294914Y58649D03*
X294914Y79927D03*
D26*
X228994Y102237D03*
X231348Y57505D03*
X220437Y46935D03*
X215323Y64751D03*
X204753Y53414D03*
X68199Y130982D03*
X68199Y117685D03*
X68199Y104813D03*
X68199Y92113D03*
X68199Y40287D03*
X68199Y27586D03*
X68199Y53243D03*
X68199Y66200D03*
D23*
X21914Y152516D03*
X117546Y69236D03*
X202564Y99930D03*
D22*
X187093Y131255D02*
X170341Y131255D01*
X187093Y131255D02*
X190323Y128024D01*
X194580Y128024D01*
X199623Y102872D02*
X202564Y99930D01*
X199623Y102872D02*
X199623Y122982D01*
X194580Y128024D01*
X125579Y69236D02*
X117546Y69236D01*
X125579Y69236D02*
X127498Y67317D01*
X127498Y57440D01*
X127433Y57375D01*
D23*
X177644Y47122D03*
X190375Y99930D03*
D22*
X189160Y125230D02*
X187691Y126702D01*
X174412Y126755D02*
X170341Y126755D01*
X187691Y126706D02*
X187691Y126702D01*
X184933Y128344D02*
X184166Y128346D01*
X184933Y128344D02*
X186052Y128344D01*
X176003Y128346D02*
X174412Y126755D01*
X176003Y128346D02*
X184166Y128346D01*
X186052Y128344D02*
X187691Y126706D01*
X189160Y125230D02*
X193423Y125230D01*
X196829Y121824D01*
X196829Y117008D01*
X193423Y113602D01*
X192145Y113602D01*
X190375Y111831D01*
X190375Y99930D01*
X177644Y54819D02*
X177644Y47122D01*
X175088Y57375D02*
X165657Y57375D01*
X175088Y57375D02*
X177644Y54819D01*
D23*
X112535Y83781D03*
X174496Y98077D03*
D22*
X174496Y109100D02*
X170341Y113255D01*
X174496Y109100D02*
X174496Y98077D01*
M02*
