G04 EAGLE Gerber X2 export*
G75*
%MOMM*%
%FSLAX34Y34*%
%LPD*%
%AMOC8*
5,1,8,0,0,1.08239X$1,22.5*%
G01*
%ADD10R,1.100000X1.000000*%
%ADD11R,0.300000X1.250000*%
%ADD12R,1.000000X1.100000*%
%ADD13R,0.549875X0.549875*%
%ADD14R,0.551169X0.551169*%
%ADD15R,0.549866X0.551119*%
%ADD16R,0.550306X0.549963*%
%ADD17C,0.120000*%
%ADD18R,2.489200X2.235200*%


D10*
X233043Y187625D03*
X250043Y187625D03*
X232973Y417416D03*
X249973Y417416D03*
X91945Y417416D03*
X108945Y417416D03*
X92000Y187625D03*
X109000Y187625D03*
X163803Y86836D03*
X146803Y86836D03*
D11*
X42956Y204240D03*
X47956Y204240D03*
X52956Y204240D03*
X57956Y204240D03*
X62956Y204240D03*
X67956Y204240D03*
X72956Y204240D03*
X77956Y204240D03*
X82956Y204240D03*
X87956Y204240D03*
X92956Y204240D03*
X97956Y204240D03*
X102956Y204240D03*
X107956Y204240D03*
X112956Y204240D03*
X117956Y204240D03*
X122956Y204240D03*
X127956Y204240D03*
X132956Y204240D03*
X137956Y204240D03*
X142956Y204240D03*
X147956Y204240D03*
X152956Y204240D03*
X157956Y204240D03*
X157956Y400740D03*
X152956Y400740D03*
X147956Y400740D03*
X142956Y400740D03*
X137956Y400740D03*
X132956Y400740D03*
X127956Y400740D03*
X122956Y400740D03*
X117956Y400740D03*
X112956Y400740D03*
X107956Y400740D03*
X102956Y400740D03*
X97956Y400740D03*
X92956Y400740D03*
X87956Y400740D03*
X82956Y400740D03*
X77956Y400740D03*
X72956Y400740D03*
X67956Y400740D03*
X62956Y400740D03*
X57956Y400740D03*
X52956Y400740D03*
X47956Y400740D03*
X42956Y400740D03*
X183956Y204240D03*
X188956Y204240D03*
X193956Y204240D03*
X198956Y204240D03*
X203956Y204240D03*
X208956Y204240D03*
X213956Y204240D03*
X218956Y204240D03*
X223956Y204240D03*
X228956Y204240D03*
X233956Y204240D03*
X238956Y204240D03*
X243956Y204240D03*
X248956Y204240D03*
X253956Y204240D03*
X258956Y204240D03*
X263956Y204240D03*
X268956Y204240D03*
X273956Y204240D03*
X278956Y204240D03*
X283956Y204240D03*
X288956Y204240D03*
X293956Y204240D03*
X298956Y204240D03*
X298956Y400740D03*
X293956Y400740D03*
X288956Y400740D03*
X283956Y400740D03*
X278956Y400740D03*
X273956Y400740D03*
X268956Y400740D03*
X263956Y400740D03*
X258956Y400740D03*
X253956Y400740D03*
X248956Y400740D03*
X243956Y400740D03*
X238956Y400740D03*
X233956Y400740D03*
X228956Y400740D03*
X223956Y400740D03*
X218956Y400740D03*
X213956Y400740D03*
X208956Y400740D03*
X203956Y400740D03*
X198956Y400740D03*
X193956Y400740D03*
X188956Y400740D03*
X183956Y400740D03*
D12*
X250029Y172035D03*
X233029Y172035D03*
X302101Y128035D03*
X319101Y128035D03*
D13*
X158892Y125756D03*
D14*
X151885Y118749D03*
D15*
X151886Y125756D03*
D16*
X158891Y118753D03*
D17*
X143441Y130655D02*
X137441Y130655D01*
X137441Y131855D01*
X143441Y131855D01*
X143441Y130655D01*
X143441Y131854D02*
X137441Y131854D01*
X137441Y126155D02*
X143441Y126155D01*
X137441Y126155D02*
X137441Y127355D01*
X143441Y127355D01*
X143441Y126155D01*
X143441Y127354D02*
X137441Y127354D01*
X137441Y121655D02*
X143441Y121655D01*
X137441Y121655D02*
X137441Y122855D01*
X143441Y122855D01*
X143441Y121655D01*
X143441Y122854D02*
X137441Y122854D01*
X137441Y117155D02*
X143441Y117155D01*
X137441Y117155D02*
X137441Y118355D01*
X143441Y118355D01*
X143441Y117155D01*
X143441Y118354D02*
X137441Y118354D01*
X137441Y112655D02*
X143441Y112655D01*
X137441Y112655D02*
X137441Y113855D01*
X143441Y113855D01*
X143441Y112655D01*
X143441Y113854D02*
X137441Y113854D01*
X146991Y110305D02*
X146991Y104305D01*
X145791Y104305D01*
X145791Y110305D01*
X146991Y110305D01*
X146991Y105504D02*
X145791Y105504D01*
X145791Y106703D02*
X146991Y106703D01*
X146991Y107902D02*
X145791Y107902D01*
X145791Y109101D02*
X146991Y109101D01*
X146991Y110300D02*
X145791Y110300D01*
X151491Y110305D02*
X151491Y104305D01*
X150291Y104305D01*
X150291Y110305D01*
X151491Y110305D01*
X151491Y105504D02*
X150291Y105504D01*
X150291Y106703D02*
X151491Y106703D01*
X151491Y107902D02*
X150291Y107902D01*
X150291Y109101D02*
X151491Y109101D01*
X151491Y110300D02*
X150291Y110300D01*
X155991Y110305D02*
X155991Y104305D01*
X154791Y104305D01*
X154791Y110305D01*
X155991Y110305D01*
X155991Y105504D02*
X154791Y105504D01*
X154791Y106703D02*
X155991Y106703D01*
X155991Y107902D02*
X154791Y107902D01*
X154791Y109101D02*
X155991Y109101D01*
X155991Y110300D02*
X154791Y110300D01*
X160491Y110305D02*
X160491Y104305D01*
X159291Y104305D01*
X159291Y110305D01*
X160491Y110305D01*
X160491Y105504D02*
X159291Y105504D01*
X159291Y106703D02*
X160491Y106703D01*
X160491Y107902D02*
X159291Y107902D01*
X159291Y109101D02*
X160491Y109101D01*
X160491Y110300D02*
X159291Y110300D01*
X164991Y110305D02*
X164991Y104305D01*
X163791Y104305D01*
X163791Y110305D01*
X164991Y110305D01*
X164991Y105504D02*
X163791Y105504D01*
X163791Y106703D02*
X164991Y106703D01*
X164991Y107902D02*
X163791Y107902D01*
X163791Y109101D02*
X164991Y109101D01*
X164991Y110300D02*
X163791Y110300D01*
X167341Y113855D02*
X173341Y113855D01*
X173341Y112655D01*
X167341Y112655D01*
X167341Y113855D01*
X167341Y113854D02*
X173341Y113854D01*
X173341Y118355D02*
X167341Y118355D01*
X173341Y118355D02*
X173341Y117155D01*
X167341Y117155D01*
X167341Y118355D01*
X167341Y118354D02*
X173341Y118354D01*
X173341Y122855D02*
X167341Y122855D01*
X173341Y122855D02*
X173341Y121655D01*
X167341Y121655D01*
X167341Y122855D01*
X167341Y122854D02*
X173341Y122854D01*
X173341Y127355D02*
X167341Y127355D01*
X173341Y127355D02*
X173341Y126155D01*
X167341Y126155D01*
X167341Y127355D01*
X167341Y127354D02*
X173341Y127354D01*
X173341Y131855D02*
X167341Y131855D01*
X173341Y131855D02*
X173341Y130655D01*
X167341Y130655D01*
X167341Y131855D01*
X167341Y131854D02*
X173341Y131854D01*
X163791Y134205D02*
X163791Y140205D01*
X164991Y140205D01*
X164991Y134205D01*
X163791Y134205D01*
X163791Y135404D02*
X164991Y135404D01*
X164991Y136603D02*
X163791Y136603D01*
X163791Y137802D02*
X164991Y137802D01*
X164991Y139001D02*
X163791Y139001D01*
X163791Y140200D02*
X164991Y140200D01*
X159291Y140205D02*
X159291Y134205D01*
X159291Y140205D02*
X160491Y140205D01*
X160491Y134205D01*
X159291Y134205D01*
X159291Y135404D02*
X160491Y135404D01*
X160491Y136603D02*
X159291Y136603D01*
X159291Y137802D02*
X160491Y137802D01*
X160491Y139001D02*
X159291Y139001D01*
X159291Y140200D02*
X160491Y140200D01*
X154791Y140205D02*
X154791Y134205D01*
X154791Y140205D02*
X155991Y140205D01*
X155991Y134205D01*
X154791Y134205D01*
X154791Y135404D02*
X155991Y135404D01*
X155991Y136603D02*
X154791Y136603D01*
X154791Y137802D02*
X155991Y137802D01*
X155991Y139001D02*
X154791Y139001D01*
X154791Y140200D02*
X155991Y140200D01*
X150291Y140205D02*
X150291Y134205D01*
X150291Y140205D02*
X151491Y140205D01*
X151491Y134205D01*
X150291Y134205D01*
X150291Y135404D02*
X151491Y135404D01*
X151491Y136603D02*
X150291Y136603D01*
X150291Y137802D02*
X151491Y137802D01*
X151491Y139001D02*
X150291Y139001D01*
X150291Y140200D02*
X151491Y140200D01*
X145791Y140205D02*
X145791Y134205D01*
X145791Y140205D02*
X146991Y140205D01*
X146991Y134205D01*
X145791Y134205D01*
X145791Y135404D02*
X146991Y135404D01*
X146991Y136603D02*
X145791Y136603D01*
X145791Y137802D02*
X146991Y137802D01*
X146991Y139001D02*
X145791Y139001D01*
X145791Y140200D02*
X146991Y140200D01*
D12*
X109111Y172035D03*
X92111Y172035D03*
D18*
X131497Y57075D03*
X161593Y57675D03*
M02*
