G04 EAGLE Gerber X2 export*
G75*
%MOMM*%
%FSLAX34Y34*%
%LPD*%
%AMOC8*
5,1,8,0,0,1.08239X$1,22.5*%
G01*
%ADD10C,0.076200*%
%ADD11C,0.000000*%
%ADD12C,0.254000*%


D10*
X324917Y5599D02*
X325101Y5601D01*
X325284Y5608D01*
X325468Y5619D01*
X325651Y5634D01*
X325833Y5654D01*
X326015Y5679D01*
X326197Y5707D01*
X326377Y5741D01*
X326557Y5778D01*
X326736Y5820D01*
X326914Y5866D01*
X327090Y5916D01*
X327266Y5971D01*
X327439Y6030D01*
X327612Y6093D01*
X327783Y6160D01*
X327952Y6231D01*
X328120Y6307D01*
X328285Y6386D01*
X328449Y6470D01*
X328610Y6557D01*
X328770Y6648D01*
X328927Y6743D01*
X329082Y6842D01*
X329234Y6944D01*
X329384Y7050D01*
X329531Y7160D01*
X329676Y7273D01*
X329818Y7390D01*
X329957Y7510D01*
X330093Y7634D01*
X330226Y7760D01*
X330356Y7890D01*
X330482Y8023D01*
X330606Y8159D01*
X330726Y8298D01*
X330843Y8440D01*
X330956Y8585D01*
X331066Y8732D01*
X331172Y8882D01*
X331274Y9034D01*
X331373Y9189D01*
X331468Y9346D01*
X331559Y9506D01*
X331646Y9667D01*
X331730Y9831D01*
X331809Y9996D01*
X331885Y10164D01*
X331956Y10333D01*
X332023Y10504D01*
X332086Y10677D01*
X332145Y10850D01*
X332200Y11026D01*
X332250Y11202D01*
X332296Y11380D01*
X332338Y11559D01*
X332375Y11739D01*
X332409Y11919D01*
X332437Y12101D01*
X332462Y12283D01*
X332482Y12465D01*
X332497Y12648D01*
X332508Y12832D01*
X332515Y13015D01*
X332517Y13199D01*
X332482Y49655D01*
X305582Y55583D02*
X265714Y55616D01*
X265562Y55618D01*
X265410Y55624D01*
X265259Y55634D01*
X265108Y55648D01*
X264957Y55666D01*
X264807Y55687D01*
X264657Y55713D01*
X264508Y55743D01*
X264360Y55776D01*
X264213Y55814D01*
X264067Y55855D01*
X263922Y55900D01*
X263778Y55949D01*
X263635Y56001D01*
X263494Y56057D01*
X263355Y56117D01*
X263217Y56181D01*
X263081Y56248D01*
X262946Y56319D01*
X262814Y56393D01*
X262684Y56471D01*
X262555Y56552D01*
X262429Y56636D01*
X262305Y56724D01*
X262183Y56815D01*
X262064Y56909D01*
X261947Y57006D01*
X261833Y57106D01*
X261722Y57209D01*
X261613Y57315D01*
X261507Y57424D01*
X261404Y57535D01*
X261304Y57649D01*
X261207Y57766D01*
X261113Y57885D01*
X261022Y58007D01*
X260934Y58131D01*
X260850Y58257D01*
X260769Y58386D01*
X260691Y58516D01*
X260617Y58648D01*
X260546Y58783D01*
X260479Y58919D01*
X260415Y59057D01*
X260355Y59196D01*
X260299Y59337D01*
X260247Y59480D01*
X260198Y59624D01*
X260153Y59769D01*
X260112Y59915D01*
X260074Y60062D01*
X260041Y60210D01*
X260011Y60359D01*
X259985Y60509D01*
X259964Y60659D01*
X259946Y60810D01*
X259932Y60961D01*
X259922Y61112D01*
X259916Y61264D01*
X259914Y61416D01*
X259912Y61542D01*
X259906Y61667D01*
X259896Y61792D01*
X259882Y61917D01*
X259865Y62042D01*
X259843Y62166D01*
X259818Y62289D01*
X259788Y62411D01*
X259755Y62532D01*
X259718Y62652D01*
X259678Y62771D01*
X259633Y62888D01*
X259585Y63005D01*
X259533Y63119D01*
X259478Y63232D01*
X259419Y63343D01*
X259357Y63452D01*
X259291Y63559D01*
X259222Y63664D01*
X259150Y63767D01*
X259075Y63868D01*
X258996Y63966D01*
X258914Y64061D01*
X258830Y64154D01*
X258742Y64244D01*
X258652Y64332D01*
X258559Y64416D01*
X258464Y64498D01*
X258366Y64577D01*
X258265Y64652D01*
X258162Y64724D01*
X258057Y64793D01*
X257950Y64859D01*
X257841Y64921D01*
X257730Y64980D01*
X257617Y65035D01*
X257503Y65087D01*
X257386Y65135D01*
X257269Y65180D01*
X257150Y65220D01*
X257030Y65257D01*
X256909Y65290D01*
X256787Y65320D01*
X256664Y65345D01*
X256540Y65367D01*
X256415Y65384D01*
X256290Y65398D01*
X256165Y65408D01*
X256040Y65414D01*
X255914Y65416D01*
X239514Y65416D01*
X209514Y35416D01*
X198114Y46816D01*
X223514Y73416D01*
X223819Y73743D01*
X224115Y74077D01*
X224404Y74419D01*
X224683Y74767D01*
X224954Y75122D01*
X225217Y75484D01*
X225470Y75851D01*
X225715Y76225D01*
X225950Y76605D01*
X226176Y76991D01*
X226392Y77381D01*
X226599Y77777D01*
X226796Y78178D01*
X226983Y78584D01*
X227160Y78994D01*
X227327Y79408D01*
X227484Y79827D01*
X227630Y80249D01*
X227766Y80674D01*
X227892Y81103D01*
X228007Y81534D01*
X228112Y81969D01*
X228206Y82405D01*
X228289Y82844D01*
X228362Y83285D01*
X228423Y83728D01*
X228474Y84171D01*
X228514Y84616D01*
X228514Y107816D01*
X228516Y107942D01*
X228522Y108067D01*
X228532Y108192D01*
X228546Y108317D01*
X228563Y108442D01*
X228585Y108566D01*
X228610Y108689D01*
X228640Y108811D01*
X228673Y108932D01*
X228710Y109052D01*
X228750Y109171D01*
X228795Y109288D01*
X228843Y109405D01*
X228895Y109519D01*
X228950Y109632D01*
X229009Y109743D01*
X229071Y109852D01*
X229137Y109959D01*
X229206Y110064D01*
X229278Y110167D01*
X229353Y110268D01*
X229432Y110366D01*
X229514Y110461D01*
X229598Y110554D01*
X229686Y110644D01*
X229776Y110732D01*
X229869Y110816D01*
X229964Y110898D01*
X230062Y110977D01*
X230163Y111052D01*
X230266Y111124D01*
X230371Y111193D01*
X230478Y111259D01*
X230587Y111321D01*
X230698Y111380D01*
X230811Y111435D01*
X230925Y111487D01*
X231042Y111535D01*
X231159Y111580D01*
X231278Y111620D01*
X231398Y111657D01*
X231519Y111690D01*
X231641Y111720D01*
X231764Y111745D01*
X231888Y111767D01*
X232013Y111784D01*
X232138Y111798D01*
X232263Y111808D01*
X232388Y111814D01*
X232514Y111816D01*
X281514Y111816D01*
X281640Y111814D01*
X281765Y111808D01*
X281890Y111798D01*
X282015Y111784D01*
X282140Y111767D01*
X282264Y111745D01*
X282387Y111720D01*
X282509Y111690D01*
X282630Y111657D01*
X282750Y111620D01*
X282869Y111580D01*
X282986Y111535D01*
X283103Y111487D01*
X283217Y111435D01*
X283330Y111380D01*
X283441Y111321D01*
X283550Y111259D01*
X283657Y111193D01*
X283762Y111124D01*
X283865Y111052D01*
X283966Y110977D01*
X284064Y110898D01*
X284159Y110816D01*
X284252Y110732D01*
X284342Y110644D01*
X284430Y110554D01*
X284514Y110461D01*
X284596Y110366D01*
X284675Y110268D01*
X284750Y110167D01*
X284822Y110064D01*
X284891Y109959D01*
X284957Y109852D01*
X285019Y109743D01*
X285078Y109632D01*
X285133Y109519D01*
X285185Y109405D01*
X285233Y109288D01*
X285278Y109171D01*
X285318Y109052D01*
X285355Y108932D01*
X285388Y108811D01*
X285418Y108689D01*
X285443Y108566D01*
X285465Y108442D01*
X285482Y108317D01*
X285496Y108192D01*
X285506Y108067D01*
X285512Y107942D01*
X285514Y107816D01*
X285514Y83016D01*
X305899Y82988D01*
X332482Y49655D02*
X332382Y457755D01*
X332379Y457968D01*
X332372Y458180D01*
X332359Y458392D01*
X332341Y458604D01*
X332318Y458816D01*
X332290Y459027D01*
X332256Y459237D01*
X332218Y459446D01*
X332175Y459654D01*
X332126Y459861D01*
X332073Y460067D01*
X332015Y460271D01*
X331951Y460474D01*
X331883Y460676D01*
X331810Y460876D01*
X331732Y461073D01*
X331650Y461269D01*
X331562Y461463D01*
X331471Y461655D01*
X331374Y461845D01*
X331273Y462032D01*
X331167Y462216D01*
X331057Y462398D01*
X330943Y462578D01*
X330824Y462754D01*
X330701Y462928D01*
X330574Y463098D01*
X330443Y463265D01*
X330308Y463430D01*
X330169Y463590D01*
X330026Y463748D01*
X329879Y463902D01*
X329729Y464052D01*
X329575Y464199D01*
X329417Y464342D01*
X329257Y464481D01*
X329092Y464616D01*
X328925Y464747D01*
X328755Y464874D01*
X328581Y464997D01*
X328405Y465116D01*
X328225Y465230D01*
X328043Y465340D01*
X327859Y465446D01*
X327672Y465547D01*
X327482Y465644D01*
X327290Y465735D01*
X327096Y465823D01*
X326900Y465905D01*
X326703Y465983D01*
X326503Y466056D01*
X326301Y466124D01*
X326098Y466188D01*
X325894Y466246D01*
X325688Y466299D01*
X325481Y466348D01*
X325273Y466391D01*
X325064Y466429D01*
X324854Y466463D01*
X324643Y466491D01*
X324431Y466514D01*
X324219Y466532D01*
X324007Y466545D01*
X323795Y466552D01*
X323582Y466555D01*
X15384Y466354D01*
X15167Y466351D01*
X14949Y466343D01*
X14732Y466330D01*
X14515Y466312D01*
X14299Y466288D01*
X14084Y466260D01*
X13869Y466226D01*
X13655Y466186D01*
X13442Y466142D01*
X13230Y466092D01*
X13020Y466038D01*
X12810Y465978D01*
X12603Y465914D01*
X12397Y465844D01*
X12193Y465769D01*
X11990Y465690D01*
X11790Y465605D01*
X11591Y465516D01*
X11395Y465422D01*
X11201Y465323D01*
X11010Y465220D01*
X10821Y465112D01*
X10635Y464999D01*
X10452Y464882D01*
X10271Y464761D01*
X10094Y464635D01*
X9920Y464505D01*
X9748Y464371D01*
X9580Y464233D01*
X9416Y464091D01*
X9255Y463944D01*
X9097Y463794D01*
X8944Y463641D01*
X8794Y463483D01*
X8647Y463322D01*
X8505Y463158D01*
X8367Y462990D01*
X8233Y462818D01*
X8103Y462644D01*
X7977Y462467D01*
X7856Y462286D01*
X7739Y462103D01*
X7626Y461917D01*
X7518Y461728D01*
X7415Y461537D01*
X7316Y461343D01*
X7222Y461147D01*
X7133Y460948D01*
X7048Y460748D01*
X6969Y460545D01*
X6894Y460341D01*
X6824Y460135D01*
X6760Y459928D01*
X6700Y459718D01*
X6646Y459508D01*
X6596Y459296D01*
X6552Y459083D01*
X6512Y458869D01*
X6478Y458654D01*
X6450Y458439D01*
X6426Y458223D01*
X6408Y458006D01*
X6395Y457789D01*
X6387Y457571D01*
X6384Y457354D01*
X6084Y11554D01*
X6086Y11370D01*
X6093Y11187D01*
X6104Y11003D01*
X6119Y10820D01*
X6139Y10638D01*
X6164Y10456D01*
X6192Y10274D01*
X6226Y10094D01*
X6263Y9914D01*
X6305Y9735D01*
X6351Y9557D01*
X6401Y9381D01*
X6456Y9205D01*
X6515Y9032D01*
X6578Y8859D01*
X6645Y8688D01*
X6716Y8519D01*
X6792Y8351D01*
X6871Y8186D01*
X6955Y8022D01*
X7042Y7861D01*
X7133Y7701D01*
X7228Y7544D01*
X7327Y7389D01*
X7429Y7237D01*
X7535Y7087D01*
X7645Y6940D01*
X7758Y6795D01*
X7875Y6653D01*
X7995Y6514D01*
X8119Y6378D01*
X8245Y6245D01*
X8375Y6115D01*
X8508Y5989D01*
X8644Y5865D01*
X8783Y5745D01*
X8925Y5628D01*
X9070Y5515D01*
X9217Y5405D01*
X9367Y5299D01*
X9519Y5197D01*
X9674Y5098D01*
X9831Y5003D01*
X9991Y4912D01*
X10152Y4825D01*
X10316Y4741D01*
X10481Y4662D01*
X10649Y4586D01*
X10818Y4515D01*
X10989Y4448D01*
X11162Y4385D01*
X11335Y4326D01*
X11511Y4271D01*
X11687Y4221D01*
X11865Y4175D01*
X12044Y4133D01*
X12224Y4096D01*
X12404Y4062D01*
X12586Y4034D01*
X12768Y4009D01*
X12950Y3989D01*
X13133Y3974D01*
X13317Y3963D01*
X13500Y3956D01*
X13684Y3954D01*
X62914Y4816D01*
X63060Y4818D01*
X63206Y4824D01*
X63352Y4834D01*
X63498Y4848D01*
X63643Y4865D01*
X63788Y4887D01*
X63932Y4913D01*
X64075Y4942D01*
X64217Y4976D01*
X64359Y5013D01*
X64499Y5054D01*
X64638Y5099D01*
X64776Y5147D01*
X64913Y5200D01*
X65048Y5255D01*
X65181Y5315D01*
X65313Y5378D01*
X65443Y5445D01*
X65572Y5515D01*
X65698Y5589D01*
X65822Y5666D01*
X65944Y5746D01*
X66064Y5830D01*
X66182Y5917D01*
X66297Y6007D01*
X66410Y6100D01*
X66520Y6197D01*
X66628Y6296D01*
X66732Y6398D01*
X66834Y6502D01*
X66933Y6610D01*
X67030Y6720D01*
X67123Y6833D01*
X67213Y6948D01*
X67300Y7066D01*
X67384Y7186D01*
X67464Y7308D01*
X67541Y7432D01*
X67615Y7558D01*
X67685Y7687D01*
X67752Y7817D01*
X67815Y7949D01*
X67875Y8082D01*
X67930Y8217D01*
X67983Y8354D01*
X68031Y8492D01*
X68076Y8631D01*
X68117Y8771D01*
X68154Y8913D01*
X68188Y9055D01*
X68217Y9198D01*
X68243Y9342D01*
X68265Y9487D01*
X68282Y9632D01*
X68296Y9778D01*
X68306Y9924D01*
X68312Y10070D01*
X68314Y10216D01*
X68314Y136416D01*
X68316Y136538D01*
X68322Y136659D01*
X68332Y136781D01*
X68345Y136902D01*
X68363Y137022D01*
X68384Y137142D01*
X68409Y137262D01*
X68438Y137380D01*
X68471Y137497D01*
X68508Y137613D01*
X68548Y137728D01*
X68592Y137842D01*
X68639Y137954D01*
X68690Y138065D01*
X68745Y138174D01*
X68803Y138281D01*
X68864Y138386D01*
X68929Y138489D01*
X68997Y138590D01*
X69069Y138689D01*
X69143Y138785D01*
X69221Y138879D01*
X69301Y138971D01*
X69384Y139060D01*
X69470Y139146D01*
X69559Y139229D01*
X69651Y139309D01*
X69745Y139387D01*
X69841Y139461D01*
X69940Y139533D01*
X70041Y139601D01*
X70144Y139666D01*
X70249Y139727D01*
X70356Y139785D01*
X70465Y139840D01*
X70576Y139891D01*
X70688Y139938D01*
X70802Y139982D01*
X70917Y140022D01*
X71033Y140059D01*
X71150Y140092D01*
X71268Y140121D01*
X71388Y140146D01*
X71508Y140167D01*
X71628Y140185D01*
X71749Y140198D01*
X71871Y140208D01*
X71992Y140214D01*
X72114Y140216D01*
X93514Y140216D01*
X93660Y140214D01*
X93806Y140208D01*
X93952Y140198D01*
X94098Y140184D01*
X94243Y140167D01*
X94388Y140145D01*
X94532Y140119D01*
X94675Y140090D01*
X94817Y140056D01*
X94959Y140019D01*
X95099Y139978D01*
X95238Y139933D01*
X95376Y139885D01*
X95513Y139832D01*
X95648Y139777D01*
X95781Y139717D01*
X95913Y139654D01*
X96043Y139587D01*
X96172Y139517D01*
X96298Y139443D01*
X96422Y139366D01*
X96544Y139286D01*
X96664Y139202D01*
X96782Y139115D01*
X96897Y139025D01*
X97010Y138932D01*
X97120Y138835D01*
X97228Y138736D01*
X97332Y138634D01*
X97434Y138530D01*
X97533Y138422D01*
X97630Y138312D01*
X97723Y138199D01*
X97813Y138084D01*
X97900Y137966D01*
X97984Y137846D01*
X98064Y137724D01*
X98141Y137600D01*
X98215Y137474D01*
X98285Y137345D01*
X98352Y137215D01*
X98415Y137083D01*
X98475Y136950D01*
X98530Y136815D01*
X98583Y136678D01*
X98631Y136540D01*
X98676Y136401D01*
X98717Y136261D01*
X98754Y136119D01*
X98788Y135977D01*
X98817Y135834D01*
X98843Y135690D01*
X98865Y135545D01*
X98882Y135400D01*
X98896Y135254D01*
X98906Y135108D01*
X98912Y134962D01*
X98914Y134816D01*
X98914Y13416D01*
X98916Y13228D01*
X98923Y13039D01*
X98934Y12851D01*
X98950Y12663D01*
X98971Y12476D01*
X98996Y12289D01*
X99025Y12103D01*
X99059Y11917D01*
X99098Y11733D01*
X99141Y11549D01*
X99188Y11367D01*
X99240Y11186D01*
X99296Y11006D01*
X99356Y10827D01*
X99421Y10650D01*
X99490Y10475D01*
X99563Y10301D01*
X99640Y10129D01*
X99722Y9959D01*
X99807Y9791D01*
X99897Y9625D01*
X99991Y9462D01*
X100088Y9300D01*
X100190Y9142D01*
X100295Y8985D01*
X100404Y8831D01*
X100516Y8680D01*
X100633Y8532D01*
X100752Y8386D01*
X100876Y8244D01*
X101002Y8104D01*
X101132Y7968D01*
X101266Y7834D01*
X101402Y7704D01*
X101542Y7578D01*
X101684Y7454D01*
X101830Y7335D01*
X101978Y7218D01*
X102129Y7106D01*
X102283Y6997D01*
X102440Y6892D01*
X102598Y6790D01*
X102760Y6693D01*
X102923Y6599D01*
X103089Y6509D01*
X103257Y6424D01*
X103427Y6342D01*
X103599Y6265D01*
X103773Y6192D01*
X103948Y6123D01*
X104125Y6058D01*
X104304Y5998D01*
X104484Y5942D01*
X104665Y5890D01*
X104847Y5843D01*
X105031Y5800D01*
X105215Y5761D01*
X105401Y5727D01*
X105587Y5698D01*
X105774Y5673D01*
X105961Y5652D01*
X106149Y5636D01*
X106337Y5625D01*
X106526Y5618D01*
X106714Y5616D01*
X324917Y5599D01*
D11*
X231716Y130960D02*
X231719Y131230D01*
X231729Y131500D01*
X231746Y131769D01*
X231769Y132038D01*
X231799Y132307D01*
X231835Y132574D01*
X231878Y132841D01*
X231927Y133106D01*
X231983Y133370D01*
X232046Y133633D01*
X232114Y133894D01*
X232190Y134153D01*
X232271Y134410D01*
X232359Y134666D01*
X232453Y134919D01*
X232553Y135170D01*
X232660Y135418D01*
X232772Y135663D01*
X232891Y135906D01*
X233015Y136145D01*
X233145Y136382D01*
X233281Y136615D01*
X233423Y136845D01*
X233570Y137071D01*
X233723Y137294D01*
X233881Y137513D01*
X234044Y137728D01*
X234213Y137938D01*
X234387Y138145D01*
X234566Y138347D01*
X234749Y138545D01*
X234938Y138738D01*
X235131Y138927D01*
X235329Y139110D01*
X235531Y139289D01*
X235738Y139463D01*
X235948Y139632D01*
X236163Y139795D01*
X236382Y139953D01*
X236605Y140106D01*
X236831Y140253D01*
X237061Y140395D01*
X237294Y140531D01*
X237531Y140661D01*
X237770Y140785D01*
X238013Y140904D01*
X238258Y141016D01*
X238506Y141123D01*
X238757Y141223D01*
X239010Y141317D01*
X239266Y141405D01*
X239523Y141486D01*
X239782Y141562D01*
X240043Y141630D01*
X240306Y141693D01*
X240570Y141749D01*
X240835Y141798D01*
X241102Y141841D01*
X241369Y141877D01*
X241638Y141907D01*
X241907Y141930D01*
X242176Y141947D01*
X242446Y141957D01*
X242716Y141960D01*
X242986Y141957D01*
X243256Y141947D01*
X243525Y141930D01*
X243794Y141907D01*
X244063Y141877D01*
X244330Y141841D01*
X244597Y141798D01*
X244862Y141749D01*
X245126Y141693D01*
X245389Y141630D01*
X245650Y141562D01*
X245909Y141486D01*
X246166Y141405D01*
X246422Y141317D01*
X246675Y141223D01*
X246926Y141123D01*
X247174Y141016D01*
X247419Y140904D01*
X247662Y140785D01*
X247901Y140661D01*
X248138Y140531D01*
X248371Y140395D01*
X248601Y140253D01*
X248827Y140106D01*
X249050Y139953D01*
X249269Y139795D01*
X249484Y139632D01*
X249694Y139463D01*
X249901Y139289D01*
X250103Y139110D01*
X250301Y138927D01*
X250494Y138738D01*
X250683Y138545D01*
X250866Y138347D01*
X251045Y138145D01*
X251219Y137938D01*
X251388Y137728D01*
X251551Y137513D01*
X251709Y137294D01*
X251862Y137071D01*
X252009Y136845D01*
X252151Y136615D01*
X252287Y136382D01*
X252417Y136145D01*
X252541Y135906D01*
X252660Y135663D01*
X252772Y135418D01*
X252879Y135170D01*
X252979Y134919D01*
X253073Y134666D01*
X253161Y134410D01*
X253242Y134153D01*
X253318Y133894D01*
X253386Y133633D01*
X253449Y133370D01*
X253505Y133106D01*
X253554Y132841D01*
X253597Y132574D01*
X253633Y132307D01*
X253663Y132038D01*
X253686Y131769D01*
X253703Y131500D01*
X253713Y131230D01*
X253716Y130960D01*
X253713Y130690D01*
X253703Y130420D01*
X253686Y130151D01*
X253663Y129882D01*
X253633Y129613D01*
X253597Y129346D01*
X253554Y129079D01*
X253505Y128814D01*
X253449Y128550D01*
X253386Y128287D01*
X253318Y128026D01*
X253242Y127767D01*
X253161Y127510D01*
X253073Y127254D01*
X252979Y127001D01*
X252879Y126750D01*
X252772Y126502D01*
X252660Y126257D01*
X252541Y126014D01*
X252417Y125775D01*
X252287Y125538D01*
X252151Y125305D01*
X252009Y125075D01*
X251862Y124849D01*
X251709Y124626D01*
X251551Y124407D01*
X251388Y124192D01*
X251219Y123982D01*
X251045Y123775D01*
X250866Y123573D01*
X250683Y123375D01*
X250494Y123182D01*
X250301Y122993D01*
X250103Y122810D01*
X249901Y122631D01*
X249694Y122457D01*
X249484Y122288D01*
X249269Y122125D01*
X249050Y121967D01*
X248827Y121814D01*
X248601Y121667D01*
X248371Y121525D01*
X248138Y121389D01*
X247901Y121259D01*
X247662Y121135D01*
X247419Y121016D01*
X247174Y120904D01*
X246926Y120797D01*
X246675Y120697D01*
X246422Y120603D01*
X246166Y120515D01*
X245909Y120434D01*
X245650Y120358D01*
X245389Y120290D01*
X245126Y120227D01*
X244862Y120171D01*
X244597Y120122D01*
X244330Y120079D01*
X244063Y120043D01*
X243794Y120013D01*
X243525Y119990D01*
X243256Y119973D01*
X242986Y119963D01*
X242716Y119960D01*
X242446Y119963D01*
X242176Y119973D01*
X241907Y119990D01*
X241638Y120013D01*
X241369Y120043D01*
X241102Y120079D01*
X240835Y120122D01*
X240570Y120171D01*
X240306Y120227D01*
X240043Y120290D01*
X239782Y120358D01*
X239523Y120434D01*
X239266Y120515D01*
X239010Y120603D01*
X238757Y120697D01*
X238506Y120797D01*
X238258Y120904D01*
X238013Y121016D01*
X237770Y121135D01*
X237531Y121259D01*
X237294Y121389D01*
X237061Y121525D01*
X236831Y121667D01*
X236605Y121814D01*
X236382Y121967D01*
X236163Y122125D01*
X235948Y122288D01*
X235738Y122457D01*
X235531Y122631D01*
X235329Y122810D01*
X235131Y122993D01*
X234938Y123182D01*
X234749Y123375D01*
X234566Y123573D01*
X234387Y123775D01*
X234213Y123982D01*
X234044Y124192D01*
X233881Y124407D01*
X233723Y124626D01*
X233570Y124849D01*
X233423Y125075D01*
X233281Y125305D01*
X233145Y125538D01*
X233015Y125775D01*
X232891Y126014D01*
X232772Y126257D01*
X232660Y126502D01*
X232553Y126750D01*
X232453Y127001D01*
X232359Y127254D01*
X232271Y127510D01*
X232190Y127767D01*
X232114Y128026D01*
X232046Y128287D01*
X231983Y128550D01*
X231927Y128814D01*
X231878Y129079D01*
X231835Y129346D01*
X231799Y129613D01*
X231769Y129882D01*
X231746Y130151D01*
X231729Y130420D01*
X231719Y130690D01*
X231716Y130960D01*
X62583Y372960D02*
X62586Y373230D01*
X62596Y373500D01*
X62613Y373769D01*
X62636Y374038D01*
X62666Y374307D01*
X62702Y374574D01*
X62745Y374841D01*
X62794Y375106D01*
X62850Y375370D01*
X62913Y375633D01*
X62981Y375894D01*
X63057Y376153D01*
X63138Y376410D01*
X63226Y376666D01*
X63320Y376919D01*
X63420Y377170D01*
X63527Y377418D01*
X63639Y377663D01*
X63758Y377906D01*
X63882Y378145D01*
X64012Y378382D01*
X64148Y378615D01*
X64290Y378845D01*
X64437Y379071D01*
X64590Y379294D01*
X64748Y379513D01*
X64911Y379728D01*
X65080Y379938D01*
X65254Y380145D01*
X65433Y380347D01*
X65616Y380545D01*
X65805Y380738D01*
X65998Y380927D01*
X66196Y381110D01*
X66398Y381289D01*
X66605Y381463D01*
X66815Y381632D01*
X67030Y381795D01*
X67249Y381953D01*
X67472Y382106D01*
X67698Y382253D01*
X67928Y382395D01*
X68161Y382531D01*
X68398Y382661D01*
X68637Y382785D01*
X68880Y382904D01*
X69125Y383016D01*
X69373Y383123D01*
X69624Y383223D01*
X69877Y383317D01*
X70133Y383405D01*
X70390Y383486D01*
X70649Y383562D01*
X70910Y383630D01*
X71173Y383693D01*
X71437Y383749D01*
X71702Y383798D01*
X71969Y383841D01*
X72236Y383877D01*
X72505Y383907D01*
X72774Y383930D01*
X73043Y383947D01*
X73313Y383957D01*
X73583Y383960D01*
X73853Y383957D01*
X74123Y383947D01*
X74392Y383930D01*
X74661Y383907D01*
X74930Y383877D01*
X75197Y383841D01*
X75464Y383798D01*
X75729Y383749D01*
X75993Y383693D01*
X76256Y383630D01*
X76517Y383562D01*
X76776Y383486D01*
X77033Y383405D01*
X77289Y383317D01*
X77542Y383223D01*
X77793Y383123D01*
X78041Y383016D01*
X78286Y382904D01*
X78529Y382785D01*
X78768Y382661D01*
X79005Y382531D01*
X79238Y382395D01*
X79468Y382253D01*
X79694Y382106D01*
X79917Y381953D01*
X80136Y381795D01*
X80351Y381632D01*
X80561Y381463D01*
X80768Y381289D01*
X80970Y381110D01*
X81168Y380927D01*
X81361Y380738D01*
X81550Y380545D01*
X81733Y380347D01*
X81912Y380145D01*
X82086Y379938D01*
X82255Y379728D01*
X82418Y379513D01*
X82576Y379294D01*
X82729Y379071D01*
X82876Y378845D01*
X83018Y378615D01*
X83154Y378382D01*
X83284Y378145D01*
X83408Y377906D01*
X83527Y377663D01*
X83639Y377418D01*
X83746Y377170D01*
X83846Y376919D01*
X83940Y376666D01*
X84028Y376410D01*
X84109Y376153D01*
X84185Y375894D01*
X84253Y375633D01*
X84316Y375370D01*
X84372Y375106D01*
X84421Y374841D01*
X84464Y374574D01*
X84500Y374307D01*
X84530Y374038D01*
X84553Y373769D01*
X84570Y373500D01*
X84580Y373230D01*
X84583Y372960D01*
X84580Y372690D01*
X84570Y372420D01*
X84553Y372151D01*
X84530Y371882D01*
X84500Y371613D01*
X84464Y371346D01*
X84421Y371079D01*
X84372Y370814D01*
X84316Y370550D01*
X84253Y370287D01*
X84185Y370026D01*
X84109Y369767D01*
X84028Y369510D01*
X83940Y369254D01*
X83846Y369001D01*
X83746Y368750D01*
X83639Y368502D01*
X83527Y368257D01*
X83408Y368014D01*
X83284Y367775D01*
X83154Y367538D01*
X83018Y367305D01*
X82876Y367075D01*
X82729Y366849D01*
X82576Y366626D01*
X82418Y366407D01*
X82255Y366192D01*
X82086Y365982D01*
X81912Y365775D01*
X81733Y365573D01*
X81550Y365375D01*
X81361Y365182D01*
X81168Y364993D01*
X80970Y364810D01*
X80768Y364631D01*
X80561Y364457D01*
X80351Y364288D01*
X80136Y364125D01*
X79917Y363967D01*
X79694Y363814D01*
X79468Y363667D01*
X79238Y363525D01*
X79005Y363389D01*
X78768Y363259D01*
X78529Y363135D01*
X78286Y363016D01*
X78041Y362904D01*
X77793Y362797D01*
X77542Y362697D01*
X77289Y362603D01*
X77033Y362515D01*
X76776Y362434D01*
X76517Y362358D01*
X76256Y362290D01*
X75993Y362227D01*
X75729Y362171D01*
X75464Y362122D01*
X75197Y362079D01*
X74930Y362043D01*
X74661Y362013D01*
X74392Y361990D01*
X74123Y361973D01*
X73853Y361963D01*
X73583Y361960D01*
X73313Y361963D01*
X73043Y361973D01*
X72774Y361990D01*
X72505Y362013D01*
X72236Y362043D01*
X71969Y362079D01*
X71702Y362122D01*
X71437Y362171D01*
X71173Y362227D01*
X70910Y362290D01*
X70649Y362358D01*
X70390Y362434D01*
X70133Y362515D01*
X69877Y362603D01*
X69624Y362697D01*
X69373Y362797D01*
X69125Y362904D01*
X68880Y363016D01*
X68637Y363135D01*
X68398Y363259D01*
X68161Y363389D01*
X67928Y363525D01*
X67698Y363667D01*
X67472Y363814D01*
X67249Y363967D01*
X67030Y364125D01*
X66815Y364288D01*
X66605Y364457D01*
X66398Y364631D01*
X66196Y364810D01*
X65998Y364993D01*
X65805Y365182D01*
X65616Y365375D01*
X65433Y365573D01*
X65254Y365775D01*
X65080Y365982D01*
X64911Y366192D01*
X64748Y366407D01*
X64590Y366626D01*
X64437Y366849D01*
X64290Y367075D01*
X64148Y367305D01*
X64012Y367538D01*
X63882Y367775D01*
X63758Y368014D01*
X63639Y368257D01*
X63527Y368502D01*
X63420Y368750D01*
X63320Y369001D01*
X63226Y369254D01*
X63138Y369510D01*
X63057Y369767D01*
X62981Y370026D01*
X62913Y370287D01*
X62850Y370550D01*
X62794Y370814D01*
X62745Y371079D01*
X62702Y371346D01*
X62666Y371613D01*
X62636Y371882D01*
X62613Y372151D01*
X62596Y372420D01*
X62586Y372690D01*
X62583Y372960D01*
X18795Y74866D02*
X18798Y75084D01*
X18806Y75302D01*
X18819Y75520D01*
X18838Y75737D01*
X18862Y75954D01*
X18891Y76170D01*
X18926Y76386D01*
X18966Y76600D01*
X19011Y76814D01*
X19061Y77026D01*
X19117Y77237D01*
X19178Y77447D01*
X19244Y77655D01*
X19315Y77861D01*
X19391Y78065D01*
X19472Y78268D01*
X19558Y78469D01*
X19649Y78667D01*
X19744Y78863D01*
X19845Y79057D01*
X19950Y79248D01*
X20060Y79436D01*
X20174Y79622D01*
X20293Y79805D01*
X20417Y79985D01*
X20544Y80162D01*
X20677Y80335D01*
X20813Y80506D01*
X20953Y80673D01*
X21098Y80836D01*
X21246Y80996D01*
X21399Y81152D01*
X21555Y81305D01*
X21715Y81453D01*
X21878Y81598D01*
X22045Y81738D01*
X22216Y81874D01*
X22389Y82007D01*
X22566Y82134D01*
X22746Y82258D01*
X22929Y82377D01*
X23115Y82491D01*
X23303Y82601D01*
X23494Y82706D01*
X23688Y82807D01*
X23884Y82902D01*
X24082Y82993D01*
X24283Y83079D01*
X24486Y83160D01*
X24690Y83236D01*
X24896Y83307D01*
X25104Y83373D01*
X25314Y83434D01*
X25525Y83490D01*
X25737Y83540D01*
X25951Y83585D01*
X26165Y83625D01*
X26381Y83660D01*
X26597Y83689D01*
X26814Y83713D01*
X27031Y83732D01*
X27249Y83745D01*
X27467Y83753D01*
X27685Y83756D01*
X27903Y83753D01*
X28121Y83745D01*
X28339Y83732D01*
X28556Y83713D01*
X28773Y83689D01*
X28989Y83660D01*
X29205Y83625D01*
X29419Y83585D01*
X29633Y83540D01*
X29845Y83490D01*
X30056Y83434D01*
X30266Y83373D01*
X30474Y83307D01*
X30680Y83236D01*
X30884Y83160D01*
X31087Y83079D01*
X31288Y82993D01*
X31486Y82902D01*
X31682Y82807D01*
X31876Y82706D01*
X32067Y82601D01*
X32255Y82491D01*
X32441Y82377D01*
X32624Y82258D01*
X32804Y82134D01*
X32981Y82007D01*
X33154Y81874D01*
X33325Y81738D01*
X33492Y81598D01*
X33655Y81453D01*
X33815Y81305D01*
X33971Y81152D01*
X34124Y80996D01*
X34272Y80836D01*
X34417Y80673D01*
X34557Y80506D01*
X34693Y80335D01*
X34826Y80162D01*
X34953Y79985D01*
X35077Y79805D01*
X35196Y79622D01*
X35310Y79436D01*
X35420Y79248D01*
X35525Y79057D01*
X35626Y78863D01*
X35721Y78667D01*
X35812Y78469D01*
X35898Y78268D01*
X35979Y78065D01*
X36055Y77861D01*
X36126Y77655D01*
X36192Y77447D01*
X36253Y77237D01*
X36309Y77026D01*
X36359Y76814D01*
X36404Y76600D01*
X36444Y76386D01*
X36479Y76170D01*
X36508Y75954D01*
X36532Y75737D01*
X36551Y75520D01*
X36564Y75302D01*
X36572Y75084D01*
X36575Y74866D01*
X36572Y74648D01*
X36564Y74430D01*
X36551Y74212D01*
X36532Y73995D01*
X36508Y73778D01*
X36479Y73562D01*
X36444Y73346D01*
X36404Y73132D01*
X36359Y72918D01*
X36309Y72706D01*
X36253Y72495D01*
X36192Y72285D01*
X36126Y72077D01*
X36055Y71871D01*
X35979Y71667D01*
X35898Y71464D01*
X35812Y71263D01*
X35721Y71065D01*
X35626Y70869D01*
X35525Y70675D01*
X35420Y70484D01*
X35310Y70296D01*
X35196Y70110D01*
X35077Y69927D01*
X34953Y69747D01*
X34826Y69570D01*
X34693Y69397D01*
X34557Y69226D01*
X34417Y69059D01*
X34272Y68896D01*
X34124Y68736D01*
X33971Y68580D01*
X33815Y68427D01*
X33655Y68279D01*
X33492Y68134D01*
X33325Y67994D01*
X33154Y67858D01*
X32981Y67725D01*
X32804Y67598D01*
X32624Y67474D01*
X32441Y67355D01*
X32255Y67241D01*
X32067Y67131D01*
X31876Y67026D01*
X31682Y66925D01*
X31486Y66830D01*
X31288Y66739D01*
X31087Y66653D01*
X30884Y66572D01*
X30680Y66496D01*
X30474Y66425D01*
X30266Y66359D01*
X30056Y66298D01*
X29845Y66242D01*
X29633Y66192D01*
X29419Y66147D01*
X29205Y66107D01*
X28989Y66072D01*
X28773Y66043D01*
X28556Y66019D01*
X28339Y66000D01*
X28121Y65987D01*
X27903Y65979D01*
X27685Y65976D01*
X27467Y65979D01*
X27249Y65987D01*
X27031Y66000D01*
X26814Y66019D01*
X26597Y66043D01*
X26381Y66072D01*
X26165Y66107D01*
X25951Y66147D01*
X25737Y66192D01*
X25525Y66242D01*
X25314Y66298D01*
X25104Y66359D01*
X24896Y66425D01*
X24690Y66496D01*
X24486Y66572D01*
X24283Y66653D01*
X24082Y66739D01*
X23884Y66830D01*
X23688Y66925D01*
X23494Y67026D01*
X23303Y67131D01*
X23115Y67241D01*
X22929Y67355D01*
X22746Y67474D01*
X22566Y67598D01*
X22389Y67725D01*
X22216Y67858D01*
X22045Y67994D01*
X21878Y68134D01*
X21715Y68279D01*
X21555Y68427D01*
X21399Y68580D01*
X21246Y68736D01*
X21098Y68896D01*
X20953Y69059D01*
X20813Y69226D01*
X20677Y69397D01*
X20544Y69570D01*
X20417Y69747D01*
X20293Y69927D01*
X20174Y70110D01*
X20060Y70296D01*
X19950Y70484D01*
X19845Y70675D01*
X19744Y70869D01*
X19649Y71065D01*
X19558Y71263D01*
X19472Y71464D01*
X19391Y71667D01*
X19315Y71871D01*
X19244Y72077D01*
X19178Y72285D01*
X19117Y72495D01*
X19061Y72706D01*
X19011Y72918D01*
X18966Y73132D01*
X18926Y73346D01*
X18891Y73562D01*
X18862Y73778D01*
X18838Y73995D01*
X18819Y74212D01*
X18806Y74430D01*
X18798Y74648D01*
X18795Y74866D01*
D10*
X309103Y79784D02*
X309081Y58552D01*
X309103Y79784D02*
X309101Y79896D01*
X309095Y80007D01*
X309085Y80119D01*
X309072Y80230D01*
X309054Y80340D01*
X309033Y80450D01*
X309008Y80559D01*
X308979Y80667D01*
X308946Y80774D01*
X308910Y80880D01*
X308870Y80984D01*
X308826Y81087D01*
X308779Y81189D01*
X308728Y81288D01*
X308674Y81386D01*
X308616Y81482D01*
X308555Y81576D01*
X308491Y81667D01*
X308424Y81757D01*
X308353Y81843D01*
X308280Y81928D01*
X308204Y82010D01*
X308125Y82089D01*
X308043Y82165D01*
X307958Y82238D01*
X307872Y82309D01*
X307782Y82376D01*
X307691Y82440D01*
X307597Y82501D01*
X307501Y82559D01*
X307403Y82613D01*
X307304Y82664D01*
X307202Y82711D01*
X307099Y82755D01*
X306995Y82795D01*
X306889Y82831D01*
X306782Y82864D01*
X306674Y82893D01*
X306565Y82918D01*
X306455Y82939D01*
X306345Y82957D01*
X306234Y82970D01*
X306122Y82980D01*
X306011Y82986D01*
X305899Y82988D01*
X305572Y55583D02*
X305582Y55583D01*
X306111Y55583D01*
X306111Y55582D02*
X306217Y55584D01*
X306323Y55590D01*
X306428Y55599D01*
X306534Y55612D01*
X306638Y55629D01*
X306742Y55650D01*
X306846Y55674D01*
X306948Y55702D01*
X307049Y55734D01*
X307149Y55769D01*
X307248Y55808D01*
X307345Y55850D01*
X307440Y55896D01*
X307534Y55945D01*
X307627Y55998D01*
X307717Y56053D01*
X307805Y56112D01*
X307891Y56174D01*
X307975Y56239D01*
X308056Y56307D01*
X308135Y56378D01*
X308211Y56452D01*
X308285Y56528D01*
X308356Y56607D01*
X308424Y56688D01*
X308489Y56772D01*
X308551Y56858D01*
X308610Y56946D01*
X308665Y57036D01*
X308718Y57129D01*
X308767Y57223D01*
X308813Y57318D01*
X308855Y57415D01*
X308894Y57514D01*
X308929Y57614D01*
X308961Y57715D01*
X308989Y57817D01*
X309013Y57921D01*
X309034Y58025D01*
X309051Y58129D01*
X309064Y58235D01*
X309073Y58340D01*
X309079Y58446D01*
X309081Y58552D01*
D12*
X6084Y11554D02*
X6113Y10892D01*
X6199Y10234D01*
X6343Y9587D01*
X6542Y8955D01*
X6796Y8342D01*
X7102Y7754D01*
X7458Y7195D01*
X7862Y6669D01*
X8310Y6180D01*
X8799Y5732D01*
X9325Y5329D01*
X9884Y4972D01*
X10472Y4666D01*
X11085Y4412D01*
X11717Y4213D01*
X12364Y4070D01*
X13021Y3983D01*
X13684Y3954D01*
X62914Y4816D01*
X63385Y4837D01*
X63852Y4898D01*
X64312Y5000D01*
X64761Y5142D01*
X65197Y5322D01*
X65614Y5539D01*
X66012Y5793D01*
X66385Y6079D01*
X66733Y6398D01*
X67051Y6745D01*
X67338Y7119D01*
X67591Y7516D01*
X67808Y7934D01*
X67989Y8369D01*
X68130Y8818D01*
X68232Y9278D01*
X68294Y9745D01*
X68314Y10216D01*
X68314Y136416D01*
X68329Y136747D01*
X68372Y137076D01*
X68444Y137400D01*
X68544Y137716D01*
X68670Y138022D01*
X68824Y138316D01*
X69002Y138596D01*
X69203Y138859D01*
X69427Y139103D01*
X69672Y139327D01*
X69935Y139529D01*
X70214Y139707D01*
X70508Y139860D01*
X70815Y139987D01*
X71131Y140087D01*
X71455Y140158D01*
X71783Y140202D01*
X72114Y140216D01*
X93514Y140216D01*
X93985Y140195D01*
X94452Y140134D01*
X94912Y140032D01*
X95361Y139890D01*
X95797Y139710D01*
X96214Y139493D01*
X96612Y139239D01*
X96985Y138953D01*
X97333Y138634D01*
X97651Y138287D01*
X97938Y137913D01*
X98191Y137516D01*
X98408Y137098D01*
X98589Y136663D01*
X98730Y136214D01*
X98832Y135754D01*
X98894Y135287D01*
X98914Y134816D01*
X98914Y13416D01*
X98944Y12736D01*
X99033Y12062D01*
X99180Y11397D01*
X99385Y10748D01*
X99645Y10120D01*
X99959Y9516D01*
X100325Y8942D01*
X100739Y8402D01*
X101199Y7901D01*
X101701Y7441D01*
X102241Y7027D01*
X102814Y6661D01*
X103418Y6347D01*
X104047Y6086D01*
X104696Y5882D01*
X105360Y5735D01*
X106035Y5646D01*
X106714Y5616D01*
X324917Y5599D01*
X325579Y5628D01*
X326236Y5715D01*
X326884Y5858D01*
X327516Y6058D01*
X328129Y6311D01*
X328717Y6618D01*
X329276Y6974D01*
X329802Y7377D01*
X330291Y7825D01*
X330739Y8314D01*
X331142Y8840D01*
X331498Y9399D01*
X331805Y9987D01*
X332058Y10600D01*
X332258Y11232D01*
X332401Y11880D01*
X332488Y12537D01*
X332517Y13199D01*
X332482Y49655D01*
X332382Y457755D01*
X332349Y458522D01*
X332248Y459283D01*
X332082Y460032D01*
X331851Y460764D01*
X331558Y461474D01*
X331203Y462155D01*
X330791Y462802D01*
X330323Y463411D01*
X329805Y463977D01*
X329239Y464496D01*
X328630Y464963D01*
X327982Y465376D01*
X327301Y465730D01*
X326592Y466024D01*
X325860Y466255D01*
X325110Y466421D01*
X324349Y466521D01*
X323582Y466555D01*
X15384Y466354D01*
X14599Y466320D01*
X13821Y466217D01*
X13054Y466047D01*
X12306Y465811D01*
X11580Y465511D01*
X10884Y465148D01*
X10222Y464726D01*
X9599Y464249D01*
X9020Y463718D01*
X8489Y463139D01*
X8011Y462516D01*
X7590Y461854D01*
X7227Y461158D01*
X6927Y460432D01*
X6691Y459683D01*
X6521Y458917D01*
X6418Y458139D01*
X6384Y457354D01*
X6084Y11554D01*
X198114Y46816D02*
X209514Y35416D01*
X239514Y65416D01*
X255914Y65416D01*
X256263Y65401D01*
X256609Y65355D01*
X256950Y65280D01*
X257283Y65175D01*
X257605Y65041D01*
X257914Y64880D01*
X258209Y64693D01*
X258486Y64480D01*
X258743Y64244D01*
X258979Y63987D01*
X259191Y63710D01*
X259379Y63416D01*
X259540Y63106D01*
X259673Y62784D01*
X259778Y62451D01*
X259854Y62111D01*
X259899Y61765D01*
X259914Y61416D01*
X259936Y60911D01*
X260003Y60409D01*
X260112Y59915D01*
X260264Y59432D01*
X260458Y58965D01*
X260691Y58516D01*
X260963Y58089D01*
X261271Y57688D01*
X261613Y57315D01*
X261986Y56973D01*
X262388Y56665D01*
X262814Y56393D01*
X263263Y56159D01*
X263731Y55966D01*
X264213Y55814D01*
X264707Y55704D01*
X265209Y55638D01*
X265714Y55616D01*
X305582Y55583D01*
X306111Y55583D01*
X306370Y55594D01*
X306627Y55628D01*
X306880Y55684D01*
X307127Y55762D01*
X307366Y55861D01*
X307596Y55981D01*
X307815Y56120D01*
X308020Y56278D01*
X308211Y56453D01*
X308386Y56644D01*
X308544Y56849D01*
X308683Y57068D01*
X308803Y57297D01*
X308902Y57537D01*
X308980Y57784D01*
X309036Y58037D01*
X309070Y58294D01*
X309081Y58552D01*
X309103Y79784D01*
X309091Y80064D01*
X309054Y80341D01*
X308994Y80614D01*
X308910Y80880D01*
X308803Y81138D01*
X308674Y81386D01*
X308523Y81622D01*
X308353Y81844D01*
X308164Y82050D01*
X307958Y82239D01*
X307737Y82409D01*
X307501Y82559D01*
X307253Y82688D01*
X306995Y82795D01*
X306728Y82879D01*
X306455Y82939D01*
X306178Y82976D01*
X305899Y82988D01*
X285514Y83016D01*
X285514Y107816D01*
X285499Y108165D01*
X285454Y108511D01*
X285378Y108851D01*
X285273Y109184D01*
X285140Y109506D01*
X284979Y109816D01*
X284791Y110110D01*
X284579Y110387D01*
X284343Y110644D01*
X284086Y110880D01*
X283809Y111093D01*
X283514Y111280D01*
X283205Y111441D01*
X282883Y111575D01*
X282550Y111680D01*
X282209Y111755D01*
X281863Y111801D01*
X281514Y111816D01*
X232514Y111816D01*
X232166Y111801D01*
X231820Y111755D01*
X231479Y111680D01*
X231146Y111575D01*
X230824Y111441D01*
X230514Y111280D01*
X230220Y111093D01*
X229943Y110880D01*
X229686Y110644D01*
X229450Y110387D01*
X229238Y110110D01*
X229050Y109816D01*
X228889Y109506D01*
X228756Y109184D01*
X228651Y108851D01*
X228575Y108511D01*
X228530Y108165D01*
X228514Y107816D01*
X228514Y84616D01*
X228360Y83273D01*
X228051Y81710D01*
X227607Y80180D01*
X227032Y78694D01*
X226329Y77264D01*
X225504Y75901D01*
X224563Y74615D01*
X223514Y73416D01*
X198114Y46816D01*
X253716Y130528D02*
X253648Y129666D01*
X253513Y128813D01*
X253311Y127972D01*
X253044Y127150D01*
X252713Y126352D01*
X252321Y125581D01*
X251869Y124844D01*
X251361Y124145D01*
X250800Y123488D01*
X250188Y122877D01*
X249531Y122315D01*
X248832Y121807D01*
X248095Y121355D01*
X247325Y120963D01*
X246526Y120632D01*
X245704Y120365D01*
X244864Y120163D01*
X244010Y120028D01*
X243148Y119960D01*
X242284Y119960D01*
X241422Y120028D01*
X240568Y120163D01*
X239728Y120365D01*
X238906Y120632D01*
X238107Y120963D01*
X237337Y121355D01*
X236600Y121807D01*
X235901Y122315D01*
X235243Y122877D01*
X234632Y123488D01*
X234071Y124145D01*
X233563Y124844D01*
X233111Y125581D01*
X232719Y126352D01*
X232388Y127150D01*
X232121Y127972D01*
X231919Y128813D01*
X231784Y129666D01*
X231716Y130528D01*
X231716Y131393D01*
X231784Y132254D01*
X231919Y133108D01*
X232121Y133949D01*
X232388Y134771D01*
X232719Y135569D01*
X233111Y136339D01*
X233563Y137076D01*
X234071Y137776D01*
X234632Y138433D01*
X235243Y139044D01*
X235901Y139606D01*
X236600Y140114D01*
X237337Y140565D01*
X238107Y140958D01*
X238906Y141288D01*
X239728Y141556D01*
X240568Y141757D01*
X241422Y141893D01*
X242284Y141960D01*
X243148Y141960D01*
X244010Y141893D01*
X244864Y141757D01*
X245704Y141556D01*
X246526Y141288D01*
X247325Y140958D01*
X248095Y140565D01*
X248832Y140114D01*
X249531Y139606D01*
X250188Y139044D01*
X250800Y138433D01*
X251361Y137776D01*
X251869Y137076D01*
X252321Y136339D01*
X252713Y135569D01*
X253044Y134771D01*
X253311Y133949D01*
X253513Y133108D01*
X253648Y132254D01*
X253716Y131393D01*
X253716Y130528D01*
X84583Y372528D02*
X84516Y371666D01*
X84380Y370813D01*
X84179Y369972D01*
X83912Y369150D01*
X83581Y368352D01*
X83188Y367581D01*
X82737Y366844D01*
X82229Y366145D01*
X81667Y365488D01*
X81056Y364877D01*
X80399Y364315D01*
X79699Y363807D01*
X78962Y363355D01*
X78192Y362963D01*
X77394Y362632D01*
X76572Y362365D01*
X75731Y362163D01*
X74877Y362028D01*
X74016Y361960D01*
X73151Y361960D01*
X72290Y362028D01*
X71436Y362163D01*
X70595Y362365D01*
X69773Y362632D01*
X68975Y362963D01*
X68205Y363355D01*
X67467Y363807D01*
X66768Y364315D01*
X66111Y364877D01*
X65500Y365488D01*
X64938Y366145D01*
X64430Y366844D01*
X63979Y367581D01*
X63586Y368352D01*
X63255Y369150D01*
X62988Y369972D01*
X62787Y370813D01*
X62651Y371666D01*
X62583Y372528D01*
X62583Y373393D01*
X62651Y374254D01*
X62787Y375108D01*
X62988Y375949D01*
X63255Y376771D01*
X63586Y377569D01*
X63979Y378339D01*
X64430Y379076D01*
X64938Y379776D01*
X65500Y380433D01*
X66111Y381044D01*
X66768Y381606D01*
X67467Y382114D01*
X68205Y382565D01*
X68975Y382958D01*
X69773Y383288D01*
X70595Y383556D01*
X71436Y383757D01*
X72290Y383893D01*
X73151Y383960D01*
X74016Y383960D01*
X74877Y383893D01*
X75731Y383757D01*
X76572Y383556D01*
X77394Y383288D01*
X78192Y382958D01*
X78962Y382565D01*
X79699Y382114D01*
X80399Y381606D01*
X81056Y381044D01*
X81667Y380433D01*
X82229Y379776D01*
X82737Y379076D01*
X83188Y378339D01*
X83581Y377569D01*
X83912Y376771D01*
X84179Y375949D01*
X84380Y375108D01*
X84516Y374254D01*
X84583Y373393D01*
X84583Y372528D01*
X36575Y74478D02*
X36507Y73704D01*
X36372Y72940D01*
X36171Y72190D01*
X35906Y71460D01*
X35578Y70757D01*
X35190Y70085D01*
X34744Y69449D01*
X34245Y68854D01*
X33696Y68305D01*
X33102Y67806D01*
X32466Y67361D01*
X31794Y66973D01*
X31090Y66645D01*
X30361Y66379D01*
X29611Y66178D01*
X28846Y66043D01*
X28073Y65976D01*
X27297Y65976D01*
X26523Y66043D01*
X25759Y66178D01*
X25009Y66379D01*
X24279Y66645D01*
X23576Y66973D01*
X22904Y67361D01*
X22268Y67806D01*
X21673Y68305D01*
X21124Y68854D01*
X20625Y69449D01*
X20180Y70085D01*
X19792Y70757D01*
X19464Y71460D01*
X19198Y72190D01*
X18997Y72940D01*
X18862Y73704D01*
X18795Y74478D01*
X18795Y75254D01*
X18862Y76027D01*
X18997Y76792D01*
X19198Y77542D01*
X19464Y78271D01*
X19792Y78975D01*
X20180Y79647D01*
X20625Y80283D01*
X21124Y80877D01*
X21673Y81426D01*
X22268Y81925D01*
X22904Y82371D01*
X23576Y82759D01*
X24279Y83087D01*
X25009Y83352D01*
X25759Y83553D01*
X26523Y83688D01*
X27297Y83756D01*
X28073Y83756D01*
X28846Y83688D01*
X29611Y83553D01*
X30361Y83352D01*
X31090Y83087D01*
X31794Y82759D01*
X32466Y82371D01*
X33102Y81925D01*
X33696Y81426D01*
X34245Y80877D01*
X34744Y80283D01*
X35190Y79647D01*
X35578Y78975D01*
X35906Y78271D01*
X36171Y77542D01*
X36372Y76792D01*
X36507Y76027D01*
X36575Y75254D01*
X36575Y74478D01*
X253716Y130528D02*
X253648Y129666D01*
X253513Y128813D01*
X253311Y127972D01*
X253044Y127150D01*
X252713Y126352D01*
X252321Y125581D01*
X251869Y124844D01*
X251361Y124145D01*
X250800Y123488D01*
X250188Y122877D01*
X249531Y122315D01*
X248832Y121807D01*
X248095Y121355D01*
X247325Y120963D01*
X246526Y120632D01*
X245704Y120365D01*
X244864Y120163D01*
X244010Y120028D01*
X243148Y119960D01*
X242284Y119960D01*
X241422Y120028D01*
X240568Y120163D01*
X239728Y120365D01*
X238906Y120632D01*
X238107Y120963D01*
X237337Y121355D01*
X236600Y121807D01*
X235901Y122315D01*
X235243Y122877D01*
X234632Y123488D01*
X234071Y124145D01*
X233563Y124844D01*
X233111Y125581D01*
X232719Y126352D01*
X232388Y127150D01*
X232121Y127972D01*
X231919Y128813D01*
X231784Y129666D01*
X231716Y130528D01*
X231716Y131393D01*
X231784Y132254D01*
X231919Y133108D01*
X232121Y133949D01*
X232388Y134771D01*
X232719Y135569D01*
X233111Y136339D01*
X233563Y137076D01*
X234071Y137776D01*
X234632Y138433D01*
X235243Y139044D01*
X235901Y139606D01*
X236600Y140114D01*
X237337Y140565D01*
X238107Y140958D01*
X238906Y141288D01*
X239728Y141556D01*
X240568Y141757D01*
X241422Y141893D01*
X242284Y141960D01*
X243148Y141960D01*
X244010Y141893D01*
X244864Y141757D01*
X245704Y141556D01*
X246526Y141288D01*
X247325Y140958D01*
X248095Y140565D01*
X248832Y140114D01*
X249531Y139606D01*
X250188Y139044D01*
X250800Y138433D01*
X251361Y137776D01*
X251869Y137076D01*
X252321Y136339D01*
X252713Y135569D01*
X253044Y134771D01*
X253311Y133949D01*
X253513Y133108D01*
X253648Y132254D01*
X253716Y131393D01*
X253716Y130528D01*
X84583Y372528D02*
X84516Y371666D01*
X84380Y370813D01*
X84179Y369972D01*
X83912Y369150D01*
X83581Y368352D01*
X83188Y367581D01*
X82737Y366844D01*
X82229Y366145D01*
X81667Y365488D01*
X81056Y364877D01*
X80399Y364315D01*
X79699Y363807D01*
X78962Y363355D01*
X78192Y362963D01*
X77394Y362632D01*
X76572Y362365D01*
X75731Y362163D01*
X74877Y362028D01*
X74016Y361960D01*
X73151Y361960D01*
X72290Y362028D01*
X71436Y362163D01*
X70595Y362365D01*
X69773Y362632D01*
X68975Y362963D01*
X68205Y363355D01*
X67467Y363807D01*
X66768Y364315D01*
X66111Y364877D01*
X65500Y365488D01*
X64938Y366145D01*
X64430Y366844D01*
X63979Y367581D01*
X63586Y368352D01*
X63255Y369150D01*
X62988Y369972D01*
X62787Y370813D01*
X62651Y371666D01*
X62583Y372528D01*
X62583Y373393D01*
X62651Y374254D01*
X62787Y375108D01*
X62988Y375949D01*
X63255Y376771D01*
X63586Y377569D01*
X63979Y378339D01*
X64430Y379076D01*
X64938Y379776D01*
X65500Y380433D01*
X66111Y381044D01*
X66768Y381606D01*
X67467Y382114D01*
X68205Y382565D01*
X68975Y382958D01*
X69773Y383288D01*
X70595Y383556D01*
X71436Y383757D01*
X72290Y383893D01*
X73151Y383960D01*
X74016Y383960D01*
X74877Y383893D01*
X75731Y383757D01*
X76572Y383556D01*
X77394Y383288D01*
X78192Y382958D01*
X78962Y382565D01*
X79699Y382114D01*
X80399Y381606D01*
X81056Y381044D01*
X81667Y380433D01*
X82229Y379776D01*
X82737Y379076D01*
X83188Y378339D01*
X83581Y377569D01*
X83912Y376771D01*
X84179Y375949D01*
X84380Y375108D01*
X84516Y374254D01*
X84583Y373393D01*
X84583Y372528D01*
X36575Y74478D02*
X36507Y73704D01*
X36372Y72940D01*
X36171Y72190D01*
X35906Y71460D01*
X35578Y70757D01*
X35190Y70085D01*
X34744Y69449D01*
X34245Y68854D01*
X33696Y68305D01*
X33102Y67806D01*
X32466Y67361D01*
X31794Y66973D01*
X31090Y66645D01*
X30361Y66379D01*
X29611Y66178D01*
X28846Y66043D01*
X28073Y65976D01*
X27297Y65976D01*
X26523Y66043D01*
X25759Y66178D01*
X25009Y66379D01*
X24279Y66645D01*
X23576Y66973D01*
X22904Y67361D01*
X22268Y67806D01*
X21673Y68305D01*
X21124Y68854D01*
X20625Y69449D01*
X20180Y70085D01*
X19792Y70757D01*
X19464Y71460D01*
X19198Y72190D01*
X18997Y72940D01*
X18862Y73704D01*
X18795Y74478D01*
X18795Y75254D01*
X18862Y76027D01*
X18997Y76792D01*
X19198Y77542D01*
X19464Y78271D01*
X19792Y78975D01*
X20180Y79647D01*
X20625Y80283D01*
X21124Y80877D01*
X21673Y81426D01*
X22268Y81925D01*
X22904Y82371D01*
X23576Y82759D01*
X24279Y83087D01*
X25009Y83352D01*
X25759Y83553D01*
X26523Y83688D01*
X27297Y83756D01*
X28073Y83756D01*
X28846Y83688D01*
X29611Y83553D01*
X30361Y83352D01*
X31090Y83087D01*
X31794Y82759D01*
X32466Y82371D01*
X33102Y81925D01*
X33696Y81426D01*
X34245Y80877D01*
X34744Y80283D01*
X35190Y79647D01*
X35578Y78975D01*
X35906Y78271D01*
X36171Y77542D01*
X36372Y76792D01*
X36507Y76027D01*
X36575Y75254D01*
X36575Y74478D01*
M02*
